# Blender v2.80 (sub 75) OBJ File: 'helipad.blend'
# www.blender.org
mtllib helipad.mtl
o Cube
v 0.190976 0.066895 -0.960101
v 0.000000 0.066895 -0.978911
v 0.000000 0.055207 -1.000000
v 0.000000 0.001665 -1.000000
v 0.195090 0.055207 -0.980785
v 0.195090 0.001665 -0.980785
v 0.382683 0.055207 -0.923880
v 0.382683 0.001665 -0.923880
v 0.555570 0.055207 -0.831470
v 0.555570 0.001665 -0.831470
v 0.707107 0.055207 -0.707107
v 0.707107 0.001665 -0.707107
v 0.831470 0.055207 -0.555570
v 0.831470 0.001665 -0.555570
v 0.923880 0.055207 -0.382683
v 0.923880 0.001665 -0.382683
v 0.980785 0.055207 -0.195090
v 0.980785 0.001665 -0.195090
v 1.000000 0.055207 -0.000000
v 1.000000 0.001665 -0.000000
v 0.980785 0.055207 0.195090
v 0.980785 0.001665 0.195090
v 0.923880 0.055207 0.382683
v 0.923880 0.001665 0.382683
v 0.831470 0.055207 0.555570
v 0.831470 0.001665 0.555570
v 0.707107 0.055207 0.707107
v 0.707107 0.001665 0.707107
v 0.555570 0.055207 0.831470
v 0.555570 0.001665 0.831470
v 0.382683 0.055207 0.923880
v 0.382683 0.001665 0.923880
v 0.195090 0.055207 0.980785
v 0.195090 0.001665 0.980785
v -0.000000 0.055207 1.000000
v -0.000000 0.001665 1.000000
v -0.195091 0.055207 0.980785
v -0.195091 0.001665 0.980785
v -0.382684 0.055207 0.923879
v -0.382684 0.001665 0.923879
v -0.555571 0.055207 0.831469
v -0.555571 0.001665 0.831469
v -0.707107 0.055207 0.707106
v -0.707107 0.001665 0.707106
v -0.831470 0.055207 0.555570
v -0.831470 0.001665 0.555570
v -0.923880 0.055207 0.382683
v -0.923880 0.001665 0.382683
v -0.980785 0.055207 0.195089
v -0.980785 0.001665 0.195089
v -1.000000 0.055207 -0.000001
v -1.000000 0.001665 -0.000001
v -0.980785 0.055207 -0.195091
v -0.980785 0.001665 -0.195091
v -0.923879 0.055207 -0.382684
v -0.923879 0.001665 -0.382684
v -0.831469 0.055207 -0.555571
v -0.831469 0.001665 -0.555571
v -0.707106 0.055207 -0.707108
v -0.707106 0.001665 -0.707108
v -0.555569 0.055207 -0.831470
v -0.555569 0.001665 -0.831470
v -0.382682 0.055207 -0.923880
v -0.382682 0.001665 -0.923880
v -0.195089 0.055207 -0.980786
v -0.195089 0.001665 -0.980786
v 0.374613 0.066895 -0.904396
v 0.543854 0.066895 -0.813935
v 0.692195 0.066895 -0.692195
v 0.813935 0.066895 -0.543854
v 0.904396 0.066895 -0.374613
v 0.960101 0.066895 -0.190976
v 0.978911 0.066895 -0.000000
v 0.960102 0.066895 0.190976
v 0.904396 0.066895 0.374613
v 0.813935 0.066895 0.543854
v 0.692195 0.066895 0.692195
v 0.543854 0.066895 0.813935
v 0.374613 0.066895 0.904396
v 0.190976 0.066895 0.960102
v -0.000000 0.066895 0.978911
v -0.190976 0.066895 0.960101
v -0.374613 0.066895 0.904396
v -0.543854 0.066895 0.813934
v -0.692195 0.066895 0.692194
v -0.813935 0.066895 0.543853
v -0.904396 0.066895 0.374612
v -0.960102 0.066895 0.190975
v -0.978911 0.066895 -0.000001
v -0.960101 0.066895 -0.190977
v -0.904395 0.066895 -0.374614
v -0.813934 0.066895 -0.543855
v -0.692194 0.066895 -0.692196
v -0.543853 0.066895 -0.813935
v -0.374612 0.066895 -0.904396
v -0.190975 0.066895 -0.960102
v 0.179706 0.079314 -0.903443
v 0.000000 0.079314 -0.921142
v 0.352506 0.079314 -0.851024
v 0.511759 0.079314 -0.765902
v 0.651346 0.079314 -0.651346
v 0.765902 0.079314 -0.511759
v 0.851024 0.079314 -0.352506
v 0.903443 0.079314 -0.179706
v 0.921142 0.079314 -0.000000
v 0.903443 0.079314 0.179706
v 0.851025 0.079314 0.352506
v 0.765902 0.079314 0.511759
v 0.651346 0.079314 0.651346
v 0.511759 0.079314 0.765902
v 0.352506 0.079314 0.851025
v 0.179706 0.079314 0.903443
v -0.000000 0.079314 0.921142
v -0.179706 0.079314 0.903443
v -0.352506 0.079314 0.851024
v -0.511760 0.079314 0.765902
v -0.651346 0.079314 0.651345
v -0.765902 0.079314 0.511759
v -0.851025 0.079314 0.352505
v -0.903443 0.079314 0.179705
v -0.921142 0.079314 -0.000001
v -0.903443 0.079314 -0.179707
v -0.851024 0.079314 -0.352507
v -0.765901 0.079314 -0.511760
v -0.651345 0.079314 -0.651347
v -0.511758 0.079314 -0.765903
v -0.352505 0.079314 -0.851025
v -0.179705 0.079314 -0.903443
v 0.168180 0.091733 -0.845497
v 0.000000 0.091733 -0.862061
v 0.329896 0.091733 -0.796440
v 0.478935 0.091733 -0.716777
v 0.609569 0.091733 -0.609569
v 0.716778 0.091733 -0.478935
v 0.796440 0.091733 -0.329896
v 0.845497 0.091733 -0.168180
v 0.862061 0.091733 -0.000000
v 0.845497 0.091733 0.168180
v 0.796440 0.091733 0.329896
v 0.716778 0.091733 0.478935
v 0.609569 0.091733 0.609569
v 0.478935 0.091733 0.716777
v 0.329896 0.091733 0.796440
v 0.168180 0.091733 0.845497
v -0.000000 0.091733 0.862061
v -0.168180 0.091733 0.845497
v -0.329897 0.091733 0.796440
v -0.478936 0.091733 0.716777
v -0.609569 0.091733 0.609569
v -0.716778 0.091733 0.478935
v -0.796441 0.091733 0.329896
v -0.845497 0.091733 0.168179
v -0.862061 0.091733 -0.000001
v -0.845496 0.091733 -0.168181
v -0.796440 0.091733 -0.329897
v -0.716777 0.091733 -0.478936
v -0.609568 0.091733 -0.609570
v -0.478934 0.091733 -0.716778
v -0.329895 0.091733 -0.796441
v -0.168178 0.091733 -0.845497
v 0.153884 0.101960 -0.773627
v 0.000000 0.101960 -0.788784
v 0.301854 0.101960 -0.728741
v 0.438225 0.101960 -0.655850
v 0.557754 0.101960 -0.557754
v 0.655850 0.101960 -0.438225
v 0.728741 0.101960 -0.301854
v 0.773627 0.101960 -0.153884
v 0.788784 0.101960 -0.000000
v 0.773627 0.101960 0.153884
v 0.728741 0.101960 0.301854
v 0.655850 0.101960 0.438225
v 0.557754 0.101960 0.557754
v 0.438225 0.101960 0.655850
v 0.301854 0.101960 0.728741
v 0.153884 0.101960 0.773627
v -0.000000 0.101960 0.788784
v -0.153884 0.101960 0.773627
v -0.301855 0.101960 0.728741
v -0.438225 0.101960 0.655849
v -0.557755 0.101960 0.557754
v -0.655850 0.101960 0.438224
v -0.728741 0.101960 0.301854
v -0.773628 0.101960 0.153883
v -0.788784 0.101960 -0.000001
v -0.773627 0.101960 -0.153885
v -0.728741 0.101960 -0.301855
v -0.655849 0.101960 -0.438226
v -0.557754 0.101960 -0.557755
v -0.438224 0.101960 -0.655850
v -0.301853 0.101960 -0.728742
v -0.153883 0.101960 -0.773628
vt 0.456317 0.080775
vt 0.480371 0.106670
vt 0.471886 0.113468
vt 0.448841 0.088884
vt 0.019128 0.236652
vt 0.031695 0.193768
vt 0.036878 0.195707
vt 0.024626 0.237809
vt 0.019989 0.189274
vt 0.039538 0.147772
vt 0.050271 0.153878
vt 0.257454 0.604455
vt 0.209329 0.587066
vt 0.215740 0.572700
vt 0.261700 0.589053
vt 0.430819 0.054643
vt 0.459392 0.077451
vt 0.428239 0.058448
vt 0.064706 0.110260
vt 0.074252 0.117791
vt 0.125498 0.533068
vt 0.091423 0.498060
vt 0.102922 0.488396
vt 0.135570 0.521612
vt 0.307628 0.621187
vt 0.255700 0.610774
vt 0.308426 0.614576
vt 0.094754 0.077462
vt 0.102932 0.086205
vt 0.519020 0.575174
vt 0.467205 0.597461
vt 0.461594 0.581367
vt 0.510393 0.559713
vt 0.021586 0.373866
vt 0.013802 0.327710
vt 0.019572 0.327165
vt 0.027296 0.372439
vt 0.128854 0.049976
vt 0.135523 0.059697
vt 0.287422 0.016114
vt 0.325488 0.018740
vt 0.323830 0.030353
vt 0.287528 0.028027
vt 0.078491 0.121078
vt 0.055029 0.156532
vt 0.166115 0.028260
vt 0.171170 0.038709
vt 0.066634 0.162976
vt 0.049513 0.200407
vt 0.326178 0.013975
vt 0.363533 0.022387
vt 0.362157 0.026924
vt 0.205599 0.012629
vt 0.208976 0.023548
vt 0.041956 0.416718
vt 0.041202 0.368937
vt 0.055384 0.411081
vt 0.469485 0.604098
vt 0.415696 0.618069
vt 0.414454 0.611308
vt 0.246348 0.003249
vt 0.248021 0.014379
vt 0.361147 0.616962
vt 0.310340 0.598463
vt 0.360611 0.600492
vt 0.086696 0.502017
vt 0.058240 0.462094
vt 0.063427 0.458940
vt 0.287405 0.000142
vt 0.287388 0.011225
vt 0.396645 0.040313
vt 0.421970 0.067729
vt 0.391766 0.050588
vt 0.248801 0.019283
vt 0.210507 0.028353
vt 0.327833 0.003189
vt 0.106574 0.090032
vt 0.138503 0.063961
vt 0.145781 0.074335
vt 0.115464 0.099339
vt 0.483854 0.103882
vt 0.503887 0.133216
vt 0.500098 0.135441
vt 0.366739 0.012132
vt 0.165049 0.563022
vt 0.173415 0.549984
vt 0.206687 0.592958
vt 0.161606 0.568367
vt 0.403293 0.026591
vt 0.398655 0.036100
vt 0.490772 0.140880
vt 0.013048 0.281627
vt 0.018746 0.281949
vt 0.436740 0.046071
vt 0.250724 0.031228
vt 0.214259 0.040054
vt 0.466423 0.069980
vt 0.038029 0.240601
vt 0.032629 0.282710
vt 0.491793 0.097640
vt 0.076049 0.451233
vt 0.361355 0.623722
vt 0.512448 0.128257
vt 0.036440 0.419021
vt 0.528810 0.161068
vt 0.519849 0.165537
vt 0.411399 0.594849
vt 0.522468 0.581630
vt 0.528810 0.596732
vt 0.474445 0.619137
vt 0.358826 0.037984
vt 0.418369 0.633410
vt 0.088837 0.129067
vt 0.121356 0.537762
vt 0.361694 0.639047
vt 0.033627 0.325812
vt 0.173440 0.043300
vt 0.305691 0.636155
vt 0.251601 0.625059
vt 0.200584 0.606259
vt 0.178992 0.054477
vt 0.153699 0.580414
vt 0.111877 0.548321
vt 0.515672 0.167165
vt 0.505315 0.171031
vt 0.075907 0.510894
vt 0.046424 0.469141
vt 0.023896 0.424134
vt 0.008618 0.376989
vt 0.000716 0.328833
vt 0.252773 0.043581
vt 0.218200 0.052145
vt 0.000142 0.280785
vt 0.614429 0.418356
vt 0.581644 0.385570
vt 0.555884 0.347018
vt 0.538141 0.304182
vt 0.529095 0.258707
vt 0.529095 0.212341
vt 0.538141 0.166865
vt 0.555884 0.124029
vt 0.581644 0.085477
vt 0.614430 0.052691
vt 0.652981 0.026931
vt 0.695818 0.009188
vt 0.741293 0.000142
vt 0.787659 0.000142
vt 0.833134 0.009188
vt 0.875971 0.026932
vt 0.914523 0.052691
vt 0.947309 0.085477
vt 0.973069 0.124029
vt 0.990812 0.166866
vt 0.999858 0.212340
vt 0.999858 0.258707
vt 0.990812 0.304182
vt 0.973068 0.347019
vt 0.947309 0.385571
vt 0.914523 0.418356
vt 0.875971 0.444116
vt 0.833134 0.461859
vt 0.787660 0.470905
vt 0.741293 0.470905
vt 0.695818 0.461859
vt 0.652981 0.444116
vt 0.006688 0.233925
vt 0.124711 0.108927
vt 0.153365 0.085037
vt 0.162899 0.098327
vt 0.136310 0.120818
vt 0.312241 0.581778
vt 0.359975 0.583450
vt 0.184793 0.066016
vt 0.408152 0.577839
vt 0.062612 0.205210
vt 0.051915 0.243426
vt 0.455670 0.564791
vt 0.047001 0.283428
vt 0.501443 0.544023
vt 0.048167 0.324342
vt 0.099583 0.137284
vt 0.494690 0.174931
vt 0.481107 0.146487
vt 0.055577 0.365243
vt 0.078677 0.169587
vt 0.463130 0.120537
vt 0.069253 0.405180
vt 0.441143 0.097313
vt 0.089075 0.443194
vt 0.415528 0.077365
vt 0.114774 0.478338
vt 0.386768 0.061246
vt 0.145936 0.509706
vt 0.355432 0.049448
vt 0.182008 0.536449
vt 0.322170 0.042380
vt 0.222304 0.557799
vt 0.287696 0.040356
vt 0.266018 0.573091
vt 0.550226 0.744800
vt 0.536230 0.711011
vt 0.529095 0.675141
vt 0.529095 0.638568
vt 0.536230 0.602698
vt 0.550226 0.568909
vt 0.570545 0.538500
vt 0.596406 0.512639
vt 0.626814 0.492320
vt 0.660603 0.478325
vt 0.696473 0.471190
vt 0.733046 0.471190
vt 0.768916 0.478325
vt 0.802705 0.492320
vt 0.833114 0.512639
vt 0.858975 0.538500
vt 0.879294 0.568909
vt 0.893290 0.602698
vt 0.900425 0.638568
vt 0.900425 0.675141
vt 0.893290 0.711011
vt 0.879294 0.744800
vt 0.858975 0.775209
vt 0.833114 0.801070
vt 0.802705 0.821389
vt 0.768916 0.835384
vt 0.733046 0.842519
vt 0.696473 0.842519
vt 0.660603 0.835384
vt 0.626814 0.821388
vt 0.596405 0.801069
vt 0.570544 0.775209
vt 0.448181 0.544239
vt 0.490296 0.524840
vt 0.064928 0.284221
vt 0.066288 0.322404
vt 0.113042 0.147454
vt 0.481622 0.179671
vt 0.469111 0.153452
vt 0.073475 0.360535
vt 0.093742 0.177746
vt 0.452263 0.129396
vt 0.086507 0.397723
vt 0.078982 0.211105
vt 0.431604 0.107875
vt 0.105261 0.433076
vt 0.407564 0.089427
vt 0.129483 0.465711
vt 0.380611 0.074572
vt 0.158779 0.494785
vt 0.351283 0.063767
vt 0.192627 0.519509
vt 0.320188 0.057390
vt 0.230383 0.539171
vt 0.287994 0.055730
vt 0.271289 0.553156
vt 0.255417 0.058972
vt 0.314494 0.560959
vt 0.223201 0.067195
vt 0.359061 0.562207
vt 0.192109 0.080364
vt 0.403987 0.556666
vt 0.069250 0.246848
vn -0.0995 -0.9775 -0.1862
vn 0.0477 -0.8737 0.4842
vn -0.0980 0.0000 0.9952
vn 0.1862 -0.9775 -0.0995
vn -0.3087 -0.8737 -0.3761
vn -0.2903 0.0000 0.9569
vn 0.2101 -0.9775 0.0207
vn 0.3761 -0.8737 -0.3087
vn -0.4714 0.0000 0.8819
vn 0.0207 -0.9775 -0.2101
vn 0.3087 -0.8737 0.3761
vn -0.6344 0.0000 0.7730
vn -0.2101 -0.9775 -0.0207
vn -0.1412 -0.8737 0.4656
vn -0.7730 0.0000 0.6344
vn -0.0207 -0.9775 0.2101
vn -0.4656 -0.8737 -0.1412
vn -0.8819 0.0000 0.4714
vn 0.1632 -0.9775 0.1339
vn 0.1412 -0.8737 -0.4656
vn -0.9569 0.0000 0.2903
vn 0.1339 -0.9775 -0.1632
vn 0.4656 -0.8737 0.1412
vn -0.9952 0.0000 0.0980
vn -0.1632 -0.9775 -0.1339
vn -0.4656 -0.8737 0.1412
vn -0.9952 0.0000 -0.0980
vn -0.1339 -0.9775 0.1632
vn -0.1412 -0.8737 -0.4656
vn -0.9569 0.0000 -0.2903
vn 0.2021 -0.9775 -0.0613
vn 0.4656 -0.8737 -0.1412
vn -0.8819 0.0000 -0.4714
vn -0.0613 -0.9775 -0.2021
vn 0.1412 -0.8737 0.4656
vn -0.7730 0.0000 -0.6344
vn -0.2021 -0.9775 0.0613
vn -0.3087 -0.8737 0.3761
vn -0.6344 0.0000 -0.7730
vn 0.0613 -0.9775 0.2021
vn -0.3761 -0.8737 -0.3087
vn -0.4714 0.0000 -0.8819
vn 0.2021 -0.9775 0.0613
vn 0.3087 -0.8737 -0.3761
vn -0.2903 0.0000 -0.9569
vn 0.0207 -0.9775 0.2101
vn 0.3761 -0.8737 0.3087
vn -0.0980 0.0000 -0.9952
vn 0.0613 -0.9775 -0.2021
vn -0.4842 -0.8737 -0.0477
vn 0.0980 0.0000 -0.9952
vn -0.2021 -0.9775 -0.0613
vn 0.0477 -0.8737 -0.4842
vn 0.2903 0.0000 -0.9569
vn -0.0613 -0.9775 0.2021
vn 0.4842 -0.8737 0.0477
vn 0.4714 0.0000 -0.8819
vn 0.1339 -0.9775 0.1632
vn -0.4291 -0.8737 0.2294
vn 0.6344 0.0000 -0.7730
vn 0.1632 -0.9775 -0.1339
vn -0.0477 -0.8737 0.4842
vn 0.7730 0.0000 -0.6344
vn -0.1339 -0.9775 -0.1632
vn -0.2294 -0.8737 -0.4291
vn 0.8819 0.0000 -0.4714
vn -0.1632 -0.9775 0.1339
vn 0.4291 -0.8737 -0.2294
vn 0.9569 0.0000 -0.2903
vn 0.2101 -0.9775 -0.0207
vn 0.2294 -0.8737 0.4291
vn 0.9952 0.0000 -0.0980
vn -0.0207 -0.9775 -0.2101
vn -0.2294 -0.8737 0.4291
vn 0.9952 -0.0000 0.0980
vn -0.2101 -0.9775 0.0207
vn -0.4291 -0.8737 -0.2294
vn 0.9569 0.0000 0.2903
vn 0.1862 -0.9775 0.0995
vn 0.2294 -0.8737 -0.4291
vn 0.8819 0.0000 0.4714
vn 0.0995 -0.9775 -0.1862
vn 0.4291 -0.8737 0.2294
vn 0.7730 0.0000 0.6344
vn -0.1862 -0.9775 -0.0995
vn -0.4842 -0.8737 0.0477
vn 0.6344 0.0000 0.7730
vn -0.1978 -0.9784 0.0600
vn -0.0477 -0.8737 -0.4842
vn 0.4714 0.0000 0.8819
vn 0.0000 1.0000 0.0000
vn -0.0995 -0.9775 0.1862
vn 0.2903 0.0000 0.9569
vn -0.1862 -0.9775 0.0995
vn -0.3761 -0.8737 0.3087
vn 0.0980 0.0000 0.9952
vn 0.4842 -0.8737 -0.0477
vn 0.0995 -0.9775 0.1862
vn -0.0881 -0.9903 0.1074
vn 0.1311 -0.9784 -0.1597
vn -0.1823 -0.9784 0.0974
vn 0.0974 -0.9784 -0.1823
vn 0.0203 -0.9784 0.2057
vn -0.1597 -0.9784 0.1311
vn 0.0600 -0.9784 -0.1978
vn 0.0600 -0.9784 0.1978
vn -0.1311 -0.9784 0.1597
vn 0.0203 -0.9784 -0.2057
vn 0.0974 -0.9784 0.1823
vn -0.0974 -0.9784 0.1823
vn -0.0203 -0.9784 -0.2057
vn 0.1311 -0.9784 0.1597
vn -0.0600 -0.9784 0.1978
vn -0.0600 -0.9784 -0.1978
vn 0.1597 -0.9784 0.1311
vn -0.0203 -0.9784 0.2057
vn -0.0974 -0.9784 -0.1823
vn 0.1823 -0.9784 0.0974
vn -0.1311 -0.9784 -0.1597
vn 0.1978 -0.9784 0.0600
vn -0.1597 -0.9784 -0.1311
vn 0.2057 -0.9784 0.0203
vn -0.1823 -0.9784 -0.0974
vn 0.2057 -0.9784 -0.0203
vn -0.1978 -0.9784 -0.0600
vn 0.1978 -0.9784 -0.0600
vn -0.2057 -0.9784 -0.0203
vn 0.1823 -0.9784 -0.0974
vn -0.2057 -0.9784 0.0203
vn 0.1597 -0.9784 -0.1311
vn 0.0000 -1.0000 0.0000
vn 0.0136 -0.9903 -0.1382
vn 0.0655 -0.9903 0.1225
vn -0.0655 -0.9903 0.1225
vn -0.0136 -0.9903 -0.1382
vn 0.0881 -0.9903 0.1074
vn -0.0403 -0.9903 0.1329
vn -0.0403 -0.9903 -0.1329
vn 0.1074 -0.9903 0.0881
vn -0.0136 -0.9903 0.1382
vn -0.0655 -0.9903 -0.1225
vn 0.1225 -0.9903 0.0655
vn -0.0881 -0.9903 -0.1074
vn 0.1329 -0.9903 0.0403
vn -0.1074 -0.9903 -0.0881
vn 0.1382 -0.9903 0.0136
vn -0.1225 -0.9903 -0.0655
vn 0.1382 -0.9903 -0.0136
vn -0.1329 -0.9903 -0.0403
vn 0.1329 -0.9903 -0.0403
vn -0.1382 -0.9903 -0.0136
vn 0.1225 -0.9903 -0.0655
vn -0.1382 -0.9903 0.0136
vn 0.1074 -0.9903 -0.0881
vn -0.1329 -0.9903 0.0403
vn 0.0881 -0.9903 -0.1074
vn -0.1225 -0.9903 0.0655
vn 0.0655 -0.9903 -0.1225
vn 0.0136 -0.9903 0.1382
vn -0.1074 -0.9903 0.0881
vn 0.0403 -0.9903 -0.1329
vn 0.0403 -0.9903 0.1329
usemtl Material
s off
f 78/1/1 79/2/1 111/3/1 110/4/1
f 65/5/2 3/6/2 2/7/2 96/8/2
f 3/6/3 4/9/3 6/10/3 5/11/3
f 86/12/4 87/13/4 119/14/4 118/15/4
f 27/16/5 29/17/5 78/1/5 77/18/5
f 5/11/6 6/10/6 8/19/6 7/20/6
f 89/21/7 90/22/7 122/23/7 121/24/7
f 43/25/8 45/26/8 86/12/8 85/27/8
f 7/20/9 8/19/9 10/28/9 9/29/9
f 81/30/10 82/31/10 114/32/10 113/33/10
f 59/34/11 61/35/11 94/36/11 93/37/11
f 9/29/12 10/28/12 12/38/12 11/39/12
f 73/40/13 74/41/13 106/42/13 105/43/13
f 5/11/14 7/20/14 67/44/14 1/45/14
f 11/39/15 12/38/15 14/46/15 13/47/15
f 2/7/16 1/45/16 97/48/16 98/49/16
f 21/50/17 23/51/17 75/52/17 74/41/17
f 13/47/18 14/46/18 16/53/18 15/54/18
f 92/55/19 93/37/19 125/56/19 124/57/19
f 37/58/20 39/59/20 83/60/20 82/31/20
f 15/54/21 16/53/21 18/61/21 17/62/21
f 84/63/22 85/27/22 117/64/22 116/65/22
f 53/66/23 55/67/23 91/68/23 90/22/23
f 17/62/24 18/61/24 20/69/24 19/70/24
f 76/71/25 77/18/25 109/72/25 108/73/25
f 15/54/26 17/62/26 72/74/26 71/75/26
f 19/70/27 20/69/27 22/76/27 21/50/27
f 68/77/28 69/78/28 101/79/28 100/80/28
f 31/81/29 33/82/29 80/83/29 79/2/29
f 21/50/30 22/76/30 24/84/30 23/51/30
f 87/13/31 88/85/31 120/86/31 119/14/31
f 47/87/32 49/88/32 88/85/32 87/13/32
f 23/51/33 24/84/33 26/89/33 25/90/33
f 79/2/34 80/83/34 112/91/34 111/3/34
f 63/92/35 65/5/35 96/8/35 95/93/35
f 25/90/36 26/89/36 28/94/36 27/16/36
f 71/75/37 72/74/37 104/95/37 103/96/37
f 9/29/38 11/39/38 69/78/38 68/77/38
f 27/16/39 28/94/39 30/97/39 29/17/39
f 95/93/40 96/8/40 128/98/40 127/99/40
f 25/90/41 27/16/41 77/18/41 76/71/41
f 29/17/42 30/97/42 32/100/42 31/81/42
f 90/22/43 91/68/43 123/101/43 122/23/43
f 41/102/44 43/25/44 85/27/44 84/63/44
f 31/81/45 32/100/45 34/103/45 33/82/45
f 96/8/46 2/7/46 98/49/46 128/98/46
f 57/104/47 59/34/47 93/37/47 92/55/47
f 33/82/48 34/103/48 36/105/48 35/106/48
f 82/31/49 83/60/49 115/107/49 114/32/49
f 19/70/50 21/50/50 74/41/50 73/40/50
f 35/108/51 36/109/51 38/110/51 37/58/51
f 74/41/52 75/52/52 107/111/52 106/42/52
f 35/108/53 37/58/53 82/31/53 81/30/53
f 37/58/54 38/110/54 40/112/54 39/59/54
f 1/45/55 67/44/55 99/113/55 97/48/55
f 51/114/56 53/66/56 90/22/56 89/21/56
f 39/59/57 40/112/57 42/115/57 41/102/57
f 93/37/58 94/36/58 126/116/58 125/56/58
f 13/47/59 15/54/59 71/75/59 70/117/59
f 41/102/60 42/115/60 44/118/60 43/25/60
f 85/27/61 86/12/61 118/15/61 117/64/61
f 3/6/62 5/11/62 1/45/62 2/7/62
f 43/25/63 44/118/63 46/119/63 45/26/63
f 77/18/64 78/1/64 110/4/64 109/72/64
f 29/17/65 31/81/65 79/2/65 78/1/65
f 45/26/66 46/119/66 48/120/66 47/87/66
f 69/78/67 70/117/67 102/121/67 101/79/67
f 45/26/68 47/87/68 87/13/68 86/12/68
f 47/87/69 48/120/69 50/122/69 49/88/69
f 88/85/70 89/21/70 121/24/70 120/86/70
f 61/35/71 63/92/71 95/93/71 94/36/71
f 49/88/72 50/122/72 52/123/72 51/114/72
f 80/83/73 81/124/73 113/125/73 112/91/73
f 7/20/74 9/29/74 68/77/74 67/44/74
f 51/114/75 52/123/75 54/126/75 53/66/75
f 72/74/76 73/40/76 105/43/76 104/95/76
f 23/51/77 25/90/77 76/71/77 75/52/77
f 53/66/78 54/126/78 56/127/78 55/67/78
f 91/68/79 92/55/79 124/57/79 123/101/79
f 39/59/80 41/102/80 84/63/80 83/60/80
f 55/67/81 56/127/81 58/128/81 57/104/81
f 83/60/82 84/63/82 116/65/82 115/107/82
f 55/67/83 57/104/83 92/55/83 91/68/83
f 57/104/84 58/128/84 60/129/84 59/34/84
f 75/52/85 76/71/85 108/73/85 107/111/85
f 17/62/86 19/70/86 73/40/86 72/74/86
f 59/34/87 60/129/87 62/130/87 61/35/87
f 103/96/88 104/95/88 136/131/88 135/132/88
f 33/82/89 35/106/89 81/124/89 80/83/89
f 61/35/90 62/130/90 64/133/90 63/92/90
f 6/134/91 4/135/91 66/136/91 64/137/91 62/138/91 60/139/91 58/140/91 56/141/91 54/142/91 52/143/91 50/144/91 48/145/91 46/146/91 44/147/91 42/148/91 40/149/91 38/150/91 36/151/91 34/152/91 32/153/91 30/154/91 28/155/91 26/156/91 24/157/91 22/158/91 20/159/91 18/160/91 16/161/91 14/162/91 12/163/91 10/164/91 8/165/91
f 67/44/92 68/77/92 100/80/92 99/113/92
f 63/92/93 64/133/93 66/166/93 65/5/93
f 70/117/94 71/75/94 103/96/94 102/121/94
f 11/39/95 13/47/95 70/117/95 69/78/95
f 65/5/96 66/166/96 4/9/96 3/6/96
f 49/88/97 51/114/97 89/21/97 88/85/97
f 94/36/98 95/93/98 127/99/98 126/116/98
f 132/167/99 133/168/99 165/169/99 164/170/99
f 116/65/100 117/64/100 149/171/100 148/172/100
f 102/121/101 103/96/101 135/132/101 134/173/101
f 115/107/102 116/65/102 148/172/102 147/174/102
f 128/98/103 98/49/103 130/175/103 160/176/103
f 101/79/104 102/121/104 134/173/104 133/168/104
f 114/32/105 115/107/105 147/174/105 146/177/105
f 127/99/106 128/98/106 160/176/106 159/178/106
f 100/80/107 101/79/107 133/168/107 132/167/107
f 113/33/108 114/32/108 146/177/108 145/179/108
f 126/116/109 127/99/109 159/178/109 158/180/109
f 99/113/110 100/80/110 132/167/110 131/181/110
f 112/91/111 113/125/111 145/182/111 144/183/111
f 125/56/112 126/116/112 158/180/112 157/184/112
f 97/48/113 99/113/113 131/181/113 129/185/113
f 111/3/114 112/91/114 144/183/114 143/186/114
f 124/57/115 125/56/115 157/184/115 156/187/115
f 98/49/116 97/48/116 129/185/116 130/175/116
f 110/4/117 111/3/117 143/186/117 142/188/117
f 123/101/118 124/57/118 156/187/118 155/189/118
f 109/72/119 110/4/119 142/188/119 141/190/119
f 122/23/120 123/101/120 155/189/120 154/191/120
f 108/73/121 109/72/121 141/190/121 140/192/121
f 121/24/122 122/23/122 154/191/122 153/193/122
f 107/111/123 108/73/123 140/192/123 139/194/123
f 120/86/124 121/24/124 153/193/124 152/195/124
f 106/42/125 107/111/125 139/194/125 138/196/125
f 119/14/126 120/86/126 152/195/126 151/197/126
f 105/43/127 106/42/127 138/196/127 137/198/127
f 118/15/128 119/14/128 151/197/128 150/199/128
f 104/95/129 105/43/129 137/198/129 136/131/129
f 117/64/130 118/15/130 150/199/130 149/171/130
f 162/200/131 161/201/131 163/202/131 164/203/131 165/204/131 166/205/131 167/206/131 168/207/131 169/208/131 170/209/131 171/210/131 172/211/131 173/212/131 174/213/131 175/214/131 176/215/131 177/216/131 178/217/131 179/218/131 180/219/131 181/220/131 182/221/131 183/222/131 184/223/131 185/224/131 186/225/131 187/226/131 188/227/131 189/228/131 190/229/131 191/230/131 192/231/131
f 145/179/132 146/177/132 178/232/132 177/233/132
f 158/180/133 159/178/133 191/234/133 190/235/133
f 131/181/134 132/167/134 164/170/134 163/236/134
f 144/183/135 145/182/135 177/237/135 176/238/135
f 157/184/136 158/180/136 190/235/136 189/239/136
f 129/185/137 131/181/137 163/236/137 161/240/137
f 143/186/138 144/183/138 176/238/138 175/241/138
f 156/187/139 157/184/139 189/239/139 188/242/139
f 130/175/140 129/185/140 161/240/140 162/243/140
f 142/188/141 143/186/141 175/241/141 174/244/141
f 155/189/142 156/187/142 188/242/142 187/245/142
f 141/190/143 142/188/143 174/244/143 173/246/143
f 154/191/144 155/189/144 187/245/144 186/247/144
f 140/192/145 141/190/145 173/246/145 172/248/145
f 153/193/146 154/191/146 186/247/146 185/249/146
f 139/194/147 140/192/147 172/248/147 171/250/147
f 152/195/148 153/193/148 185/249/148 184/251/148
f 138/196/149 139/194/149 171/250/149 170/252/149
f 151/197/150 152/195/150 184/251/150 183/253/150
f 137/198/151 138/196/151 170/252/151 169/254/151
f 150/199/152 151/197/152 183/253/152 182/255/152
f 136/131/153 137/198/153 169/254/153 168/256/153
f 149/171/154 150/199/154 182/255/154 181/257/154
f 135/132/155 136/131/155 168/256/155 167/258/155
f 148/172/156 149/171/156 181/257/156 180/259/156
f 134/173/157 135/132/157 167/258/157 166/260/157
f 147/174/158 148/172/158 180/259/158 179/261/158
f 160/176/159 130/175/159 162/243/159 192/262/159
f 133/168/160 134/173/160 166/260/160 165/169/160
f 146/177/161 147/174/161 179/261/161 178/232/161
f 159/178/162 160/176/162 192/262/162 191/234/162
