# Blender v2.82 (sub 7) OBJ File: 'helipad.blend'
# www.blender.org
mtllib helipadHitbox.mtl
o Cube.001
v 0.190976 0.066895 -0.960101
v 0.000000 0.066895 -0.978911
v 0.000000 0.001665 -1.000000
v 0.195090 0.001665 -0.980785
v 0.382683 0.001665 -0.923880
v 0.555570 0.001665 -0.831470
v 0.707107 0.001665 -0.707107
v 0.831470 0.001665 -0.555570
v 0.923880 0.001665 -0.382683
v 0.980785 0.001665 -0.195090
v 1.000000 0.001665 -0.000000
v 0.980785 0.001665 0.195090
v 0.923880 0.001665 0.382683
v 0.831470 0.001665 0.555570
v 0.707107 0.001665 0.707107
v 0.555570 0.001665 0.831470
v 0.382683 0.001665 0.923880
v 0.195090 0.001665 0.980785
v -0.000000 0.001665 1.000000
v -0.195091 0.001665 0.980785
v -0.382684 0.001665 0.923879
v -0.555571 0.001665 0.831469
v -0.707107 0.001665 0.707106
v -0.831470 0.001665 0.555570
v -0.923880 0.001665 0.382683
v -0.980785 0.001665 0.195089
v -1.000000 0.001665 -0.000001
v -0.980785 0.001665 -0.195091
v -0.923879 0.001665 -0.382684
v -0.831469 0.001665 -0.555571
v -0.707106 0.001665 -0.707108
v -0.555569 0.001665 -0.831470
v -0.382682 0.001665 -0.923880
v -0.195089 0.001665 -0.980786
v 0.374613 0.066895 -0.904396
v 0.543854 0.066895 -0.813935
v 0.692195 0.066895 -0.692195
v 0.813935 0.066895 -0.543854
v 0.904396 0.066895 -0.374613
v 0.960101 0.066895 -0.190976
v 0.978911 0.066895 -0.000000
v 0.960102 0.066895 0.190976
v 0.904396 0.066895 0.374613
v 0.813935 0.066895 0.543854
v 0.692195 0.066895 0.692195
v 0.543854 0.066895 0.813935
v 0.374613 0.066895 0.904396
v 0.190976 0.066895 0.960102
v -0.000000 0.066895 0.978911
v -0.190976 0.066895 0.960101
v -0.374613 0.066895 0.904396
v -0.543854 0.066895 0.813934
v -0.692195 0.066895 0.692194
v -0.813935 0.066895 0.543853
v -0.904396 0.066895 0.374612
v -0.960102 0.066895 0.190975
v -0.978911 0.066895 -0.000001
v -0.960101 0.066895 -0.190977
v -0.904395 0.066895 -0.374614
v -0.813934 0.066895 -0.543855
v -0.692194 0.066895 -0.692196
v -0.543853 0.066895 -0.813935
v -0.374612 0.066895 -0.904396
v -0.190975 0.066895 -0.960102
v 0.153884 0.101960 -0.773627
v 0.000000 0.101960 -0.788784
v 0.301854 0.101960 -0.728741
v 0.438225 0.101960 -0.655850
v 0.557754 0.101960 -0.557754
v 0.655850 0.101960 -0.438225
v 0.728741 0.101960 -0.301854
v 0.773627 0.101960 -0.153884
v 0.788784 0.101960 -0.000000
v 0.773627 0.101960 0.153884
v 0.728741 0.101960 0.301854
v 0.655850 0.101960 0.438225
v 0.557754 0.101960 0.557754
v 0.438225 0.101960 0.655850
v 0.301854 0.101960 0.728741
v 0.153884 0.101960 0.773627
v -0.000000 0.101960 0.788784
v -0.153884 0.101960 0.773627
v -0.301855 0.101960 0.728741
v -0.438225 0.101960 0.655849
v -0.557755 0.101960 0.557754
v -0.655850 0.101960 0.438224
v -0.728741 0.101960 0.301854
v -0.773628 0.101960 0.153883
v -0.788784 0.101960 -0.000001
v -0.773627 0.101960 -0.153885
v -0.728741 0.101960 -0.301855
v -0.655849 0.101960 -0.438226
v -0.557754 0.101960 -0.557755
v -0.438224 0.101960 -0.655850
v -0.301853 0.101960 -0.728742
v -0.153883 0.101960 -0.773628
vt 0.064706 0.110260
vt 0.078491 0.121078
vt 0.055029 0.156532
vt 0.039538 0.147772
vt 0.480371 0.106670
vt 0.456317 0.080775
vt 0.466423 0.069980
vt 0.491793 0.097640
vt 0.094754 0.077462
vt 0.106574 0.090032
vt 0.209329 0.587066
vt 0.257454 0.604455
vt 0.251601 0.625059
vt 0.200584 0.606259
vt 0.138503 0.063961
vt 0.128854 0.049976
vt 0.019572 0.327165
vt 0.000716 0.328833
vt 0.000142 0.280785
vt 0.018746 0.281949
vt 0.166115 0.028260
vt 0.173440 0.043300
vt 0.205599 0.012629
vt 0.210507 0.028353
vt 0.036878 0.195707
vt 0.078982 0.211105
vt 0.069250 0.246848
vt 0.024626 0.237809
vt 0.403293 0.026591
vt 0.396645 0.040313
vt 0.362157 0.026924
vt 0.366739 0.012132
vt 0.246348 0.003249
vt 0.248801 0.019283
vt 0.361694 0.639047
vt 0.361147 0.616962
vt 0.414454 0.611308
vt 0.418369 0.633410
vt 0.287405 0.000142
vt 0.287422 0.016114
vt 0.041956 0.416718
vt 0.063427 0.458940
vt 0.046424 0.469141
vt 0.023896 0.424134
vt 0.325488 0.018740
vt 0.327833 0.003189
vt 0.528810 0.161068
vt 0.515672 0.167165
vt 0.500098 0.135441
vt 0.512448 0.128257
vt 0.111877 0.548321
vt 0.125498 0.533068
vt 0.165049 0.563022
vt 0.153699 0.580414
vt 0.428239 0.058448
vt 0.436740 0.046071
vt 0.006688 0.233925
vt 0.019989 0.189274
vt 0.308426 0.614576
vt 0.305691 0.636155
vt 0.027296 0.372439
vt 0.008618 0.376989
vt 0.467205 0.597461
vt 0.519020 0.575174
vt 0.528810 0.596732
vt 0.474445 0.619137
vt 0.091423 0.498060
vt 0.075907 0.510894
vt 0.614429 0.418356
vt 0.581644 0.385570
vt 0.555884 0.347018
vt 0.538141 0.304182
vt 0.529095 0.258707
vt 0.529095 0.212341
vt 0.538141 0.166865
vt 0.555884 0.124029
vt 0.581644 0.085477
vt 0.614430 0.052691
vt 0.652981 0.026931
vt 0.695818 0.009188
vt 0.741293 0.000142
vt 0.787659 0.000142
vt 0.833134 0.009188
vt 0.875971 0.026932
vt 0.914523 0.052691
vt 0.947309 0.085477
vt 0.973069 0.124029
vt 0.990812 0.166866
vt 0.999858 0.212340
vt 0.999858 0.258707
vt 0.990812 0.304182
vt 0.973068 0.347019
vt 0.947309 0.385571
vt 0.914523 0.418356
vt 0.875971 0.444116
vt 0.833134 0.461859
vt 0.787660 0.470905
vt 0.741293 0.470905
vt 0.695818 0.461859
vt 0.652981 0.444116
vt 0.136310 0.120818
vt 0.113042 0.147454
vt 0.550226 0.744800
vt 0.536230 0.711011
vt 0.529095 0.675141
vt 0.529095 0.638568
vt 0.536230 0.602698
vt 0.550226 0.568909
vt 0.570545 0.538500
vt 0.596406 0.512639
vt 0.626814 0.492320
vt 0.660603 0.478325
vt 0.696473 0.471190
vt 0.733046 0.471190
vt 0.768916 0.478325
vt 0.802705 0.492320
vt 0.833114 0.512639
vt 0.858975 0.538500
vt 0.879294 0.568909
vt 0.893290 0.602698
vt 0.900425 0.638568
vt 0.900425 0.675141
vt 0.893290 0.711011
vt 0.879294 0.744800
vt 0.858975 0.775209
vt 0.833114 0.801070
vt 0.802705 0.821389
vt 0.768916 0.835384
vt 0.733046 0.842519
vt 0.696473 0.842519
vt 0.660603 0.835384
vt 0.626814 0.821388
vt 0.596405 0.801069
vt 0.570544 0.775209
vt 0.481622 0.179671
vt 0.469111 0.153452
vt 0.066288 0.322404
vt 0.073475 0.360535
vt 0.093742 0.177746
vt 0.452263 0.129396
vt 0.086507 0.397723
vt 0.431604 0.107875
vt 0.105261 0.433076
vt 0.407564 0.089427
vt 0.129483 0.465711
vt 0.380611 0.074572
vt 0.158779 0.494785
vt 0.351283 0.063767
vt 0.192627 0.519509
vt 0.320188 0.057390
vt 0.230383 0.539171
vt 0.287994 0.055730
vt 0.271289 0.553156
vt 0.255417 0.058972
vt 0.314494 0.560959
vt 0.223201 0.067195
vt 0.359061 0.562207
vt 0.192109 0.080364
vt 0.403987 0.556666
vt 0.162899 0.098327
vt 0.448181 0.544239
vt 0.064928 0.284221
vt 0.490296 0.524840
vn -0.2763 -0.3063 0.9110
vn -0.4487 -0.3063 -0.8395
vn -0.4487 -0.3063 0.8395
vn 0.8395 -0.3063 -0.4487
vn -0.6039 -0.3063 0.7359
vn 0.4487 -0.3063 0.8395
vn -0.7359 -0.3063 0.6039
vn -0.8395 -0.3063 0.4487
vn 0.0179 -0.9833 0.1813
vn -0.8395 -0.3063 -0.4487
vn -0.9110 -0.3063 0.2763
vn 0.4487 -0.3063 -0.8395
vn -0.9474 -0.3063 0.0933
vn 0.8395 -0.3063 0.4487
vn -0.9474 -0.3063 -0.0933
vn -0.9110 -0.3063 -0.2763
vn -0.0933 -0.3063 -0.9474
vn 0.9474 -0.3063 -0.0933
vn -0.7359 -0.3063 -0.6039
vn 0.0933 -0.3063 0.9474
vn -0.6039 -0.3063 -0.7359
vn -0.2763 -0.3063 -0.9110
vn 0.7359 -0.3063 -0.6039
vn 0.6039 -0.3063 0.7359
vn 0.0933 -0.3063 -0.9474
vn 0.2763 -0.3063 -0.9110
vn 0.9110 -0.3063 0.2763
vn 0.6039 -0.3063 -0.7359
vn 0.9110 -0.3063 -0.2763
vn 0.2763 -0.3063 0.9110
vn 0.9474 -0.3063 0.0933
vn 0.7359 -0.3063 0.6039
vn 0.0000 1.0000 0.0000
vn -0.0859 -0.9833 0.1607
vn 0.0000 -1.0000 0.0000
vn -0.0179 -0.9833 -0.1813
vn 0.1156 -0.9833 0.1409
vn -0.0529 -0.9833 0.1744
vn -0.0529 -0.9833 -0.1744
vn 0.1409 -0.9833 0.1156
vn -0.0179 -0.9833 0.1813
vn -0.0859 -0.9833 -0.1607
vn 0.1607 -0.9833 0.0859
vn -0.1156 -0.9833 -0.1409
vn 0.1744 -0.9833 0.0529
vn -0.1409 -0.9833 -0.1156
vn 0.1813 -0.9833 0.0179
vn -0.1607 -0.9833 -0.0859
vn 0.1813 -0.9833 -0.0179
vn -0.1744 -0.9833 -0.0529
vn 0.1744 -0.9833 -0.0529
vn -0.1813 -0.9833 -0.0179
vn 0.1607 -0.9833 -0.0859
vn -0.1813 -0.9833 0.0179
vn 0.1409 -0.9833 -0.1156
vn -0.1744 -0.9833 0.0529
vn 0.1156 -0.9833 -0.1409
vn -0.1607 -0.9833 0.0859
vn 0.0859 -0.9833 -0.1607
vn -0.1409 -0.9833 0.1156
vn 0.0529 -0.9833 -0.1744
vn 0.0529 -0.9833 0.1744
vn -0.1156 -0.9833 0.1409
vn 0.0179 -0.9833 -0.1813
vn 0.0859 -0.9833 0.1607
vn -0.0933 -0.3063 0.9474
usemtl Material
s off
f 5/1/1 35/2/1 1/3/1 4/4/1
f 47/5/2 46/6/2 16/7/2 17/8/2
f 6/9/3 36/10/3 35/2/3 5/1/3
f 55/11/4 54/12/4 24/13/4 25/14/4
f 37/15/5 36/10/5 6/9/5 7/16/5
f 62/17/6 32/18/6 33/19/6 63/20/6
f 8/21/7 38/22/7 37/15/7 7/16/7
f 9/23/8 39/24/8 38/22/8 8/21/8
f 2/25/9 66/26/9 96/27/9 64/28/9
f 14/29/10 44/30/10 43/31/10 13/32/10
f 10/33/11 40/34/11 39/24/11 9/23/11
f 22/35/12 52/36/12 51/37/12 21/38/12
f 11/39/13 41/40/13 40/34/13 10/33/13
f 60/41/14 59/42/14 29/43/14 30/44/14
f 42/45/15 41/40/15 11/39/15 12/46/15
f 42/45/16 12/46/16 13/32/16 43/31/16
f 19/47/17 49/48/17 48/49/17 18/50/17
f 27/51/18 57/52/18 56/53/18 26/54/18
f 45/55/19 44/30/19 14/29/19 15/56/19
f 64/28/20 34/57/20 3/58/20 2/25/20
f 45/55/21 15/56/21 16/7/21 46/6/21
f 47/5/22 17/8/22 18/50/22 48/49/22
f 53/59/23 23/60/23 24/13/23 54/12/23
f 61/61/24 31/62/24 32/18/24 62/17/24
f 50/63/25 49/64/25 19/65/25 20/66/25
f 50/63/26 20/66/26 21/38/26 51/37/26
f 58/67/27 28/68/27 29/43/27 59/42/27
f 22/35/28 23/60/28 53/59/28 52/36/28
f 55/11/29 25/14/29 26/54/29 56/53/29
f 63/20/30 33/19/30 34/57/30 64/28/30
f 27/51/31 28/68/31 58/67/31 57/52/31
f 60/41/32 30/44/32 31/62/32 61/61/32
f 4/69/33 3/70/33 34/71/33 33/72/33 32/73/33 31/74/33 30/75/33 29/76/33 28/77/33 27/78/33 26/79/33 25/80/33 24/81/33 23/82/33 22/83/33 21/84/33 20/85/33 19/86/33 18/87/33 17/88/33 16/89/33 15/90/33 14/91/33 13/92/33 12/93/33 11/94/33 10/95/33 9/96/33 8/97/33 7/98/33 6/99/33 5/100/33
f 36/10/34 68/101/34 67/102/34 35/2/34
f 66/103/35 65/104/35 67/105/35 68/106/35 69/107/35 70/108/35 71/109/35 72/110/35 73/111/35 74/112/35 75/113/35 76/114/35 77/115/35 78/116/35 79/117/35 80/118/35 81/119/35 82/120/35 83/121/35 84/122/35 85/123/35 86/124/35 87/125/35 88/126/35 89/127/35 90/128/35 91/129/35 92/130/35 93/131/35 94/132/35 95/133/35 96/134/35
f 49/48/36 81/135/36 80/136/36 48/49/36
f 62/17/37 94/137/37 93/138/37 61/61/37
f 35/2/38 67/102/38 65/139/38 1/3/38
f 48/49/39 80/136/39 79/140/39 47/5/39
f 61/61/40 93/138/40 92/141/40 60/41/40
f 1/3/41 65/139/41 66/26/41 2/25/41
f 47/5/42 79/140/42 78/142/42 46/6/42
f 60/41/43 92/141/43 91/143/43 59/42/43
f 46/6/44 78/142/44 77/144/44 45/55/44
f 59/42/45 91/143/45 90/145/45 58/67/45
f 45/55/46 77/144/46 76/146/46 44/30/46
f 58/67/47 90/145/47 89/147/47 57/52/47
f 44/30/48 76/146/48 75/148/48 43/31/48
f 57/52/49 89/147/49 88/149/49 56/53/49
f 43/31/50 75/148/50 74/150/50 42/45/50
f 56/53/51 88/149/51 87/151/51 55/11/51
f 42/45/52 74/150/52 73/152/52 41/40/52
f 55/11/53 87/151/53 86/153/53 54/12/53
f 41/40/54 73/152/54 72/154/54 40/34/54
f 54/12/55 86/153/55 85/155/55 53/59/55
f 40/34/56 72/154/56 71/156/56 39/24/56
f 53/59/57 85/155/57 84/157/57 52/36/57
f 39/24/58 71/156/58 70/158/58 38/22/58
f 52/36/59 84/157/59 83/159/59 51/37/59
f 38/22/60 70/158/60 69/160/60 37/15/60
f 51/37/61 83/159/61 82/161/61 50/63/61
f 64/28/62 96/27/62 95/162/62 63/20/62
f 37/15/63 69/160/63 68/101/63 36/10/63
f 50/63/64 82/161/64 81/163/64 49/64/64
f 63/20/65 95/162/65 94/137/65 62/17/65
f 4/4/66 1/3/66 2/25/66 3/58/66
