# Blender v2.81 (sub 16) OBJ File: 'Plane.blend'
# www.blender.org
mtllib fighterBomberHitbox02.mtl
o Cube
v -0.018358 -0.058245 0.967764
v -0.018358 -0.009127 0.967764
v 0.018358 -0.058245 0.967764
v 0.018358 -0.009127 0.967764
v 0.108774 -0.084157 0.280697
v 0.108774 0.247570 0.352340
v 0.045844 0.064064 -0.895880
v 0.045844 0.081521 -0.895880
v 0.181940 -0.007689 0.169404
v 0.181940 -0.060928 0.159791
v 0.071982 0.068211 -0.693055
v 0.071947 0.100774 -0.693323
v 0.022703 0.126814 -0.817405
v 0.041382 -0.039381 -0.930502
v 0.129009 -0.047341 -0.249549
v 0.129009 -0.004960 -0.248031
v 0.380876 0.027671 -0.966170
v 0.380876 0.018216 -0.966170
v 0.366376 0.029247 -0.874326
v 0.366366 0.038293 -0.874401
v 0.188073 -0.081391 0.205872
v 0.025682 0.165984 -0.491020
v 0.188073 0.241494 0.264171
v 0.105960 -0.059767 -0.429389
v 0.770736 -0.027139 -0.151726
v 0.839592 -0.009346 -0.335407
v 0.770736 -0.009826 -0.142113
v 0.839592 -0.020391 -0.336925
v 0.018358 -0.058245 0.967764
v 0.018358 -0.009127 0.967764
v -0.018358 -0.058245 0.967764
v -0.018358 -0.009127 0.967764
v -0.108774 -0.084157 0.280697
v -0.108774 0.247570 0.352340
v -0.045844 0.064064 -0.895880
v -0.045844 0.081521 -0.895880
v -0.181940 -0.007689 0.169404
v -0.181940 -0.060928 0.159791
v -0.071982 0.068211 -0.693055
v -0.071947 0.100774 -0.693323
v -0.022703 0.126814 -0.817405
v -0.041382 -0.039381 -0.930502
v -0.129009 -0.047341 -0.249549
v -0.129009 -0.004960 -0.248031
v -0.380876 0.027671 -0.966170
v -0.380876 0.018216 -0.966170
v -0.366376 0.029247 -0.874326
v -0.366366 0.038293 -0.874401
v -0.188073 -0.081391 0.205872
v 0.000000 -0.009127 0.967764
v -0.025682 0.165984 -0.491020
v 0.000000 -0.058245 0.967764
v -0.188073 0.241494 0.264171
v -0.105960 -0.059767 -0.429389
v -0.770736 -0.027139 -0.151726
v -0.839592 -0.009346 -0.335407
v -0.770736 -0.009826 -0.142113
v -0.839592 -0.020391 -0.336925
v 0.041382 0.113241 -0.930502
v 0.105960 0.173380 -0.429389
v -0.041382 0.113241 -0.930502
v -0.105960 0.173380 -0.429389
v 0.022703 0.481829 -0.912013
v 0.025682 0.480511 -0.789567
v -0.022703 0.481829 -0.912013
v -0.025682 0.480511 -0.789567
vt 0.582143 0.500000
vt 0.606907 0.500000
vt 0.606907 0.500000
vt 0.566935 0.500000
vt 0.375000 0.500000
vt 0.625000 0.500000
vt 0.625000 0.750000
vt 0.375000 0.750000
vt 0.375000 0.875000
vt 0.625000 0.875000
vt 0.625000 1.000000
vt 0.375000 1.000000
vt 0.625000 0.500000
vt 0.625000 0.500000
vt 0.625000 0.500000
vt 0.625000 0.500000
vt 0.625000 0.500000
vt 0.625000 0.750000
vt 0.750000 0.750000
vt 0.625000 0.500000
vt 0.625000 0.500000
vt 0.625000 0.500000
vt 0.375000 0.500000
vt 0.375000 0.500000
vt 0.375000 0.500000
vt 0.375000 0.500000
vt 0.375000 0.500000
vt 0.375000 0.500000
vt 0.422781 0.500000
vt 0.375000 0.500000
vt 0.422781 0.500000
vt 0.625000 0.500000
vt 0.375000 0.500000
vt 0.375000 0.500000
vt 0.250000 0.750000
vt 0.375000 0.750000
vt 0.422781 0.500000
vt 0.422781 0.500000
vt 0.375000 0.500000
vt 0.548963 0.500000
vt 0.546196 0.500000
vt 0.625000 0.500000
vt 0.590042 0.500000
vt 0.548963 0.500000
vt 0.625000 0.500000
vt 0.625000 0.500000
vt 0.375000 0.500000
vt 0.582143 0.500000
vt 0.566935 0.500000
vt 0.606907 0.500000
vt 0.606907 0.500000
vt 0.375000 1.000000
vt 0.625000 1.000000
vt 0.625000 0.500000
vt 0.625000 0.500000
vt 0.625000 0.500000
vt 0.375000 0.500000
vt 0.375000 0.500000
vt 0.422781 0.500000
vt 0.422781 0.500000
vt 0.375000 0.500000
vt 0.375000 0.500000
vt 0.422781 0.500000
vt 0.422781 0.500000
vt 0.548963 0.500000
vt 0.546196 0.500000
vt 0.548963 0.500000
vt 0.590042 0.500000
vn 0.1399 0.9845 -0.1054
vn 0.9908 -0.0250 0.1331
vn 0.0000 0.0000 1.0000
vn 0.0000 0.9929 -0.1192
vn 0.0000 0.9229 0.3850
vn -0.9999 -0.0074 -0.0126
vn 0.0000 -0.9993 -0.0369
vn 0.9917 0.0100 -0.1279
vn 0.4596 -0.2335 0.8569
vn 0.7085 -0.1374 0.6922
vn 0.0000 0.0000 -1.0000
vn 0.0000 -0.9993 0.0377
vn -0.1227 0.0563 -0.9908
vn 0.9918 0.0000 -0.1278
vn 0.9878 0.0011 0.1559
vn -0.2053 0.0000 -0.9787
vn 0.5250 0.0076 0.8510
vn -0.1115 -0.9922 0.0555
vn 0.9925 0.0147 -0.1215
vn 0.9323 -0.1322 0.3367
vn 0.9923 0.0221 -0.1223
vn 0.0000 0.9952 -0.0977
vn 0.9920 0.0007 -0.1263
vn 0.0067 1.0000 0.0054
vn 0.0000 -0.9994 -0.0340
vn 0.0365 -0.9988 -0.0332
vn 0.0000 0.9976 -0.0687
vn -0.1399 0.9845 -0.1054
vn -0.9908 -0.0250 0.1331
vn 0.9999 -0.0074 -0.0126
vn -0.9917 0.0100 -0.1279
vn -0.4596 -0.2335 0.8569
vn -0.7085 -0.1374 0.6922
vn 0.1227 0.0563 -0.9908
vn -0.9918 0.0000 -0.1278
vn -0.9878 0.0011 0.1559
vn 0.2053 0.0000 -0.9787
vn -0.5250 0.0076 0.8510
vn 0.1115 -0.9922 0.0555
vn -0.9925 0.0147 -0.1215
vn -0.9323 -0.1322 0.3367
vn -0.9923 0.0221 -0.1223
vn -0.9920 0.0007 -0.1263
vn -0.0067 1.0000 0.0054
vn -0.0365 -0.9988 -0.0332
vn 0.0000 0.9999 0.0108
vn 0.0000 0.6884 0.7253
vn 0.0000 -0.2575 -0.9663
vn 0.0000 -0.9992 -0.0406
usemtl None
s off
f 8/1/1 12/2/1 20/3/1 17/4/1
f 5/5/2 6/6/2 4/7/2 3/8/2
f 52/9/3 50/10/3 2/11/3 1/12/3
f 41/13/4 13/14/4 59/15/4 61/16/4
f 34/17/5 32/18/5 50/19/5 4/7/5 6/6/5
f 41/13/6 51/20/6 66/21/6 65/22/6
f 33/23/7 49/24/7 21/25/7 5/5/7
f 15/26/8 10/27/8 21/25/8 24/28/8
f 9/29/9 10/27/9 25/30/9 27/31/9
f 6/6/10 5/5/10 21/25/10 23/32/10
f 14/33/11 42/34/11 61/16/11 59/15/11
f 52/35/12 31/36/12 33/23/12 5/5/12 3/8/12
f 15/26/13 16/37/13 26/38/13 28/39/13
f 8/1/14 7/40/14 14/33/14 59/15/14
f 7/40/14 11/41/14 24/28/14 14/33/14
f 12/2/14 8/1/14 59/15/14 60/42/14
f 11/41/14 12/2/14 60/42/14 24/28/14
f 20/3/15 19/43/15 18/44/15 17/4/15
f 7/40/16 8/1/16 17/4/16 18/44/16
f 12/2/17 11/41/17 19/43/17 20/3/17
f 11/41/18 7/40/18 18/44/18 19/43/18
f 9/29/19 16/37/19 60/42/19 23/32/19
f 25/30/20 28/39/20 26/38/20 27/31/20
f 10/27/21 9/29/21 23/32/21 21/25/21
f 53/45/22 23/32/22 60/42/22 62/46/22
f 16/37/23 15/26/23 24/28/23 60/42/23
f 9/29/24 27/31/24 26/38/24 16/37/24
f 21/25/25 49/24/25 54/47/25 24/28/25
f 10/27/26 15/26/26 28/39/26 25/30/26
f 23/32/27 53/45/27 34/17/27 6/6/27
f 3/8/3 4/7/3 50/10/3 52/9/3
f 36/48/28 45/49/28 48/50/28 40/51/28
f 33/23/29 31/36/29 32/18/29 34/17/29
f 52/9/3 29/52/3 30/53/3 50/10/3
f 22/54/30 13/14/30 63/55/30 64/56/30
f 43/57/31 54/47/31 49/24/31 38/58/31
f 37/59/32 57/60/32 55/61/32 38/58/32
f 34/17/33 53/45/33 49/24/33 33/23/33
f 43/57/34 58/62/34 56/63/34 44/64/34
f 36/48/35 61/16/35 42/34/35 35/65/35
f 35/65/35 42/34/35 54/47/35 39/66/35
f 40/51/35 62/46/35 61/16/35 36/48/35
f 39/66/35 54/47/35 62/46/35 40/51/35
f 48/50/36 45/49/36 46/67/36 47/68/36
f 35/65/37 46/67/37 45/49/37 36/48/37
f 40/51/38 48/50/38 47/68/38 39/66/38
f 39/66/39 47/68/39 46/67/39 35/65/39
f 37/59/40 53/45/40 62/46/40 44/64/40
f 55/61/41 57/60/41 56/63/41 58/62/41
f 38/58/42 49/24/42 53/45/42 37/59/42
f 44/64/43 62/46/43 54/47/43 43/57/43
f 37/59/44 44/64/44 56/63/44 57/60/44
f 38/58/45 55/61/45 58/62/45 43/57/45
f 31/36/3 52/9/3 50/10/3 32/18/3
f 22/54/4 51/20/4 62/46/4 60/42/4
f 13/14/4 22/54/4 60/42/4 59/15/4
f 63/55/46 65/22/46 66/21/46 64/56/46
f 51/20/4 41/13/4 61/16/4 62/46/4
f 51/20/47 22/54/47 64/56/47 66/21/47
f 13/14/48 41/13/48 65/22/48 63/55/48
f 54/47/49 42/34/49 14/33/49 24/28/49
