# Blender v2.81 (sub 16) OBJ File: 'jh7.blend'
# www.blender.org
mtllib fighterHitboxBomber00.mtl
o Cube
v 0.105973 -0.125864 1.000000
v 0.105973 0.277030 1.000000
v 0.177851 -0.025237 -0.983481
v 0.023401 -0.077095 1.826592
v 0.023401 -0.035997 1.826592
v 0.105973 -0.125864 1.346015
v 0.105973 0.138729 1.346015
v 0.105973 0.207880 1.253415
v 0.105973 -0.125864 1.253415
v 0.177851 -0.025237 -0.596771
v 0.177851 0.000064 -0.983481
v 0.105973 0.180563 1.000000
v 0.105973 0.127969 1.253415
v 0.177851 0.003720 -0.596771
v 1.025793 0.000765 -0.537415
v 0.177851 0.260627 0.807067
v 1.025793 -0.015227 -0.537415
v 0.177851 0.235493 0.511445
v 0.177851 -0.125864 0.511445
v 0.177851 0.157739 0.511445
v 0.954732 0.053138 -0.374602
v 0.954732 0.024606 -0.374602
v 0.177851 0.171550 0.807067
v 0.177851 -0.125864 0.807067
v 0.104249 0.262138 0.824844
v 0.104249 0.172380 0.824844
v 0.104249 -0.125864 0.824844
v 0.177851 0.154185 -1.000000
v 0.177851 0.215401 -0.361103
v 0.022645 0.158826 -0.896417
v 0.022645 0.219769 -0.370660
v 0.022645 0.646313 -1.193415
v 0.022645 0.747398 -1.040384
v 0.022645 0.331020 -1.001325
v 0.022645 0.388047 -0.679609
v 0.177851 0.087131 -1.000000
v 0.177851 -0.125864 -1.000000
v 0.177851 -0.125864 -0.354145
v 0.177851 0.117907 -0.354145
v 0.498932 0.000064 -1.186463
v 0.498932 -0.025237 -1.186463
v 0.495054 -0.025237 -1.059508
v 0.495054 0.003720 -1.059508
v -0.105973 -0.125864 1.000000
v -0.105973 0.277030 1.000000
v -0.177851 -0.025237 -0.983481
v -0.023401 -0.077095 1.826592
v -0.023401 -0.035997 1.826592
v -0.105973 -0.125864 1.346015
v -0.105973 0.138729 1.346015
v -0.105973 0.207880 1.253415
v -0.105973 -0.125864 1.253415
v -0.177851 -0.025237 -0.596771
v -0.177851 0.000064 -0.983481
v -0.105973 0.180563 1.000000
v -0.105973 0.127969 1.253415
v -0.177851 0.003720 -0.596771
v -1.025793 0.000765 -0.537415
v -0.177851 0.260627 0.807067
v -1.025793 -0.015227 -0.537415
v -0.177851 0.235493 0.511445
v -0.177851 -0.125864 0.511445
v -0.177851 0.157739 0.511445
v -0.954732 0.053138 -0.374602
v -0.954732 0.024606 -0.374602
v -0.177851 0.171550 0.807067
v -0.177851 -0.125864 0.807067
v -0.104249 0.262138 0.824844
v -0.104249 0.172380 0.824844
v -0.104249 -0.125864 0.824844
v -0.177851 0.154185 -1.000000
v -0.177851 0.215401 -0.361103
v -0.022645 0.158826 -0.896417
v -0.022645 0.219769 -0.370660
v -0.022645 0.646313 -1.193415
v -0.022645 0.747398 -1.040384
v -0.022645 0.331020 -1.001325
v -0.022645 0.388047 -0.679609
v -0.177851 0.087131 -1.000000
v -0.177851 -0.125864 -1.000000
v -0.177851 -0.125864 -0.354145
v -0.177851 0.117907 -0.354145
v -0.498932 0.000064 -1.186463
v -0.498932 -0.025237 -1.186463
v -0.495054 -0.025237 -1.059508
v -0.495054 0.003720 -1.059508
vt 0.625000 0.718750
vt 0.500000 0.718750
vt 0.500000 0.687500
vt 0.625000 0.687500
vt 0.500000 0.500000
vt 0.500000 0.500000
vt 0.625000 0.500000
vt 0.625000 0.500000
vt 0.375000 0.750000
vt 0.375000 0.750000
vt 0.625000 0.750000
vt 0.625000 0.750000
vt 0.375000 0.750000
vt 0.625000 0.750000
vt 0.375000 0.750000
vt 0.625000 0.750000
vt 0.625000 0.750000
vt 0.625000 0.750000
vt 0.375000 0.750000
vt 0.375000 0.750000
vt 0.500000 0.750000
vt 0.625000 0.750000
vt 0.500000 0.750000
vt 0.625000 0.750000
vt 0.625000 0.625000
vt 0.500000 0.625000
vt 0.375000 0.625000
vt 0.375000 0.500000
vt 0.375000 0.500000
vt 0.375000 0.625000
vt 0.375000 0.750000
vt 0.375000 0.734375
vt 0.500000 0.734375
vt 0.375000 0.625000
vt 0.375000 0.625000
vt 0.375000 0.500000
vt 0.375000 0.500000
vt 0.500000 0.625000
vt 0.500000 0.687500
vt 0.625000 0.625000
vt 0.625000 0.687500
vt 0.375000 0.687500
vt 0.625000 0.625000
vt 0.625000 0.687500
vt 0.375000 0.718750
vt 0.625000 0.718750
vt 0.625000 0.734375
vt 0.625000 0.734375
vt 0.375000 0.734375
vt 0.375000 0.718750
vt 0.625000 0.500000
vt 0.625000 0.625000
vt 0.625000 0.625000
vt 0.625000 0.500000
vt 0.625000 0.500000
vt 0.625000 0.625000
vt 0.625000 0.500000
vt 0.625000 0.625000
vt 0.625000 0.500000
vt 0.625000 0.500000
vt 0.500000 0.500000
vt 0.500000 0.625000
vt 0.500000 0.500000
vt 0.500000 0.625000
vt 0.625000 0.625000
vt 0.625000 0.625000
vt 0.375000 0.687500
vt 0.375000 0.750000
vt 0.500000 0.687500
vt 0.500000 0.718750
vt 0.500000 0.750000
vt 0.500000 0.750000
vt 0.500000 0.625000
vt 0.375000 0.625000
vt 0.375000 0.625000
vt 0.375000 0.500000
vt 0.375000 0.500000
vt 0.500000 0.734375
vt 0.500000 0.687500
vt 0.500000 0.625000
vt 0.625000 0.625000
vt 0.625000 0.687500
vt 0.500000 0.500000
vt 0.500000 0.625000
vt 0.500000 0.625000
vt 0.500000 0.500000
vn 1.0000 0.0000 0.0000
vn 0.0000 0.0000 -1.0000
vn 0.0000 0.0000 1.0000
vn 0.9856 0.0000 0.1693
vn 0.0000 0.8012 0.5983
vn 0.0000 -1.0000 0.0000
vn 0.0000 0.9647 0.2633
vn 1.0000 0.0000 -0.0098
vn -0.1172 -0.9907 0.0687
vn -0.2188 -0.0597 -0.9740
vn 0.2032 0.9776 -0.0545
vn 0.7519 0.0000 0.6593
vn 0.9165 0.0000 0.4000
vn 0.0000 0.9997 -0.0230
vn 0.0000 0.9964 -0.0847
vn 0.2348 0.0000 0.9721
vn -0.0027 0.9945 -0.1043
vn 0.0000 0.8344 -0.5512
vn 0.0000 -0.5203 -0.8540
vn 0.9995 0.0000 0.0305
vn 0.8248 0.0000 0.5654
vn -0.5344 0.0000 -0.8453
vn -0.0150 0.9998 -0.0143
vn 0.0000 0.7085 0.7057
vn 0.0000 0.9095 0.4157
vn 0.0000 0.9990 -0.0448
vn 0.0000 0.9398 0.3417
vn 0.0000 -0.9949 0.1010
vn -1.0000 0.0000 0.0000
vn -0.9856 0.0000 0.1693
vn -1.0000 0.0000 -0.0098
vn 0.1172 -0.9907 0.0687
vn 0.2188 -0.0597 -0.9740
vn -0.2032 0.9776 -0.0545
vn -0.7519 0.0000 0.6593
vn -0.9165 0.0000 0.4000
vn -0.2348 0.0000 0.9721
vn 0.0027 0.9945 -0.1043
vn -0.9995 0.0000 0.0305
vn -0.8248 0.0000 0.5654
vn 0.5344 0.0000 -0.8453
vn 0.0150 0.9998 -0.0143
vn 0.0000 0.8782 0.4783
usemtl None
s off
f 16/1/1 23/2/1 20/3/1 18/4/1
f 36/5/2 79/6/2 71/7/2 28/8/2
f 47/9/3 4/10/3 5/11/3 48/12/3
f 6/13/4 7/14/4 5/11/4 4/10/4
f 9/15/1 8/16/1 7/14/1 6/13/1
f 51/17/5 50/18/5 7/14/5 8/16/5
f 6/13/6 49/19/6 52/20/6 9/15/6
f 12/21/1 2/22/1 8/16/1 13/23/1
f 45/24/7 51/17/7 8/16/7 2/22/7
f 36/5/1 28/8/1 29/25/1 39/26/1
f 10/27/6 3/28/6 41/29/6 42/30/6
f 1/31/1 12/21/1 13/23/1 9/15/1
f 27/32/8 26/33/8 12/21/8 1/31/8
f 38/34/6 81/35/6 80/36/6 37/37/6
f 20/3/9 39/26/9 17/38/9 22/39/9
f 39/26/10 29/25/10 15/40/10 17/38/10
f 29/25/11 18/4/11 21/41/11 15/40/11
f 20/3/12 22/39/12 21/41/12 18/4/12
f 17/38/13 15/40/13 21/41/13 22/39/13
f 38/34/1 39/26/1 20/3/1 19/42/1
f 72/43/14 61/44/14 18/4/14 29/25/14
f 19/42/1 20/3/1 23/2/1 24/45/1
f 61/44/15 59/46/15 16/1/15 18/4/15
f 25/47/16 26/33/16 23/2/16 16/1/16
f 2/22/8 12/21/8 26/33/8 25/47/8
f 24/45/16 23/2/16 26/33/16 27/32/16
f 59/46/15 68/48/15 25/47/15 16/1/15
f 27/32/6 70/49/6 67/50/6 24/45/6
f 30/51/17 31/52/17 29/25/17 28/8/17
f 35/53/1 34/54/1 32/55/1 33/56/1
f 75/57/18 76/58/18 33/56/18 32/55/18
f 73/59/19 77/60/19 34/54/19 30/51/19
f 31/52/1 30/51/1 34/54/1 35/53/1
f 11/61/1 3/28/1 37/37/1 36/5/1
f 3/28/1 10/27/1 38/34/1 37/37/1
f 10/27/1 14/62/1 39/26/1 38/34/1
f 14/62/1 11/61/1 36/5/1 39/26/1
f 41/29/20 40/63/20 43/64/20 42/30/20
f 14/62/21 10/27/21 42/30/21 43/64/21
f 3/28/22 11/61/22 40/63/22 41/29/22
f 11/61/23 14/62/23 43/64/23 40/63/23
f 77/60/19 75/57/19 32/55/19 34/54/19
f 33/56/24 76/58/24 78/65/24 35/53/24
f 74/66/25 72/43/25 29/25/25 31/52/25
f 28/8/26 71/7/26 73/59/26 30/51/26
f 24/45/6 67/50/6 62/67/6 19/42/6
f 19/42/6 62/67/6 81/35/6 38/34/6
f 37/37/2 80/36/2 79/6/2 36/5/2
f 9/15/6 52/20/6 44/68/6 1/31/6
f 50/18/27 48/12/27 5/11/27 7/14/27
f 4/10/28 47/9/28 49/19/28 6/13/28
f 68/48/15 45/24/15 2/22/15 25/47/15
f 1/31/6 44/68/6 70/49/6 27/32/6
f 59/46/29 61/44/29 63/69/29 66/70/29
f 49/19/30 47/9/30 48/12/30 50/18/30
f 52/20/29 49/19/29 50/18/29 51/17/29
f 55/71/29 56/72/29 51/17/29 45/24/29
f 79/6/29 82/73/29 72/43/29 71/7/29
f 53/74/6 85/75/6 84/76/6 46/77/6
f 44/68/29 52/20/29 56/72/29 55/71/29
f 70/49/31 44/68/31 55/71/31 69/78/31
f 63/69/32 65/79/32 60/80/32 82/73/32
f 82/73/33 60/80/33 58/81/33 72/43/33
f 72/43/34 58/81/34 64/82/34 61/44/34
f 63/69/35 61/44/35 64/82/35 65/79/35
f 60/80/36 65/79/36 64/82/36 58/81/36
f 81/35/29 62/67/29 63/69/29 82/73/29
f 62/67/29 67/50/29 66/70/29 63/69/29
f 68/48/37 59/46/37 66/70/37 69/78/37
f 45/24/31 68/48/31 69/78/31 55/71/31
f 67/50/37 70/49/37 69/78/37 66/70/37
f 73/59/38 71/7/38 72/43/38 74/66/38
f 78/65/29 76/58/29 75/57/29 77/60/29
f 74/66/29 78/65/29 77/60/29 73/59/29
f 54/83/29 79/6/29 80/36/29 46/77/29
f 46/77/29 80/36/29 81/35/29 53/74/29
f 53/74/29 81/35/29 82/73/29 57/84/29
f 57/84/29 82/73/29 79/6/29 54/83/29
f 84/76/39 85/75/39 86/85/39 83/86/39
f 57/84/40 86/85/40 85/75/40 53/74/40
f 46/77/41 84/76/41 83/86/41 54/83/41
f 54/83/42 83/86/42 86/85/42 57/84/42
f 35/53/43 78/65/43 74/66/43 31/52/43
