# Blender v2.82 (sub 7) OBJ File: 'Plane.blend'
# www.blender.org
mtllib fighterBomberHitbox02.mtl
o Cube
v -0.018358 -0.058245 0.967764
v -0.018358 -0.009127 0.967764
v 0.018358 -0.058245 0.967764
v 0.018358 -0.009127 0.967764
v 0.108774 -0.084157 0.280697
v 0.108774 0.247570 0.352340
v 0.045844 0.064064 -0.895880
v 0.045844 0.081521 -0.895880
v 0.181940 -0.007689 0.169404
v 0.181940 -0.060928 0.159791
v 0.071982 0.068211 -0.693055
v 0.071947 0.100774 -0.693323
v 0.022703 0.126814 -0.817405
v 0.041382 -0.039381 -0.930502
v 0.129009 -0.047341 -0.249549
v 0.129009 -0.004960 -0.248031
v 0.380876 0.027671 -0.966170
v 0.380876 0.018216 -0.966170
v 0.366376 0.029247 -0.874326
v 0.366366 0.038293 -0.874401
v 0.188073 -0.081391 0.205872
v 0.025682 0.165984 -0.491020
v 0.188073 0.241494 0.264171
v 0.105960 -0.059767 -0.429389
v 0.770736 -0.027139 -0.151726
v 0.839592 -0.009346 -0.335407
v 0.770736 -0.009826 -0.142113
v 0.839592 -0.020391 -0.336925
v 0.018358 -0.058245 0.967764
v 0.018358 -0.009127 0.967764
v -0.018358 -0.058245 0.967764
v -0.018358 -0.009127 0.967764
v -0.108774 -0.084157 0.280697
v -0.108774 0.247570 0.352340
v -0.045844 0.064064 -0.895880
v -0.045844 0.081521 -0.895880
v -0.181940 -0.007689 0.169404
v -0.181940 -0.060928 0.159791
v -0.071982 0.068211 -0.693055
v -0.071947 0.100774 -0.693323
v -0.022703 0.126814 -0.817405
v -0.041382 -0.039381 -0.930502
v -0.129009 -0.047341 -0.249549
v -0.129009 -0.004960 -0.248031
v -0.380876 0.027671 -0.966170
v -0.380876 0.018216 -0.966170
v -0.366376 0.029247 -0.874326
v -0.366366 0.038293 -0.874401
v -0.188073 -0.081391 0.205872
v 0.000000 -0.009127 0.967764
v -0.025682 0.165984 -0.491020
v 0.000000 -0.058245 0.967764
v -0.188073 0.241494 0.264171
v -0.105960 -0.059767 -0.429389
v -0.770736 -0.027139 -0.151726
v -0.839592 -0.009346 -0.335407
v -0.770736 -0.009826 -0.142113
v -0.839592 -0.020391 -0.336925
v 0.041382 0.113241 -0.930502
v 0.105960 0.173380 -0.429389
v -0.041382 0.113241 -0.930502
v -0.105960 0.173380 -0.429389
v 0.022703 0.481829 -0.912013
v 0.025682 0.480511 -0.789567
v -0.022703 0.481829 -0.912013
v -0.025682 0.480511 -0.789567
vt 0.582143 0.500000
vt 0.606907 0.500000
vt 0.566935 0.500000
vt 0.375000 0.500000
vt 0.625000 0.750000
vt 0.375000 0.750000
vt 0.625000 0.875000
vt 0.375000 1.000000
vt 0.375000 0.875000
vt 0.625000 0.500000
vt 0.625000 0.500000
vt 0.625000 0.500000
vt 0.750000 0.750000
vt 0.625000 0.500000
vt 0.625000 0.500000
vt 0.625000 0.500000
vt 0.375000 0.500000
vt 0.375000 0.500000
vt 0.375000 0.500000
vt 0.375000 0.500000
vt 0.375000 0.500000
vt 0.375000 0.500000
vt 0.422781 0.500000
vt 0.422781 0.500000
vt 0.625000 0.500000
vt 0.375000 0.500000
vt 0.625000 0.500000
vt 0.375000 0.500000
vt 0.250000 0.750000
vt 0.422781 0.500000
vt 0.375000 0.500000
vt 0.548963 0.500000
vt 0.546196 0.500000
vt 0.606907 0.500000
vt 0.625000 0.500000
vt 0.590042 0.500000
vt 0.548963 0.500000
vt 0.375000 0.500000
vt 0.422781 0.500000
vt 0.625000 0.500000
vt 0.625000 0.500000
vt 0.582143 0.500000
vt 0.606907 0.500000
vt 0.606907 0.500000
vt 0.625000 0.750000
vt 0.625000 0.500000
vt 0.375000 1.000000
vt 0.625000 0.500000
vt 0.625000 0.500000
vt 0.375000 0.500000
vt 0.375000 0.500000
vt 0.422781 0.500000
vt 0.422781 0.500000
vt 0.375000 0.500000
vt 0.422781 0.500000
vt 0.548963 0.500000
vt 0.546196 0.500000
vt 0.566935 0.500000
vt 0.590042 0.500000
vt 0.375000 0.500000
vt 0.422781 0.500000
vt 0.375000 0.500000
vt 0.375000 0.750000
vt 0.625000 0.500000
vt 0.625000 0.500000
vt 0.625000 1.000000
vt 0.625000 1.000000
vt 0.548963 0.500000
vn 0.1392 0.9860 -0.0921
vn 0.9915 0.0000 0.1305
vn 0.0000 0.0000 1.0000
vn 0.0000 0.9929 -0.1192
vn 0.0000 0.9229 0.3850
vn -0.9997 -0.0065 -0.0244
vn 0.0000 -0.9993 -0.0369
vn 0.9917 0.0105 -0.1278
vn 0.4614 -0.1576 0.8731
vn 0.7308 -0.1441 0.6672
vn 0.0000 0.0000 -1.0000
vn 0.0000 -0.9993 0.0377
vn -0.1233 0.0355 -0.9917
vn 0.9918 0.0000 -0.1278
vn 0.9878 0.0023 0.1559
vn -0.2053 0.0000 -0.9787
vn 0.5250 0.0076 0.8511
vn -0.1102 -0.9933 0.0345
vn 0.9918 0.0234 -0.1256
vn 0.9263 -0.1829 0.3295
vn 0.9923 0.0221 -0.1223
vn 0.0000 0.9952 -0.0977
vn 0.9920 -0.0000 -0.1261
vn 0.0066 1.0000 0.0057
vn 0.0000 -0.9994 -0.0340
vn 0.0372 -0.9986 -0.0380
vn 0.0000 0.9976 -0.0687
vn -0.1402 0.9838 -0.1116
vn -0.9906 -0.0288 0.1335
vn 0.9999 -0.0078 -0.0082
vn -0.9917 0.0091 -0.1279
vn -0.4614 -0.1576 0.8731
vn -0.7308 -0.1441 0.6672
vn 0.1233 0.0355 -0.9917
vn -0.9918 0.0000 -0.1278
vn -0.9878 0.0023 0.1559
vn 0.2053 0.0000 -0.9787
vn -0.5250 0.0076 0.8511
vn 0.1102 -0.9933 0.0345
vn -0.9918 0.0234 -0.1256
vn -0.9368 -0.0476 0.3466
vn -0.9923 0.0221 -0.1223
vn -0.9918 0.0046 -0.1274
vn -0.0066 1.0000 0.0057
vn -0.0372 -0.9986 -0.0380
vn 0.0000 0.9999 0.0108
vn 0.0000 0.6884 0.7253
vn 0.0000 -0.2575 -0.9663
vn 0.0000 -0.9992 -0.0406
vn 0.1402 0.9838 -0.1116
vn 0.9906 -0.0288 0.1335
vn -0.9999 -0.0078 -0.0082
vn 0.9917 0.0091 -0.1279
vn 0.4403 -0.4358 0.7850
vn 0.6829 -0.1298 0.7189
vn -0.1201 0.1352 -0.9835
vn 0.9878 0.0000 0.1559
vn 0.5250 0.0076 0.8510
vn -0.1141 -0.9883 0.1007
vn 0.9929 0.0080 -0.1183
vn 0.9368 -0.0476 0.3466
vn 0.9918 0.0046 -0.1274
vn 0.0068 1.0000 0.0049
vn 0.0350 -0.9991 -0.0234
vn -0.1392 0.9860 -0.0921
vn -0.9915 0.0000 0.1305
vn 0.9997 -0.0065 -0.0244
vn -0.9917 0.0105 -0.1278
vn -0.4403 -0.4358 0.7850
vn -0.6829 -0.1298 0.7189
vn 0.1201 0.1352 -0.9835
vn -0.9878 0.0000 0.1559
vn -0.5250 0.0076 0.8510
vn 0.1141 -0.9883 0.1007
vn -0.9929 0.0080 -0.1183
vn -0.9263 -0.1829 0.3295
vn -0.9920 -0.0000 -0.1261
vn -0.0068 1.0000 0.0049
vn -0.0350 -0.9991 -0.0234
usemtl None
s off
f 8/1/1 20/2/1 17/3/1
f 5/4/2 4/5/2 3/6/2
f 50/7/3 1/8/3 52/9/3
f 13/10/4 61/11/4 41/12/4
f 50/13/5 4/5/5 6/14/5
f 41/12/6 66/15/6 65/16/6
f 49/17/7 5/4/7 33/18/7
f 15/19/8 21/20/8 24/21/8
f 10/22/9 27/23/9 9/24/9
f 5/4/10 23/25/10 6/14/10
f 42/26/11 59/27/11 14/28/11
f 5/4/12 52/29/12 33/18/12
f 16/30/13 28/31/13 15/19/13
f 7/32/14 59/27/14 8/1/14
f 11/33/14 14/28/14 7/32/14
f 12/34/14 59/27/14 60/35/14
f 11/33/14 60/35/14 24/21/14
f 19/36/15 17/3/15 20/2/15
f 7/32/16 17/3/16 18/37/16
f 11/33/17 20/2/17 12/34/17
f 7/32/18 19/36/18 11/33/18
f 16/30/19 23/25/19 9/24/19
f 25/38/20 26/39/20 27/23/20
f 9/24/21 21/20/21 10/22/21
f 23/25/22 62/40/22 53/41/22
f 16/30/23 24/21/23 60/35/23
f 27/23/24 16/30/24 9/24/24
f 49/17/25 24/21/25 21/20/25
f 15/19/26 25/38/26 10/22/26
f 53/41/27 6/14/27 23/25/27
f 4/5/3 52/9/3 3/6/3
f 36/42/28 48/43/28 40/44/28
f 33/18/29 32/45/29 34/46/29
f 29/47/3 50/7/3 52/9/3
f 13/10/30 64/48/30 22/49/30
f 43/50/31 49/17/31 38/51/31
f 57/52/32 38/51/32 37/53/32
f 53/41/33 33/18/33 34/46/33
f 58/54/34 44/55/34 43/50/34
f 61/11/35 35/56/35 36/42/35
f 42/26/35 39/57/35 35/56/35
f 40/44/35 61/11/35 36/42/35
f 39/57/35 62/40/35 40/44/35
f 45/58/36 47/59/36 48/43/36
f 35/56/37 45/58/37 36/42/37
f 48/43/38 39/57/38 40/44/38
f 47/59/39 35/56/39 39/57/39
f 53/41/40 44/55/40 37/53/40
f 55/60/41 56/61/41 58/54/41
f 49/17/42 37/53/42 38/51/42
f 44/55/43 54/62/43 43/50/43
f 44/55/44 57/52/44 37/53/44
f 55/60/45 43/50/45 38/51/45
f 52/9/3 32/45/3 31/63/3
f 22/49/4 62/40/4 60/35/4
f 13/10/4 60/35/4 59/27/4
f 65/16/46 64/48/46 63/64/46
f 41/12/4 62/40/4 51/65/4
f 22/49/47 66/15/47 51/65/47
f 41/12/48 63/64/48 13/10/48
f 42/26/49 24/21/49 54/62/49
f 8/1/50 12/34/50 20/2/50
f 5/4/51 6/14/51 4/5/51
f 50/7/3 2/66/3 1/8/3
f 13/10/4 59/27/4 61/11/4
f 6/14/5 34/46/5 50/13/5
f 34/46/5 32/45/5 50/13/5
f 41/12/52 51/65/52 66/15/52
f 49/17/7 21/20/7 5/4/7
f 15/19/53 10/22/53 21/20/53
f 10/22/54 25/38/54 27/23/54
f 5/4/55 21/20/55 23/25/55
f 42/26/11 61/11/11 59/27/11
f 3/6/12 52/29/12 5/4/12
f 52/29/12 31/63/12 33/18/12
f 16/30/56 26/39/56 28/31/56
f 7/32/14 14/28/14 59/27/14
f 11/33/14 24/21/14 14/28/14
f 12/34/14 8/1/14 59/27/14
f 11/33/14 12/34/14 60/35/14
f 19/36/57 18/37/57 17/3/57
f 7/32/16 8/1/16 17/3/16
f 11/33/58 19/36/58 20/2/58
f 7/32/59 18/37/59 19/36/59
f 16/30/60 60/35/60 23/25/60
f 25/38/61 28/31/61 26/39/61
f 9/24/21 23/25/21 21/20/21
f 23/25/22 60/35/22 62/40/22
f 16/30/62 15/19/62 24/21/62
f 27/23/63 26/39/63 16/30/63
f 49/17/25 54/62/25 24/21/25
f 15/19/64 28/31/64 25/38/64
f 53/41/27 34/46/27 6/14/27
f 4/5/3 50/7/3 52/9/3
f 36/42/65 45/58/65 48/43/65
f 33/18/66 31/63/66 32/45/66
f 29/47/3 30/67/3 50/7/3
f 13/10/67 63/64/67 64/48/67
f 43/50/68 54/62/68 49/17/68
f 57/52/69 55/60/69 38/51/69
f 53/41/70 49/17/70 33/18/70
f 58/54/71 56/61/71 44/55/71
f 61/11/35 42/26/35 35/56/35
f 42/26/35 54/62/35 39/57/35
f 40/44/35 62/40/35 61/11/35
f 39/57/35 54/62/35 62/40/35
f 45/58/72 46/68/72 47/59/72
f 35/56/37 46/68/37 45/58/37
f 48/43/73 47/59/73 39/57/73
f 47/59/74 46/68/74 35/56/74
f 53/41/75 62/40/75 44/55/75
f 55/60/76 57/52/76 56/61/76
f 49/17/42 53/41/42 37/53/42
f 44/55/77 62/40/77 54/62/77
f 44/55/78 56/61/78 57/52/78
f 55/60/79 58/54/79 43/50/79
f 52/9/3 50/7/3 32/45/3
f 22/49/4 51/65/4 62/40/4
f 13/10/4 22/49/4 60/35/4
f 65/16/46 66/15/46 64/48/46
f 41/12/4 61/11/4 62/40/4
f 22/49/47 64/48/47 66/15/47
f 41/12/48 65/16/48 63/64/48
f 42/26/49 14/28/49 24/21/49
