# Blender v2.80 (sub 75) OBJ File: 'ground.blend'
# www.blender.org
mtllib ground.mtl
o Cube
v -25.654884 0.000000 86.103188
v -40.934654 0.000000 87.211372
v -56.293514 0.000000 88.207153
v -72.268211 0.000000 88.327812
v 88.327812 0.000000 -88.327812
v -88.327812 1.138573 -88.327812
v 88.327812 0.000000 88.327812
v -88.327812 0.000000 88.327812
v -9.918355 0.000000 85.644081
v 6.464321 0.000000 86.103180
v 23.303759 0.000000 87.211372
v 40.064102 0.000000 88.207153
v 56.208611 0.000000 88.327812
v 72.268211 0.000000 88.327812
v 72.268211 0.000000 -88.327812
v 56.208611 0.000000 -88.327812
v 40.149010 0.020961 -88.327812
v 24.089407 1.170293 -88.327812
v 8.029802 3.286114 -88.327812
v -8.033107 5.365389 -88.332512
v -24.089403 6.622847 -88.327812
v -40.149006 6.611015 -88.327812
v -56.208611 5.335013 -88.327812
v -72.268211 3.246513 -88.327812
v -88.327812 3.590069 -72.268211
v -88.327812 6.260913 -56.208611
v -88.412720 8.176801 -40.269665
v -89.113457 8.547147 -25.205849
v -89.893288 7.558693 -10.254429
v -90.216362 5.561474 5.346067
v -89.893295 3.011975 21.864775
v -89.113457 0.750445 39.032562
v -88.412720 0.000000 56.087955
v -88.327812 0.000000 72.268211
v 88.327812 0.000000 72.268211
v 88.327812 0.000000 56.208611
v 88.327812 0.000000 40.149010
v 88.327812 0.000000 24.089407
v 88.324509 0.000000 8.025104
v 88.327812 0.000000 -8.029800
v 88.327812 0.000000 -24.089403
v 88.327812 0.000000 -40.149006
v 88.327812 0.000000 -56.208611
v 88.327812 0.000000 -72.268211
v -72.546516 0.000000 71.872726
v -74.156761 0.345114 53.524879
v -76.275124 3.059157 34.454979
v -77.977257 6.803410 15.976554
v -78.622231 10.033883 -0.999596
v -77.977257 12.140674 -16.142654
v -76.275124 13.066125 -29.783436
v -74.156761 12.725142 -42.832741
v -72.546516 10.786572 -56.604092
v -72.268211 7.110309 -72.268211
v -58.097164 0.000000 69.584480
v -61.312206 1.792030 48.956131
v -64.747513 6.506357 28.014782
v -67.340485 11.350264 8.270423
v -68.304825 14.625022 -9.159554
v -67.340485 16.198919 -23.848785
v -64.747513 16.563177 -36.223633
v -61.312206 15.903530 -47.401485
v -58.097164 13.938387 -58.892342
v -56.293514 10.229569 -72.388870
v -44.155922 0.095842 66.574181
v -48.687912 3.826033 44.074383
v -53.263912 10.340161 21.512043
v -56.682938 15.907144 0.593826
v -57.960644 18.715528 -17.281467
v -56.682938 19.310165 -31.525381
v -53.263912 18.813198 -42.726372
v -48.687912 17.585083 -52.283234
v -44.155922 15.360769 -61.902641
v -40.934654 11.717762 -73.384651
v -29.798450 0.329534 64.155357
v -35.221283 5.458482 40.389626
v -40.623333 13.399276 16.653429
v -44.714783 19.567646 -5.220343
v -46.286194 21.823786 -23.513000
v -44.714783 21.328981 -37.339550
v -40.623333 19.866627 -47.584984
v -35.221283 17.896315 -55.967991
v -29.798450 15.199145 -64.321465
v -25.654884 11.473680 -74.492844
v -14.383823 0.260480 63.238815
v -20.126015 5.576078 39.019257
v -25.841436 14.185465 14.837740
v -30.226589 20.988607 -7.453396
v -31.977970 23.229578 -26.001806
v -30.226585 21.973654 -39.572601
v -25.841436 19.617226 -49.400673
v -20.126015 16.832268 -57.338364
v -14.383821 13.584615 -65.238007
v -9.918353 9.760536 -74.951942
v 2.320756 0.002283 64.155357
v -3.102077 3.728109 40.389626
v -8.504126 11.550490 16.653429
v -12.595577 18.418087 -5.220343
v -14.166983 21.130873 -23.512997
v -12.595577 20.072386 -37.339550
v -8.504126 17.350552 -47.584984
v -3.102077 14.074100 -55.967991
v 2.320757 10.567695 -64.321465
v 6.464324 6.933873 -74.492836
v 20.082493 0.000000 66.574181
v 15.550500 1.032424 44.074379
v 12.841681 2.847044 22.899141
v 9.112863 9.107782 1.750786
v 6.307012 14.851309 -17.259743
v 7.555477 14.668111 -31.525381
v 10.974500 12.481434 -42.726372
v 15.550504 9.540832 -52.283234
v 20.082493 6.486935 -61.902641
v 23.303761 3.617136 -73.384651
v 38.260452 0.000000 69.584480
v 35.045410 0.000000 48.956131
v 33.954597 -3.001403 29.756474
v 34.327965 -5.193136 12.215769
v 30.939188 1.558957 -7.015291
v 29.292744 6.718071 -23.644035
v 31.610104 6.110074 -36.223633
v 35.045410 4.298494 -47.401485
v 38.260452 2.428757 -58.892342
v 40.064106 0.876869 -72.388870
v 55.930309 0.000000 71.872726
v 54.320057 0.000000 53.524879
v 52.252487 -0.091852 34.492710
v 52.211826 -2.953106 17.248569
v 51.595467 -2.253962 0.293677
v 50.733528 0.880057 -15.968847
v 52.201698 1.098604 -29.783436
v 54.320057 0.573965 -42.832741
v 55.930309 0.111530 -56.604092
v 56.208611 0.000000 -72.268211
v 72.268211 0.000000 72.268211
v 72.183304 0.000000 56.087955
v 71.482567 0.000000 39.032570
v 70.702736 0.000000 21.864780
v 70.379662 0.000000 5.346069
v 70.702728 0.000000 -10.254429
v 71.482567 0.000000 -25.205845
v 72.183304 0.000000 -40.269661
v 72.268211 0.000000 -56.208611
v 72.268211 0.000000 -72.268211
vt 0.181818 0.909091
vt 0.272727 0.909091
vt 0.272727 1.000000
vt 0.181818 1.000000
vt 0.000000 0.909091
vt 0.090909 0.909091
vt 0.090909 1.000000
vt 0.000000 1.000000
vt 0.909091 0.909091
vt 1.000000 0.909091
vt 1.000000 1.000000
vt 0.909091 1.000000
vt 0.363636 0.909091
vt 0.363636 1.000000
vt 0.454545 0.909091
vt 0.454545 1.000000
vt 0.545454 0.909091
vt 0.545455 1.000000
vt 0.636364 0.909091
vt 0.636364 1.000000
vt 0.727273 0.909091
vt 0.727273 1.000000
vt 0.818182 0.909091
vt 0.818182 1.000000
vt 0.818182 0.000000
vt 0.909091 0.000000
vt 0.909091 0.090909
vt 0.818182 0.090909
vt 0.909091 0.181818
vt 0.818182 0.181818
vt 0.909091 0.272727
vt 0.818182 0.272727
vt 0.909091 0.363636
vt 0.818182 0.363636
vt 0.909091 0.454545
vt 0.818182 0.454545
vt 0.909091 0.545455
vt 0.818182 0.545455
vt 0.909091 0.636364
vt 0.818182 0.636364
vt 0.909091 0.727273
vt 0.818182 0.727273
vt 0.909091 0.818182
vt 0.818182 0.818182
vt 0.727273 0.000000
vt 0.727273 0.090909
vt 0.727273 0.181818
vt 0.727273 0.272727
vt 0.727273 0.363636
vt 0.727273 0.454545
vt 0.727273 0.545455
vt 0.727273 0.636364
vt 0.727273 0.727273
vt 0.727273 0.818182
vt 0.636364 0.000000
vt 0.636364 0.090909
vt 0.636364 0.181818
vt 0.636364 0.272727
vt 0.636364 0.363636
vt 0.636364 0.454545
vt 0.636364 0.545455
vt 0.636364 0.636364
vt 0.636364 0.727273
vt 0.636364 0.818182
vt 0.545455 0.000000
vt 0.545455 0.090909
vt 0.545455 0.181818
vt 0.545455 0.272727
vt 0.545455 0.363636
vt 0.545455 0.454545
vt 0.545455 0.545455
vt 0.545455 0.636364
vt 0.545455 0.727273
vt 0.545455 0.818182
vt 0.454545 0.000000
vt 0.454545 0.090909
vt 0.454545 0.181818
vt 0.454545 0.272727
vt 0.454545 0.363636
vt 0.454545 0.454545
vt 0.454545 0.545455
vt 0.454545 0.636364
vt 0.454545 0.727273
vt 0.454545 0.818182
vt 0.363636 0.000000
vt 0.363636 0.090909
vt 0.363636 0.181818
vt 0.363636 0.272727
vt 0.363636 0.363636
vt 0.363636 0.454545
vt 0.363636 0.545455
vt 0.363636 0.636364
vt 0.363636 0.727273
vt 0.363636 0.818182
vt 0.272727 0.000000
vt 0.272727 0.090909
vt 0.272727 0.181818
vt 0.272727 0.272727
vt 0.272727 0.363636
vt 0.272727 0.454545
vt 0.272727 0.545455
vt 0.272727 0.636364
vt 0.272727 0.727273
vt 0.272727 0.818182
vt 0.090909 0.000000
vt 0.181818 0.000000
vt 0.181818 0.090909
vt 0.090909 0.090909
vt 0.181818 0.181818
vt 0.090909 0.181818
vt 0.181818 0.272727
vt 0.090909 0.272727
vt 0.181818 0.363636
vt 0.090909 0.363636
vt 0.181818 0.454545
vt 0.090909 0.454546
vt 0.181818 0.545455
vt 0.090909 0.545455
vt 0.181818 0.636364
vt 0.090909 0.636364
vt 0.181818 0.727273
vt 0.090909 0.727273
vt 0.181818 0.818182
vt 0.090909 0.818182
vt 1.000000 0.000000
vt 1.000000 0.090909
vt 1.000000 0.181818
vt 1.000000 0.272727
vt 1.000000 0.363636
vt 1.000000 0.454545
vt 1.000000 0.545455
vt 1.000000 0.636364
vt 1.000000 0.727273
vt 1.000000 0.818182
vt 0.000000 0.000000
vt 0.000000 0.090909
vt 0.000000 0.181818
vt 0.000000 0.272727
vt 0.000000 0.363636
vt 0.000000 0.454545
vt 0.000000 0.545455
vt 0.000000 0.636364
vt 0.000000 0.727273
vt 0.000000 0.818182
vn -0.0931 0.9465 -0.3091
vn -0.1694 0.9670 -0.1901
vn 0.0000 1.0000 0.0000
vn -0.1559 0.9526 -0.2612
vn -0.0046 0.9449 -0.3273
vn 0.0839 0.9467 -0.3110
vn 0.1479 0.9534 -0.2630
vn 0.1662 0.9674 -0.1913
vn 0.1201 0.9875 -0.1022
vn 0.0280 0.9993 -0.0267
vn -0.0020 1.0000 -0.0024
vn -0.0606 0.9948 -0.0813
vn -0.1446 0.9892 0.0247
vn -0.0626 0.9931 0.0987
vn 0.0474 0.9988 0.0113
vn 0.0476 0.9988 -0.0139
vn 0.0213 0.9997 -0.0143
vn 0.0035 1.0000 -0.0035
vn -0.0583 0.9954 -0.0757
vn -0.1012 0.9844 -0.1440
vn -0.0255 0.9786 0.2043
vn 0.1381 0.9628 0.2322
vn 0.2434 0.9697 0.0206
vn 0.2250 0.9734 -0.0423
vn 0.1716 0.9835 -0.0580
vn 0.0974 0.9940 -0.0497
vn 0.0233 0.9995 0.0198
vn 0.1797 0.9826 -0.0458
vn 0.3777 0.9237 0.0644
vn 0.3982 0.8890 0.2260
vn 0.3653 0.9198 0.1434
vn 0.3296 0.9436 -0.0314
vn 0.3027 0.9478 -0.1003
vn 0.2627 0.9565 -0.1267
vn 0.2038 0.9702 -0.1308
vn 0.0001 1.0000 0.0000
vn 0.0586 0.9942 0.0896
vn 0.2326 0.9587 0.1637
vn 0.3170 0.9217 0.2236
vn 0.2913 0.9398 0.1789
vn 0.2803 0.9598 -0.0143
vn 0.2793 0.9526 -0.1202
vn 0.2727 0.9458 -0.1761
vn 0.2574 0.9449 -0.2023
vn 0.2248 0.9516 -0.2094
vn 0.0076 1.0000 0.0044
vn 0.0496 0.9835 0.1738
vn 0.0956 0.9482 0.3030
vn 0.1104 0.9552 0.2745
vn 0.1136 0.9860 0.1223
vn 0.1210 0.9903 -0.0690
vn 0.1377 0.9725 -0.1879
vn 0.1625 0.9560 -0.2444
vn 0.1802 0.9460 -0.2693
vn 0.1783 0.9442 -0.2769
vn 0.0028 0.9999 0.0128
vn 0.0141 0.9777 0.2095
vn 0.0061 0.9456 0.3252
vn -0.0324 0.9573 0.2874
vn -0.0762 0.9889 0.1276
vn -0.0828 0.9938 -0.0736
vn -0.0414 0.9782 -0.2036
vn 0.0134 0.9624 -0.2713
vn 0.0605 0.9501 -0.3060
vn 0.0866 0.9432 -0.3206
vn -0.0066 0.9999 0.0111
vn -0.0235 0.9809 0.1929
vn -0.0687 0.9480 0.3108
vn -0.1359 0.9491 0.2841
vn -0.2001 0.9680 0.1513
vn -0.2211 0.9751 -0.0190
vn -0.1881 0.9699 -0.1545
vn -0.1300 0.9611 -0.2436
vn -0.0709 0.9514 -0.2998
vn -0.0264 0.9436 -0.3301
vn -0.0380 0.9975 0.0594
vn -0.1073 0.9747 0.1959
vn -0.1931 0.9525 0.2357
vn -0.2672 0.9445 0.1911
vn -0.3143 0.9441 0.0995
vn -0.3267 0.9451 -0.0071
vn -0.3084 0.9449 -0.1097
vn -0.2682 0.9430 -0.1969
vn -0.2145 0.9431 -0.2542
vn -0.0105 0.9999 0.0105
vn -0.0707 0.9924 0.1007
vn -0.1652 0.9706 0.1750
vn -0.2460 0.9539 0.1717
vn -0.3035 0.9457 0.1167
vn -0.3321 0.9426 0.0343
vn -0.3303 0.9422 -0.0570
vn -0.2989 0.9440 -0.1395
vn -0.2427 0.9508 -0.1924
vn -0.0029 1.0000 0.0028
vn -0.0396 0.9902 0.1339
vn -0.1071 0.9578 0.2669
vn -0.1856 0.9450 0.2694
vn -0.2558 0.9499 0.1799
vn -0.2907 0.9555 0.0491
vn -0.2810 0.9566 -0.0770
vn -0.2404 0.9539 -0.1797
vn -0.1871 0.9482 -0.2568
vn -0.1353 0.9428 -0.3047
usemtl Material
s off
f 64/1/1 74/2/1 22/3/1 23/4/1
f 25/5/2 54/6/2 24/7/2 6/8/2
f 144/9/3 44/10/3 5/11/3 15/12/3
f 54/6/4 64/1/4 23/4/4 24/7/4
f 74/2/5 84/13/5 21/14/5 22/3/5
f 84/13/6 94/15/6 20/16/6 21/14/6
f 94/15/7 104/17/7 19/18/7 20/16/7
f 104/17/8 114/19/8 18/20/8 19/18/8
f 114/19/9 124/21/9 17/22/9 18/20/9
f 124/21/10 134/23/10 16/24/10 17/22/10
f 134/23/3 144/9/3 15/12/3 16/24/3
f 13/25/3 14/26/3 135/27/3 125/28/3
f 125/28/3 135/27/3 136/29/3 126/30/3
f 126/30/11 136/29/11 137/31/11 127/32/11
f 127/32/12 137/31/12 138/33/12 128/34/12
f 128/34/13 138/33/13 139/35/13 129/36/13
f 129/36/14 139/35/14 140/37/14 130/38/14
f 130/38/15 140/37/15 141/39/15 131/40/15
f 131/40/16 141/39/16 142/41/16 132/42/16
f 132/42/17 142/41/17 143/43/17 133/44/17
f 133/44/18 143/43/18 144/9/18 134/23/18
f 12/45/3 13/25/3 125/28/3 115/46/3
f 115/46/3 125/28/3 126/30/3 116/47/3
f 116/47/19 126/30/19 127/32/19 117/48/19
f 117/48/20 127/32/20 128/34/20 118/49/20
f 118/49/21 128/34/21 129/36/21 119/50/21
f 119/50/22 129/36/22 130/38/22 120/51/22
f 120/51/23 130/38/23 131/40/23 121/52/23
f 121/52/24 131/40/24 132/42/24 122/53/24
f 122/53/25 132/42/25 133/44/25 123/54/25
f 123/54/26 133/44/26 134/23/26 124/21/26
f 11/55/3 12/45/3 115/46/3 105/56/3
f 105/56/27 115/46/27 116/47/27 106/57/27
f 106/57/28 116/47/28 117/48/28 107/58/28
f 107/58/29 117/48/29 118/49/29 108/59/29
f 108/59/30 118/49/30 119/50/30 109/60/30
f 109/60/31 119/50/31 120/51/31 110/61/31
f 110/61/32 120/51/32 121/52/32 111/62/32
f 111/62/33 121/52/33 122/53/33 112/63/33
f 112/63/34 122/53/34 123/54/34 113/64/34
f 113/64/35 123/54/35 124/21/35 114/19/35
f 10/65/36 11/55/36 105/56/36 95/66/36
f 95/66/37 105/56/37 106/57/37 96/67/37
f 96/67/38 106/57/38 107/58/38 97/68/38
f 97/68/39 107/58/39 108/59/39 98/69/39
f 98/69/40 108/59/40 109/60/40 99/70/40
f 99/70/41 109/60/41 110/61/41 100/71/41
f 100/71/42 110/61/42 111/62/42 101/72/42
f 101/72/43 111/62/43 112/63/43 102/73/43
f 102/73/44 112/63/44 113/64/44 103/74/44
f 103/74/45 113/64/45 114/19/45 104/17/45
f 9/75/46 10/65/46 95/66/46 85/76/46
f 85/76/47 95/66/47 96/67/47 86/77/47
f 86/77/48 96/67/48 97/68/48 87/78/48
f 87/78/49 97/68/49 98/69/49 88/79/49
f 88/79/50 98/69/50 99/70/50 89/80/50
f 89/80/51 99/70/51 100/71/51 90/81/51
f 90/81/52 100/71/52 101/72/52 91/82/52
f 91/82/53 101/72/53 102/73/53 92/83/53
f 92/83/54 102/73/54 103/74/54 93/84/54
f 93/84/55 103/74/55 104/17/55 94/15/55
f 1/85/56 9/75/56 85/76/56 75/86/56
f 75/86/57 85/76/57 86/77/57 76/87/57
f 76/87/58 86/77/58 87/78/58 77/88/58
f 77/88/59 87/78/59 88/79/59 78/89/59
f 78/89/60 88/79/60 89/80/60 79/90/60
f 79/90/61 89/80/61 90/81/61 80/91/61
f 80/91/62 90/81/62 91/82/62 81/92/62
f 81/92/63 91/82/63 92/83/63 82/93/63
f 82/93/64 92/83/64 93/84/64 83/94/64
f 83/94/65 93/84/65 94/15/65 84/13/65
f 2/95/66 1/85/66 75/86/66 65/96/66
f 65/96/67 75/86/67 76/87/67 66/97/67
f 66/97/68 76/87/68 77/88/68 67/98/68
f 67/98/69 77/88/69 78/89/69 68/99/69
f 68/99/70 78/89/70 79/90/70 69/100/70
f 69/100/71 79/90/71 80/91/71 70/101/71
f 70/101/72 80/91/72 81/92/72 71/102/72
f 71/102/73 81/92/73 82/93/73 72/103/73
f 72/103/74 82/93/74 83/94/74 73/104/74
f 73/104/75 83/94/75 84/13/75 74/2/75
f 4/105/3 3/106/3 55/107/3 45/108/3
f 45/108/76 55/107/76 56/109/76 46/110/76
f 46/110/77 56/109/77 57/111/77 47/112/77
f 47/112/78 57/111/78 58/113/78 48/114/78
f 48/114/79 58/113/79 59/115/79 49/116/79
f 49/116/80 59/115/80 60/117/80 50/118/80
f 50/118/81 60/117/81 61/119/81 51/120/81
f 51/120/82 61/119/82 62/121/82 52/122/82
f 52/122/83 62/121/83 63/123/83 53/124/83
f 53/124/84 63/123/84 64/1/84 54/6/84
f 14/26/3 7/125/3 35/126/3 135/27/3
f 135/27/3 35/126/3 36/127/3 136/29/3
f 136/29/3 36/127/3 37/128/3 137/31/3
f 137/31/3 37/128/3 38/129/3 138/33/3
f 138/33/3 38/129/3 39/130/3 139/35/3
f 139/35/3 39/130/3 40/131/3 140/37/3
f 140/37/3 40/131/3 41/132/3 141/39/3
f 141/39/3 41/132/3 42/133/3 142/41/3
f 142/41/3 42/133/3 43/134/3 143/43/3
f 143/43/3 43/134/3 44/10/3 144/9/3
f 8/135/3 4/105/3 45/108/3 34/136/3
f 34/136/85 45/108/85 46/110/85 33/137/85
f 33/137/86 46/110/86 47/112/86 32/138/86
f 32/138/87 47/112/87 48/114/87 31/139/87
f 31/139/88 48/114/88 49/116/88 30/140/88
f 30/140/89 49/116/89 50/118/89 29/141/89
f 29/141/90 50/118/90 51/120/90 28/142/90
f 28/142/91 51/120/91 52/122/91 27/143/91
f 27/143/92 52/122/92 53/124/92 26/144/92
f 26/144/93 53/124/93 54/6/93 25/5/93
f 3/106/94 2/95/94 65/96/94 55/107/94
f 55/107/95 65/96/95 66/97/95 56/109/95
f 56/109/96 66/97/96 67/98/96 57/111/96
f 57/111/97 67/98/97 68/99/97 58/113/97
f 58/113/98 68/99/98 69/100/98 59/115/98
f 59/115/99 69/100/99 70/101/99 60/117/99
f 60/117/100 70/101/100 71/102/100 61/119/100
f 61/119/101 71/102/101 72/103/101 62/121/101
f 62/121/102 72/103/102 73/104/102 63/123/102
f 63/123/103 73/104/103 74/2/103 64/1/103
