# Blender v2.81 (sub 16) OBJ File: 'Sraiktasparnis.blend'
# www.blender.org
mtllib helicopterHitbox02.mtl
o Cube
v 0.076340 -0.275394 1.588455
v 0.076340 -0.073824 1.588455
v 0.216027 -0.303332 0.842104
v 0.216027 0.240472 0.842104
v 0.216027 -0.303332 -0.159473
v 0.216027 0.240472 -0.159473
v 0.637896 -0.030087 0.130173
v 0.637896 -0.105004 0.130173
v 0.124481 -0.241123 -0.428662
v 0.124481 0.064282 -0.428662
v 0.637896 -0.030087 0.511116
v 0.637896 -0.105004 0.511116
v 0.124481 -0.147012 -1.826932
v 0.041407 0.390335 -2.314092
v 0.562979 -0.050181 0.147447
v 0.562979 -0.084910 0.147447
v 0.054327 -0.132865 -2.140177
v 0.027348 0.383592 -2.480283
v 0.562979 -0.050181 0.412625
v 0.039221 0.406407 -2.322669
v 0.562979 -0.084910 0.412625
v 0.024289 0.405833 -2.506436
v 0.562979 -0.030087 0.511116
v 0.562979 -0.030087 0.130173
v 0.562979 -0.105004 0.130173
v 0.562979 -0.105004 0.511116
v 0.347129 -0.000774 0.099394
v 0.298347 -0.035503 0.099394
v 0.347129 -0.000774 0.412625
v 0.298347 -0.035503 0.412625
v 0.351723 -0.010740 0.412625
v 0.352991 -0.045705 0.399963
v 0.351723 -0.010740 0.109086
v 0.352991 -0.045705 0.149722
v 0.380574 -0.050855 0.399963
v 0.380574 -0.050855 0.154731
v 0.381842 -0.016363 0.412625
v 0.381842 -0.016363 0.114555
v 0.351723 -0.045468 0.412625
v 0.351723 -0.045468 0.109086
v 0.381842 -0.051091 0.412625
v 0.381842 -0.051091 0.114555
v 0.352991 -0.151911 0.399963
v 0.352991 -0.151911 0.152226
v 0.380574 -0.151911 0.399963
v 0.380574 -0.151911 0.152226
v 0.306484 -0.151911 0.599943
v 0.306484 -0.151911 0.026695
v 0.427081 -0.151911 0.599943
v 0.427081 -0.151911 0.026695
v 0.306484 -0.280278 0.599943
v 0.306484 -0.280278 0.026695
v 0.427081 -0.280278 0.599943
v 0.427081 -0.280278 0.026695
v 0.334898 -0.182156 0.671084
v 0.398667 -0.182156 0.671084
v 0.334898 -0.250033 0.671084
v 0.398667 -0.250033 0.671084
v 0.153780 -0.000774 0.099394
v 0.153780 -0.035503 0.099394
v 0.153780 -0.000774 0.412625
v 0.153780 -0.035503 0.412625
v 0.347129 0.199832 0.099394
v 0.347129 0.199832 0.412625
v 0.153780 0.199832 0.099394
v 0.153780 0.199832 0.412625
v 0.254542 -0.000774 -0.368869
v 0.153780 -0.000774 -0.368869
v 0.274601 0.144099 -0.267423
v 0.153780 0.144099 -0.267423
v -0.076340 -0.275394 1.588455
v -0.076340 -0.073824 1.588455
v -0.216027 -0.303332 0.842104
v -0.216027 0.240472 0.842104
v -0.216027 -0.303332 -0.159473
v -0.216027 0.240472 -0.159473
v -0.637896 -0.030087 0.130173
v -0.637896 -0.105004 0.130173
v -0.124481 -0.241123 -0.428662
v -0.124481 0.064282 -0.428662
v -0.637896 -0.030087 0.511116
v -0.637896 -0.105004 0.511116
v -0.124481 -0.147012 -1.826932
v -0.124481 0.022376 -1.826932
v -0.562979 -0.050181 0.147447
v -0.562979 -0.084910 0.147447
v -0.054327 -0.132865 -2.140177
v -0.054327 0.008230 -2.233141
v -0.562979 -0.050181 0.412625
v -0.054327 0.420439 -2.125642
v -0.562979 -0.084910 0.412625
v -0.021235 0.420439 -2.531850
v 0.000000 -0.303332 0.842104
v 0.000000 0.240472 0.842104
v 0.000000 -0.275394 1.588455
v 0.000000 -0.073824 1.588455
v 0.000000 -0.303332 -0.159473
v 0.000000 0.240472 -0.159473
v 0.000000 -0.241123 -0.428662
v 0.000000 0.064282 -0.428662
v 0.000000 -0.147012 -1.826932
v 0.000000 0.022376 -1.826932
v 0.000000 -0.132865 -2.140177
v 0.000000 0.008230 -2.233141
v 0.000000 0.420439 -2.125642
v 0.000000 0.420439 -2.531850
v -0.562979 -0.030087 0.511116
v -0.562979 -0.030087 0.130173
v -0.562979 -0.105004 0.130173
v -0.562979 -0.105004 0.511116
v -0.347129 -0.000774 0.099394
v -0.298347 -0.035503 0.099394
v -0.347129 -0.000774 0.412625
v -0.298347 -0.035503 0.412625
v -0.351723 -0.010740 0.412625
v -0.352991 -0.045705 0.399963
v -0.351723 -0.010740 0.109086
v -0.352991 -0.045705 0.149722
v -0.380574 -0.050855 0.399963
v -0.380574 -0.050855 0.154731
v -0.381842 -0.016363 0.412625
v -0.381842 -0.016363 0.114555
v -0.351723 -0.045468 0.412625
v -0.351723 -0.045468 0.109086
v -0.381842 -0.051091 0.412625
v -0.381842 -0.051091 0.114555
v -0.352991 -0.151911 0.399963
v -0.352991 -0.151911 0.152226
v -0.380574 -0.151911 0.399963
v -0.380574 -0.151911 0.152226
v -0.306484 -0.151911 0.599943
v -0.306484 -0.151911 0.026695
v -0.427081 -0.151911 0.599943
v -0.427081 -0.151911 0.026695
v -0.306484 -0.280278 0.599943
v -0.306484 -0.280278 0.026695
v -0.427081 -0.280278 0.599943
v -0.427081 -0.280278 0.026695
v -0.334898 -0.182156 0.671084
v -0.398667 -0.182156 0.671084
v -0.334898 -0.250033 0.671084
v -0.398667 -0.250033 0.671084
v -0.153780 -0.000774 0.099394
v -0.153780 -0.035503 0.099394
v -0.153780 -0.000774 0.412625
v -0.153780 -0.035503 0.412625
v -0.347129 0.199832 0.099394
v -0.347129 0.199832 0.412625
v -0.153780 0.199832 0.099394
v -0.153780 0.199832 0.412625
v -0.254542 -0.000774 -0.368869
v -0.153780 -0.000774 -0.368869
v -0.274601 0.144099 -0.267423
v -0.153780 0.144099 -0.267423
v -0.000000 0.277097 -1.801870
v -0.000000 0.296850 -1.801870
v 0.427815 0.277097 -1.759734
v 0.427815 0.296850 -1.759734
v 0.839189 0.277097 -1.634945
v 0.839189 0.296850 -1.634946
v 1.218313 0.277097 -1.432299
v 1.218313 0.296850 -1.432299
v 1.550619 0.277097 -1.159583
v 1.550619 0.296850 -1.159583
v 1.823335 0.277097 -0.827278
v 1.823335 0.296850 -0.827278
v 2.025981 0.277097 -0.448153
v 2.025981 0.296850 -0.448153
v 2.150770 0.277097 -0.036779
v 2.150770 0.296850 -0.036779
v 2.192906 0.277097 0.391035
v 2.192906 0.296850 0.391035
v 2.150770 0.277097 0.818850
v 2.150770 0.296850 0.818850
v 2.025981 0.277097 1.230224
v 2.025981 0.296850 1.230224
v 1.823335 0.277097 1.609349
v 1.823335 0.296850 1.609349
v 1.550619 0.277097 1.941654
v 1.550619 0.296850 1.941654
v 1.218313 0.277097 2.214370
v 1.218313 0.296850 2.214370
v 0.839188 0.277097 2.417017
v 0.839188 0.296850 2.417017
v 0.427814 0.277097 2.541805
v 0.427814 0.296850 2.541805
v -0.000001 0.277097 2.583941
v -0.000001 0.296850 2.583941
v -0.427816 0.277097 2.541805
v -0.427816 0.296850 2.541805
v -0.839190 0.277097 2.417016
v -0.839190 0.296850 2.417016
v -1.218314 0.277097 2.214369
v -1.218314 0.296850 2.214369
v -1.550620 0.277097 1.941653
v -1.550620 0.296850 1.941653
v -1.823336 0.277097 1.609347
v -1.823336 0.296850 1.609347
v -2.025982 0.277097 1.230223
v -2.025982 0.296850 1.230223
v -2.150770 0.277097 0.818848
v -2.150770 0.296850 0.818848
v -2.192906 0.277097 0.391033
v -2.192906 0.296850 0.391033
v -2.150769 0.277097 -0.036782
v -2.150769 0.296850 -0.036781
v -2.025980 0.277097 -0.448156
v -2.025980 0.296850 -0.448156
v -1.823333 0.277097 -0.827280
v -1.823333 0.296850 -0.827280
v -1.550617 0.277097 -1.159585
v -1.550617 0.296850 -1.159585
v -1.218311 0.277097 -1.432301
v -1.218311 0.296850 -1.432301
v -0.839186 0.277097 -1.634947
v -0.839186 0.296850 -1.634947
v -0.427812 0.277097 -1.759735
v -0.427812 0.296850 -1.759735
v 0.124481 0.022376 -1.826932
v 0.054327 0.008230 -2.233141
v 0.054327 0.420439 -2.125642
v 0.021235 0.420439 -2.531850
v 0.246050 0.388327 -2.316986
v 0.318179 0.391715 -2.446769
v 0.243864 0.404399 -2.325564
v 0.315251 0.403825 -2.451559
vt 0.625000 0.500000
vt 0.375000 0.500000
vt 0.375000 0.500000
vt 0.625000 0.500000
vt 0.625000 0.750000
vt 0.375000 0.750000
vt 0.250000 0.500000
vt 0.250000 0.750000
vt 0.375000 0.500000
vt 0.625000 0.500000
vt 0.750000 0.500000
vt 0.750000 0.500000
vt 0.750000 0.500000
vt 0.625000 0.500000
vt 0.750000 0.500000
vt 0.625000 0.500000
vt 0.750000 0.500000
vt 0.375000 0.500000
vt 0.375000 0.375000
vt 0.625000 0.375000
vt 0.625000 0.500000
vt 0.375000 0.500000
vt 0.375000 0.000000
vt 0.625000 0.000000
vt 0.625000 0.250000
vt 0.375000 0.250000
vt 0.625000 0.500000
vt 0.750000 0.500000
vt 0.375000 0.250000
vt 0.625000 0.250000
vt 0.625000 0.500000
vt 0.375000 0.500000
vt 0.625000 0.500000
vt 0.625000 0.500000
vt 0.625000 0.500000
vt 0.625000 0.500000
vt 0.375000 0.500000
vt 0.625000 0.500000
vt 0.625000 0.750000
vt 0.375000 0.750000
vt 0.625000 0.375000
vt 0.375000 0.750000
vt 0.625000 0.750000
vt 0.625000 0.750000
vt 0.375000 0.750000
vt 0.250000 0.500000
vt 0.250000 0.500000
vt 0.125000 0.500000
vt 0.375000 0.500000
vt 0.375000 0.750000
vt 0.125000 0.750000
vt 0.250000 0.500000
vt 0.875000 0.500000
vt 0.875000 0.750000
vt 0.625000 0.750000
vt 0.250000 0.500000
vt 0.750000 0.750000
vt 0.625000 0.875000
vt 0.375000 0.875000
vt 0.625000 1.000000
vt 0.625000 0.750000
vt 0.625000 0.750000
vt 0.625000 1.000000
vt 0.375000 1.000000
vt 0.375000 1.000000
vt 0.375000 0.750000
vt 0.375000 0.750000
vt 0.625000 0.750000
vt 0.375000 0.750000
vt 0.625000 1.000000
vt 0.625000 1.000000
vt 0.375000 1.000000
vt 0.375000 1.000000
vt 0.625000 1.000000
vt 0.375000 1.000000
vt 0.375000 1.000000
vt 0.375000 1.000000
vt 0.375000 1.000000
vt 0.375000 1.000000
vt 0.625000 0.750000
vt 0.375000 0.750000
vt 0.375000 0.750000
vt 0.375000 0.750000
vt 0.375000 0.750000
vt 0.375000 0.750000
vt 0.375000 1.000000
vt 0.375000 0.750000
vt 0.375000 0.750000
vt 0.375000 1.000000
vt 0.375000 1.000000
vt 0.375000 1.000000
vt 0.375000 0.750000
vt 0.375000 0.750000
vt 0.375000 0.750000
vt 0.375000 0.750000
vt 0.375000 0.750000
vt 0.375000 0.750000
vt 0.625000 1.000000
vt 0.375000 1.000000
vt 0.000000 0.000000
vt 0.000000 0.000000
vt 0.000000 0.000000
vt 0.000000 0.000000
vt 0.625000 0.750000
vt 0.625000 1.000000
vt 0.625000 1.000000
vt 0.625000 0.750000
vt 0.625000 1.000000
vt 0.625000 1.000000
vt 0.625000 1.000000
vt 0.625000 1.000000
vt 0.625000 0.500000
vt 0.625000 0.500000
vt 0.375000 0.500000
vt 0.375000 0.500000
vt 0.375000 0.750000
vt 0.625000 0.750000
vt 0.625000 0.500000
vt 0.375000 0.500000
vt 0.625000 0.500000
vt 0.625000 0.500000
vt 0.375000 0.500000
vt 0.375000 0.500000
vt 0.625000 0.500000
vt 0.375000 0.000000
vt 0.375000 0.250000
vt 0.625000 0.250000
vt 0.625000 0.000000
vt 0.625000 0.500000
vt 0.375000 0.250000
vt 0.375000 0.500000
vt 0.625000 0.500000
vt 0.625000 0.250000
vt 0.375000 0.500000
vt 0.375000 0.750000
vt 0.625000 0.750000
vt 0.625000 0.500000
vt 0.375000 0.750000
vt 0.375000 0.750000
vt 0.625000 0.750000
vt 0.625000 0.750000
vt 0.125000 0.500000
vt 0.125000 0.750000
vt 0.375000 0.750000
vt 0.375000 0.500000
vt 0.625000 0.750000
vt 0.875000 0.750000
vt 0.875000 0.500000
vt 0.625000 1.000000
vt 0.625000 1.000000
vt 0.625000 0.750000
vt 0.625000 0.750000
vt 0.375000 1.000000
vt 0.375000 1.000000
vt 0.375000 0.750000
vt 0.375000 0.750000
vt 0.375000 0.750000
vt 0.625000 0.750000
vt 0.625000 1.000000
vt 0.625000 1.000000
vt 0.375000 1.000000
vt 0.375000 1.000000
vt 0.625000 1.000000
vt 0.375000 1.000000
vt 0.375000 1.000000
vt 0.375000 1.000000
vt 0.375000 1.000000
vt 0.375000 1.000000
vt 0.625000 0.750000
vt 0.375000 0.750000
vt 0.375000 0.750000
vt 0.375000 0.750000
vt 0.375000 1.000000
vt 0.375000 0.750000
vt 0.375000 0.750000
vt 0.375000 0.750000
vt 0.375000 0.750000
vt 0.375000 1.000000
vt 0.375000 1.000000
vt 0.375000 1.000000
vt 0.375000 0.750000
vt 0.375000 0.750000
vt 0.375000 0.750000
vt 0.375000 0.750000
vt 0.375000 0.750000
vt 0.375000 0.750000
vt 0.375000 1.000000
vt 0.625000 1.000000
vt 0.000000 0.000000
vt 0.000000 0.000000
vt 0.000000 0.000000
vt 0.000000 0.000000
vt 0.625000 0.750000
vt 0.625000 0.750000
vt 0.625000 1.000000
vt 0.625000 1.000000
vt 0.625000 1.000000
vt 0.625000 1.000000
vt 0.625000 1.000000
vt 0.625000 1.000000
vt 1.000000 0.500000
vt 1.000000 1.000000
vt 0.968750 1.000000
vt 0.968750 0.500000
vt 0.937500 1.000000
vt 0.937500 0.500000
vt 0.906250 1.000000
vt 0.906250 0.500000
vt 0.875000 1.000000
vt 0.875000 0.500000
vt 0.843750 1.000000
vt 0.843750 0.500000
vt 0.812500 1.000000
vt 0.812500 0.500000
vt 0.781250 1.000000
vt 0.781250 0.500000
vt 0.750000 1.000000
vt 0.750000 0.500000
vt 0.718750 1.000000
vt 0.718750 0.500000
vt 0.687500 1.000000
vt 0.687500 0.500000
vt 0.656250 1.000000
vt 0.656250 0.500000
vt 0.625000 1.000000
vt 0.625000 0.500000
vt 0.593750 1.000000
vt 0.593750 0.500000
vt 0.562500 1.000000
vt 0.562500 0.500000
vt 0.531250 1.000000
vt 0.531250 0.500000
vt 0.500000 1.000000
vt 0.500000 0.500000
vt 0.468750 1.000000
vt 0.468750 0.500000
vt 0.437500 1.000000
vt 0.437500 0.500000
vt 0.406250 1.000000
vt 0.406250 0.500000
vt 0.375000 1.000000
vt 0.375000 0.500000
vt 0.343750 1.000000
vt 0.343750 0.500000
vt 0.312500 1.000000
vt 0.312500 0.500000
vt 0.281250 1.000000
vt 0.281250 0.500000
vt 0.250000 1.000000
vt 0.250000 0.500000
vt 0.218750 1.000000
vt 0.218750 0.500000
vt 0.187500 1.000000
vt 0.187500 0.500000
vt 0.156250 1.000000
vt 0.156250 0.500000
vt 0.125000 1.000000
vt 0.125000 0.500000
vt 0.093750 1.000000
vt 0.093750 0.500000
vt 0.062500 1.000000
vt 0.062500 0.500000
vt 0.296822 0.485388
vt 0.250000 0.490000
vt 0.203179 0.485389
vt 0.158156 0.471731
vt 0.116663 0.449553
vt 0.080295 0.419706
vt 0.050447 0.383337
vt 0.028269 0.341844
vt 0.014612 0.296822
vt 0.010000 0.250000
vt 0.014611 0.203179
vt 0.028269 0.158156
vt 0.050447 0.116663
vt 0.080294 0.080294
vt 0.116663 0.050447
vt 0.158156 0.028269
vt 0.203178 0.014612
vt 0.250000 0.010000
vt 0.296822 0.014612
vt 0.341844 0.028269
vt 0.383337 0.050447
vt 0.419706 0.080294
vt 0.449553 0.116663
vt 0.471731 0.158156
vt 0.485388 0.203178
vt 0.490000 0.250000
vt 0.485388 0.296822
vt 0.471731 0.341844
vt 0.449553 0.383337
vt 0.419706 0.419706
vt 0.383337 0.449553
vt 0.341844 0.471731
vt 0.031250 1.000000
vt 0.031250 0.500000
vt 0.000000 1.000000
vt 0.000000 0.500000
vt 0.750000 0.490000
vt 0.796822 0.485388
vt 0.841844 0.471731
vt 0.883337 0.449553
vt 0.919706 0.419706
vt 0.949553 0.383337
vt 0.971731 0.341844
vt 0.985388 0.296822
vt 0.990000 0.250000
vt 0.985388 0.203178
vt 0.971731 0.158156
vt 0.949553 0.116663
vt 0.919706 0.080294
vt 0.883337 0.050447
vt 0.841844 0.028269
vt 0.796822 0.014612
vt 0.750000 0.010000
vt 0.703178 0.014612
vt 0.658156 0.028269
vt 0.616663 0.050447
vt 0.580294 0.080294
vt 0.550447 0.116663
vt 0.528269 0.158156
vt 0.514611 0.203179
vt 0.510000 0.250000
vt 0.514612 0.296822
vt 0.528269 0.341844
vt 0.550447 0.383337
vt 0.580295 0.419706
vt 0.616663 0.449553
vt 0.658156 0.471731
vt 0.703179 0.485389
vt 0.625000 0.500000
vt 0.625000 0.500000
vt 0.625000 0.500000
vt 0.625000 0.500000
vn 1.0000 0.0000 0.0000
vn 0.9829 0.0000 0.1840
vn 0.0000 -0.9993 0.0374
vn 0.9467 0.0000 -0.3220
vn 0.0000 1.0000 0.0000
vn 0.0000 0.9996 -0.0300
vn 0.0000 0.8367 -0.5476
vn 0.0000 0.6002 0.7998
vn 0.0000 -0.5502 -0.8350
vn 0.9799 -0.0572 -0.1911
vn 0.0000 -1.0000 0.0000
vn 0.1205 -0.6527 -0.7479
vn 0.0000 0.0000 -1.0000
vn 0.0000 -0.5868 -0.8097
vn 0.0000 0.0000 1.0000
vn 0.0000 -0.9990 -0.0451
vn 0.0000 -0.9977 -0.0672
vn 0.0000 -0.9743 -0.2252
vn 0.0000 0.9216 0.3881
vn -1.0000 -0.0000 0.0000
vn 0.9082 0.4186 0.0000
vn -0.1835 -0.9830 0.0000
vn 0.2558 -0.1797 -0.9499
vn 0.1787 0.0000 -0.9839
vn 0.0904 0.0000 -0.9959
vn 0.1835 0.9830 0.0000
vn 0.9287 0.0000 0.3709
vn 0.0000 -0.9203 0.3913
vn -0.9287 0.0000 0.3709
vn 0.0000 0.9203 0.3913
vn 0.0000 0.5736 -0.8191
vn 0.9810 -0.0000 -0.1940
vn 0.0000 0.9887 -0.1502
vn -0.9829 0.0000 0.1840
vn -0.9467 0.0000 -0.3220
vn -0.9799 -0.0572 -0.1911
vn -0.9914 0.0330 -0.1266
vn -0.9082 0.4186 0.0000
vn 0.1835 -0.9830 0.0000
vn -0.2558 -0.1797 -0.9499
vn -0.1787 0.0000 -0.9839
vn -0.0904 0.0000 -0.9959
vn -0.1835 0.9830 0.0000
vn -0.9810 0.0000 -0.1940
vn 0.0980 -0.0000 -0.9952
vn 0.2903 -0.0000 -0.9569
vn 0.4714 -0.0000 -0.8819
vn 0.6344 -0.0000 -0.7730
vn 0.7730 0.0000 -0.6344
vn 0.8819 -0.0000 -0.4714
vn 0.9569 0.0000 -0.2903
vn 0.9952 0.0000 -0.0980
vn 0.9952 0.0000 0.0980
vn 0.9569 0.0000 0.2903
vn 0.8819 0.0000 0.4714
vn 0.7730 0.0000 0.6344
vn 0.6344 0.0000 0.7730
vn 0.4714 0.0000 0.8819
vn 0.2903 -0.0000 0.9569
vn 0.0980 -0.0000 0.9952
vn -0.0980 -0.0000 0.9952
vn -0.2903 -0.0000 0.9569
vn -0.4714 -0.0000 0.8819
vn -0.6344 -0.0000 0.7730
vn -0.7730 0.0000 0.6344
vn -0.8819 -0.0000 0.4714
vn -0.9569 -0.0000 0.2903
vn -0.9952 0.0000 0.0980
vn -0.9952 -0.0000 -0.0980
vn -0.9569 0.0000 -0.2903
vn -0.8819 -0.0000 -0.4714
vn -0.7730 -0.0000 -0.6344
vn -0.6344 0.0000 -0.7730
vn -0.4714 0.0000 -0.8819
vn -0.2903 -0.0000 -0.9569
vn -0.0980 -0.0000 -0.9952
vn 0.9893 0.0026 -0.1456
vn 0.9945 0.0670 -0.0810
vn 0.9903 0.1096 -0.0854
vn 0.9920 -0.0116 -0.1259
vn 0.8103 0.3646 0.4587
vn 0.0083 1.0000 -0.0022
vn 0.0171 0.4726 0.8811
vn 0.0115 -0.9998 0.0136
usemtl None
s off
f 4/1/1 3/2/1 5/3/1 6/4/1
f 3/2/2 4/1/2 2/5/2 1/6/2
f 93/7/3 3/2/3 1/6/3 95/8/3
f 6/4/4 5/3/4 9/9/4 10/10/4
f 94/11/5 4/1/5 6/4/5 98/12/5
f 100/13/6 10/10/6 219/14/6 102/15/6
f 98/12/7 6/4/7 10/10/7 100/13/7
f 102/15/8 219/14/8 221/16/8 105/17/8
f 10/10/1 9/9/1 13/18/1 219/14/1
f 103/19/9 104/20/9 220/21/9 17/22/9
f 219/14/10 13/18/10 17/22/10 220/21/10
f 7/23/5 24/24/5 23/25/5 11/26/5
f 105/17/5 221/16/5 222/27/5 106/28/5
f 25/29/11 8/30/11 12/31/11 26/32/11
f 18/33/12 22/34/12 226/35/12 224/36/12
f 25/37/13 24/38/13 7/39/13 8/40/13
f 220/21/14 104/20/14 106/41/14 222/27/14
f 39/42/15 31/43/15 29/44/15 30/45/15
f 13/18/16 101/46/16 103/47/16 17/22/16
f 8/48/1 7/49/1 11/50/1 12/51/1
f 9/9/17 99/52/17 101/46/17 13/18/17
f 12/31/15 11/53/15 23/54/15 26/55/15
f 5/3/18 97/56/18 99/52/18 9/9/18
f 3/2/11 93/7/11 97/56/11 5/3/11
f 4/1/19 94/11/19 96/57/19 2/5/19
f 1/6/15 2/5/15 96/58/15 95/59/15
f 15/60/20 19/61/20 23/62/20 24/63/20
f 16/64/20 15/60/20 24/63/20 25/65/20
f 19/61/20 21/66/20 26/67/20 23/62/20
f 21/66/20 16/64/20 25/65/20 26/67/20
f 30/45/15 29/44/15 61/68/15 62/69/15
f 31/43/21 33/70/21 27/71/21 29/44/21
f 40/72/22 39/42/22 30/45/22 28/73/22
f 33/70/23 40/72/23 28/73/23 27/71/23
f 38/74/24 42/75/24 40/72/24 33/70/24
f 34/76/25 36/77/25 46/78/25 44/79/25
f 37/80/26 38/74/26 33/70/26 31/43/26
f 41/81/15 37/80/15 31/43/15 39/42/15
f 21/66/15 19/61/15 37/80/15 41/81/15
f 19/61/26 15/60/26 38/74/26 37/80/26
f 16/64/22 21/66/22 41/81/22 42/75/22
f 15/60/24 16/64/24 42/75/24 38/74/24
f 34/76/22 32/82/22 39/42/22 40/72/22
f 32/82/22 35/83/22 41/81/22 39/42/22
f 36/77/22 34/76/22 40/72/22 42/75/22
f 35/83/22 36/77/22 42/75/22 41/81/22
f 46/78/5 45/84/5 49/85/5 50/86/5
f 32/82/20 34/76/20 44/79/20 43/87/20
f 36/77/1 35/83/1 45/84/1 46/78/1
f 35/83/15 32/82/15 43/87/15 45/84/15
f 45/84/5 43/87/5 47/88/5 49/85/5
f 44/79/5 46/78/5 50/86/5 48/89/5
f 43/87/5 44/79/5 48/89/5 47/88/5
f 48/89/13 50/86/13 54/90/13 52/91/13
f 47/88/20 48/89/20 52/91/20 51/92/20
f 50/86/1 49/85/1 53/93/1 54/90/1
f 53/93/27 49/85/27 56/94/27 58/95/27
f 52/91/11 54/90/11 53/93/11 51/92/11
f 56/94/15 55/96/15 57/97/15 58/95/15
f 51/92/28 53/93/28 58/95/28 57/97/28
f 47/88/29 51/92/29 57/97/29 55/96/29
f 49/85/30 47/88/30 55/96/30 56/94/30
f 62/69/20 61/68/20 59/98/20 60/99/20
f 59/100/20 65/101/20 70/102/20 68/103/20
f 28/73/11 30/45/11 62/69/11 60/99/11
f 27/71/13 28/73/13 60/99/13 59/98/13
f 64/104/5 63/105/5 65/106/5 66/107/5
f 61/68/15 29/44/15 64/104/15 66/107/15
f 29/44/1 27/71/1 63/105/1 64/104/1
f 67/108/31 68/109/31 70/110/31 69/111/31
f 27/71/11 59/98/11 68/109/11 67/108/11
f 63/105/32 27/71/32 67/108/32 69/111/32
f 65/106/33 63/105/33 69/111/33 70/110/33
f 74/112/20 76/113/20 75/114/20 73/115/20
f 73/115/34 71/116/34 72/117/34 74/112/34
f 93/7/3 95/8/3 71/116/3 73/115/3
f 76/113/35 80/118/35 79/119/35 75/114/35
f 94/11/5 98/12/5 76/113/5 74/112/5
f 100/13/6 102/15/6 84/120/6 80/118/6
f 98/12/7 100/13/7 80/118/7 76/113/7
f 102/15/8 105/17/8 90/121/8 84/120/8
f 80/118/20 84/120/20 83/122/20 79/119/20
f 103/19/9 87/123/9 88/124/9 104/20/9
f 84/120/36 88/124/36 87/123/36 83/122/36
f 77/125/5 81/126/5 107/127/5 108/128/5
f 105/17/5 106/28/5 92/129/5 90/121/5
f 109/130/11 110/131/11 82/132/11 78/133/11
f 84/120/37 90/121/37 92/129/37 88/124/37
f 109/134/13 78/135/13 77/136/13 108/137/13
f 88/124/14 92/129/14 106/41/14 104/20/14
f 123/138/15 114/139/15 113/140/15 115/141/15
f 83/122/16 87/123/16 103/47/16 101/46/16
f 78/142/20 82/143/20 81/144/20 77/145/20
f 79/119/17 83/122/17 101/46/17 99/52/17
f 82/132/15 110/146/15 107/147/15 81/148/15
f 75/114/18 79/119/18 99/52/18 97/56/18
f 73/115/11 75/114/11 97/56/11 93/7/11
f 74/112/19 72/117/19 96/57/19 94/11/19
f 71/116/15 95/59/15 96/58/15 72/117/15
f 85/149/1 108/150/1 107/151/1 89/152/1
f 86/153/1 109/154/1 108/150/1 85/149/1
f 89/152/1 107/151/1 110/155/1 91/156/1
f 91/156/1 110/155/1 109/154/1 86/153/1
f 114/139/15 146/157/15 145/158/15 113/140/15
f 115/141/38 113/140/38 111/159/38 117/160/38
f 124/161/39 112/162/39 114/139/39 123/138/39
f 117/160/40 111/159/40 112/162/40 124/161/40
f 122/163/41 117/160/41 124/161/41 126/164/41
f 118/165/42 128/166/42 130/167/42 120/168/42
f 121/169/43 115/141/43 117/160/43 122/163/43
f 125/170/15 123/138/15 115/141/15 121/169/15
f 91/156/15 125/170/15 121/169/15 89/152/15
f 89/152/43 121/169/43 122/163/43 85/149/43
f 86/153/39 126/164/39 125/170/39 91/156/39
f 85/149/41 122/163/41 126/164/41 86/153/41
f 118/165/39 124/161/39 123/138/39 116/171/39
f 116/171/39 123/138/39 125/170/39 119/172/39
f 120/168/39 126/164/39 124/161/39 118/165/39
f 119/172/39 125/170/39 126/164/39 120/168/39
f 130/167/5 134/173/5 133/174/5 129/175/5
f 116/171/1 127/176/1 128/166/1 118/165/1
f 120/168/20 130/167/20 129/175/20 119/172/20
f 119/172/15 129/175/15 127/176/15 116/171/15
f 129/175/5 133/174/5 131/177/5 127/176/5
f 128/166/5 132/178/5 134/173/5 130/167/5
f 127/176/5 131/177/5 132/178/5 128/166/5
f 132/178/13 136/179/13 138/180/13 134/173/13
f 131/177/1 135/181/1 136/179/1 132/178/1
f 134/173/20 138/180/20 137/182/20 133/174/20
f 137/182/29 142/183/29 140/184/29 133/174/29
f 136/179/11 135/181/11 137/182/11 138/180/11
f 140/184/15 142/183/15 141/185/15 139/186/15
f 135/181/28 141/185/28 142/183/28 137/182/28
f 131/177/27 139/186/27 141/185/27 135/181/27
f 133/174/30 140/184/30 139/186/30 131/177/30
f 146/157/1 144/187/1 143/188/1 145/158/1
f 143/189/1 152/190/1 154/191/1 149/192/1
f 112/162/11 144/187/11 146/157/11 114/139/11
f 111/159/13 143/188/13 144/187/13 112/162/13
f 148/193/5 150/194/5 149/195/5 147/196/5
f 145/158/15 150/194/15 148/193/15 113/140/15
f 113/140/20 148/193/20 147/196/20 111/159/20
f 151/197/31 153/198/31 154/199/31 152/200/31
f 111/159/11 151/197/11 152/200/11 143/188/11
f 147/196/44 153/198/44 151/197/44 111/159/44
f 149/195/33 154/199/33 153/198/33 147/196/33
f 155/201/45 156/202/45 158/203/45 157/204/45
f 157/204/46 158/203/46 160/205/46 159/206/46
f 159/206/47 160/205/47 162/207/47 161/208/47
f 161/208/48 162/207/48 164/209/48 163/210/48
f 163/210/49 164/209/49 166/211/49 165/212/49
f 165/212/50 166/211/50 168/213/50 167/214/50
f 167/214/51 168/213/51 170/215/51 169/216/51
f 169/216/52 170/215/52 172/217/52 171/218/52
f 171/218/53 172/217/53 174/219/53 173/220/53
f 173/220/54 174/219/54 176/221/54 175/222/54
f 175/222/55 176/221/55 178/223/55 177/224/55
f 177/224/56 178/223/56 180/225/56 179/226/56
f 179/226/57 180/225/57 182/227/57 181/228/57
f 181/228/58 182/227/58 184/229/58 183/230/58
f 183/230/59 184/229/59 186/231/59 185/232/59
f 185/232/60 186/231/60 188/233/60 187/234/60
f 187/234/61 188/233/61 190/235/61 189/236/61
f 189/236/62 190/235/62 192/237/62 191/238/62
f 191/238/63 192/237/63 194/239/63 193/240/63
f 193/240/64 194/239/64 196/241/64 195/242/64
f 195/242/65 196/241/65 198/243/65 197/244/65
f 197/244/66 198/243/66 200/245/66 199/246/66
f 199/246/67 200/245/67 202/247/67 201/248/67
f 201/248/68 202/247/68 204/249/68 203/250/68
f 203/250/69 204/249/69 206/251/69 205/252/69
f 205/252/70 206/251/70 208/253/70 207/254/70
f 207/254/71 208/253/71 210/255/71 209/256/71
f 209/256/72 210/255/72 212/257/72 211/258/72
f 211/258/73 212/257/73 214/259/73 213/260/73
f 213/260/74 214/259/74 216/261/74 215/262/74
f 158/263/5 156/264/5 218/265/5 216/266/5 214/267/5 212/268/5 210/269/5 208/270/5 206/271/5 204/272/5 202/273/5 200/274/5 198/275/5 196/276/5 194/277/5 192/278/5 190/279/5 188/280/5 186/281/5 184/282/5 182/283/5 180/284/5 178/285/5 176/286/5 174/287/5 172/288/5 170/289/5 168/290/5 166/291/5 164/292/5 162/293/5 160/294/5
f 215/262/75 216/261/75 218/295/75 217/296/75
f 217/296/76 218/295/76 156/297/76 155/298/76
f 155/299/11 157/300/11 159/301/11 161/302/11 163/303/11 165/304/11 167/305/11 169/306/11 171/307/11 173/308/11 175/309/11 177/310/11 179/311/11 181/312/11 183/313/11 185/314/11 187/315/11 189/316/11 191/317/11 193/318/11 195/319/11 197/320/11 199/321/11 201/322/11 203/323/11 205/324/11 207/325/11 209/326/11 211/327/11 213/328/11 215/329/11 217/330/11
f 18/33/77 14/331/77 219/14/77 220/21/77
f 20/332/78 22/34/78 222/27/78 221/16/78
f 14/331/79 20/332/79 221/16/79 219/14/79
f 22/34/80 18/33/80 220/21/80 222/27/80
f 223/333/81 224/36/81 226/35/81 225/334/81
f 22/34/82 20/332/82 225/334/82 226/35/82
f 20/332/83 14/331/83 223/333/83 225/334/83
f 14/331/84 18/33/84 224/36/84 223/333/84
