# Blender v2.82 (sub 7) OBJ File: 'samSite.blend'
# www.blender.org
mtllib samSiteHitbox.mtl
o Cube_Cube.001
v 0.113796 0.252309 0.023848
v 0.113796 0.473088 0.111373
v 0.113796 0.252309 -0.023999
v 0.113796 0.473088 -0.111525
v 0.500000 -0.018375 0.500000
v 0.071735 0.018375 0.071735
v 0.500000 -0.018375 -0.500000
v 0.071735 0.018375 -0.071735
v 0.139438 0.252309 0.023848
v 0.139438 0.473088 0.111373
v 0.500000 0.018375 -0.500000
v 0.500000 0.018375 0.500000
v 0.139438 0.252309 -0.023999
v 0.139438 0.473088 -0.111525
v 0.071735 0.395909 -0.071735
v 0.071735 0.395909 0.071735
v 0.057039 0.297447 0.031200
v 0.057039 0.359847 0.031200
v 0.057039 0.297447 -0.031200
v 0.057039 0.359847 -0.031200
v 0.119440 0.297447 0.031200
v 0.119440 0.359847 0.031200
v 0.119440 0.297447 -0.031200
v 0.119440 0.359847 -0.031200
v 0.436049 0.473088 0.111373
v 0.436049 0.473088 -0.111525
v 0.113796 0.473088 -0.405477
v 0.139438 0.473088 -0.405477
v 0.436049 0.473088 -0.405477
v 0.113796 0.473088 0.384627
v 0.139438 0.473088 0.384627
v 0.436049 0.473088 0.384627
v 0.436049 0.835073 0.111373
v 0.436049 0.835073 -0.111525
v 0.113796 0.835073 -0.405477
v 0.139438 0.835073 -0.405477
v 0.436049 0.835073 -0.405477
v 0.113796 0.835073 0.384627
v 0.139438 0.835073 0.384627
v 0.436049 0.835073 0.384627
v 0.177218 0.835073 -0.111525
v 0.143988 0.835073 -0.111525
v 0.143988 0.835073 0.111373
v 0.177218 0.835073 0.111373
v -0.113796 0.252309 0.023848
v -0.113796 0.473088 0.111373
v -0.113796 0.252309 -0.023999
v -0.113796 0.473088 -0.111525
v -0.500000 -0.018375 0.500000
v -0.071735 0.018375 0.071735
v -0.500000 -0.018375 -0.500000
v -0.071735 0.018375 -0.071735
v -0.139438 0.252309 0.023848
v -0.139438 0.473088 0.111373
v -0.500000 0.018375 -0.500000
v -0.500000 0.018375 0.500000
v -0.139438 0.252309 -0.023999
v -0.139438 0.473088 -0.111525
v -0.071735 0.395909 -0.071735
v -0.071735 0.395909 0.071735
v -0.057039 0.297447 0.031200
v -0.057039 0.359847 0.031200
v -0.057039 0.297447 -0.031200
v -0.057039 0.359847 -0.031200
v -0.119440 0.297447 0.031200
v -0.119440 0.359847 0.031200
v -0.119440 0.297447 -0.031200
v -0.119440 0.359847 -0.031200
v -0.436049 0.473088 0.111373
v -0.436049 0.473088 -0.111525
v -0.113796 0.473088 -0.405477
v -0.139438 0.473088 -0.405477
v -0.436049 0.473088 -0.405477
v -0.113796 0.473088 0.384627
v -0.139438 0.473088 0.384627
v -0.436049 0.473088 0.384627
v -0.436049 0.835073 0.111373
v -0.436049 0.835073 -0.111525
v -0.113796 0.835073 -0.405477
v -0.139438 0.835073 -0.405477
v -0.436049 0.835073 -0.405477
v -0.113796 0.835073 0.384627
v -0.139438 0.835073 0.384627
v -0.436049 0.835073 0.384627
v -0.177218 0.835073 -0.111525
v -0.143988 0.835073 -0.111525
v -0.143988 0.835073 0.111373
v -0.177218 0.835073 0.111373
vt 0.625000 0.000000
vt 0.375000 0.250000
vt 0.375000 0.000000
vt 0.125000 0.500000
vt 0.125000 0.750000
vt 0.125000 0.500000
vt 0.625000 0.500000
vt 0.375000 0.750000
vt 0.375000 0.500000
vt 0.625000 0.750000
vt 0.375000 0.750000
vt 0.625000 0.750000
vt 0.375000 1.000000
vt 0.375000 0.750000
vt 0.625000 0.750000
vt 0.625000 0.500000
vt 0.625000 0.000000
vt 0.375000 0.250000
vt 0.375000 0.000000
vt 0.625000 0.250000
vt 0.375000 0.500000
vt 0.375000 0.250000
vt 0.625000 0.750000
vt 0.625000 0.500000
vt 0.625000 0.500000
vt 0.625000 0.500000
vt 0.375000 0.750000
vt 0.625000 0.750000
vt 0.625000 0.750000
vt 0.625000 0.500000
vt 0.375000 0.750000
vt 0.125000 0.750000
vt 0.375000 0.500000
vt 0.125000 0.750000
vt 0.125000 0.500000
vt 0.375000 0.500000
vt 0.875000 0.500000
vt 0.625000 0.750000
vt 0.625000 0.500000
vt 0.875000 0.500000
vt 0.625000 0.750000
vt 0.625000 0.500000
vt 0.125000 0.750000
vt 0.125000 0.750000
vt 0.375000 0.250000
vt 0.375000 0.250000
vt 0.125000 0.500000
vt 0.625000 0.500000
vt 0.375000 0.500000
vt 0.375000 0.500000
vt 0.125000 0.750000
vt 0.125000 0.750000
vt 0.375000 0.500000
vt 0.375000 0.250000
vt 0.375000 0.250000
vt 0.375000 0.500000
vt 0.375000 0.500000
vt 0.625000 0.750000
vt 0.625000 0.500000
vt 0.375000 0.750000
vt 0.375000 0.500000
vt 0.375000 0.250000
vt 0.375000 0.250000
vt 0.125000 0.500000
vt 0.125000 0.500000
vt 0.375000 0.250000
vt 0.375000 0.500000
vt 0.375000 0.250000
vt 0.625000 0.750000
vt 0.375000 0.500000
vt 0.125000 0.500000
vt 0.375000 0.500000
vt 0.375000 0.250000
vt 0.625000 0.500000
vt 0.375000 0.250000
vt 0.625000 0.000000
vt 0.375000 0.000000
vt 0.375000 1.000000
vt 0.625000 0.750000
vt 0.375000 0.750000
vt 0.625000 0.500000
vt 0.375000 0.250000
vt 0.625000 0.000000
vt 0.375000 0.000000
vt 0.375000 0.500000
vt 0.625000 0.250000
vt 0.375000 0.250000
vt 0.375000 0.750000
vt 0.625000 0.500000
vt 0.375000 0.750000
vt 0.375000 0.500000
vt 0.125000 0.750000
vt 0.375000 0.500000
vt 0.125000 0.500000
vt 0.625000 0.750000
vt 0.875000 0.500000
vt 0.625000 0.500000
vt 0.625000 0.750000
vt 0.875000 0.500000
vt 0.625000 0.500000
vt 0.375000 0.250000
vt 0.375000 0.250000
vt 0.625000 0.500000
vt 0.375000 0.500000
vt 0.375000 0.500000
vt 0.375000 0.500000
vt 0.375000 0.250000
vt 0.375000 0.250000
vt 0.375000 0.500000
vt 0.375000 0.500000
vt 0.625000 0.750000
vt 0.375000 0.500000
vt 0.375000 0.750000
vt 0.375000 0.250000
vt 0.375000 0.250000
vt 0.625000 0.750000
vt 0.375000 0.250000
vt 0.375000 0.500000
vt 0.625000 0.250000
vt 0.625000 0.750000
vt 0.625000 1.000000
vt 0.625000 0.750000
vt 0.375000 0.500000
vt 0.375000 0.750000
vt 0.875000 0.750000
vt 0.875000 0.750000
vt 0.375000 0.750000
vt 0.625000 0.250000
vt 0.625000 1.000000
vt 0.625000 0.750000
vt 0.375000 0.750000
vt 0.875000 0.750000
vt 0.875000 0.750000
vt 0.375000 0.750000
vn 0.0000 0.0000 1.0000
vn 0.0000 1.0000 0.0000
vn 1.0000 0.0000 0.0000
vn 0.0000 0.0000 -1.0000
vn 0.0000 -1.0000 0.0000
vn -1.0000 0.0000 0.0000
vn 0.0000 0.3685 -0.9296
vn 0.0000 0.3685 0.9296
usemtl None
s off
f 22/1/1 17/2/1 21/3/1
f 2/4/2 48/5/2 46/6/2
f 11/7/3 5/8/3 7/9/3
f 5/8/1 56/10/1 49/11/1
f 20/12/4 23/13/4 19/14/4
f 49/11/5 7/9/5 5/8/5
f 6/15/2 11/7/2 8/16/2
f 9/17/2 3/18/2 1/19/2
f 13/20/6 10/21/6 14/22/6
f 60/23/2 15/24/2 59/25/2
f 9/26/7 2/27/7 10/21/7
f 8/16/3 16/28/3 6/15/3
f 60/23/1 6/15/1 16/28/1
f 56/10/2 6/15/2 50/29/2
f 55/30/2 8/16/2 11/7/2
f 2/4/3 3/31/3 4/32/3
f 23/33/5 17/34/5 19/35/5
f 51/36/4 11/7/4 7/9/4
f 3/37/8 14/38/8 4/39/8
f 20/40/2 22/41/2 24/42/2
f 71/43/2 4/32/2 27/44/2
f 10/21/2 26/45/2 14/22/2
f 26/45/2 28/46/2 14/22/2
f 74/47/2 2/4/2 46/6/2
f 14/38/2 27/48/2 4/39/2
f 10/21/2 32/49/2 25/50/2
f 79/51/1 27/44/1 35/52/1
f 2/27/2 31/53/2 10/21/2
f 29/54/1 36/55/1 28/46/1
f 31/53/4 40/56/4 32/49/4
f 32/49/6 33/57/6 25/50/6
f 28/58/1 35/59/1 27/48/1
f 30/60/4 39/61/4 31/53/4
f 25/50/6 34/62/6 26/45/6
f 26/45/6 37/63/6 29/54/6
f 82/64/4 30/65/4 74/47/4
f 42/66/5 87/67/5 86/68/5
f 36/69/5 42/66/5 35/59/5
f 82/64/5 43/70/5 38/71/5
f 42/66/5 44/72/5 43/70/5
f 33/57/5 41/73/5 34/62/5
f 37/63/5 41/73/5 36/69/5
f 35/59/5 86/68/5 79/74/5
f 43/70/5 39/61/5 38/71/5
f 44/72/5 40/56/5 39/61/5
f 61/75/1 66/76/1 65/77/1
f 49/11/6 55/30/6 51/36/6
f 67/78/4 64/79/4 63/80/4
f 55/30/2 50/29/2 52/81/2
f 47/82/2 53/83/2 45/84/2
f 54/85/3 57/86/3 58/87/3
f 46/88/7 53/89/7 54/85/7
f 60/23/6 52/81/6 50/29/6
f 46/6/6 47/90/6 45/91/6
f 61/92/5 67/93/5 63/94/5
f 58/95/8 47/96/8 48/97/8
f 66/98/2 64/99/2 68/100/2
f 70/101/2 54/85/2 58/87/2
f 72/102/2 70/101/2 58/87/2
f 71/103/2 58/95/2 48/97/2
f 76/104/2 54/85/2 69/105/2
f 75/106/2 46/88/2 54/85/2
f 80/107/1 73/108/1 72/102/1
f 84/109/4 75/106/4 76/104/4
f 77/110/3 76/104/3 69/105/3
f 79/74/1 72/111/1 71/103/1
f 83/112/4 74/113/4 75/106/4
f 78/114/3 69/105/3 70/101/3
f 81/115/3 70/101/3 73/108/3
f 80/116/5 86/68/5 85/117/5
f 88/118/5 86/68/5 87/67/5
f 85/117/5 77/110/5 78/114/5
f 81/115/5 85/117/5 78/114/5
f 83/112/5 87/67/5 82/64/5
f 84/109/5 88/118/5 83/112/5
f 59/25/4 8/16/4 52/81/4
f 22/1/1 18/119/1 17/2/1
f 2/4/2 4/32/2 48/5/2
f 11/7/3 12/120/3 5/8/3
f 5/8/1 12/120/1 56/10/1
f 20/12/4 24/121/4 23/13/4
f 49/11/5 51/36/5 7/9/5
f 6/15/2 12/120/2 11/7/2
f 9/17/2 13/20/2 3/18/2
f 13/20/6 9/26/6 10/21/6
f 60/23/2 16/28/2 15/24/2
f 9/26/7 1/122/7 2/27/7
f 8/16/3 15/24/3 16/28/3
f 60/23/1 50/29/1 6/15/1
f 56/10/2 12/120/2 6/15/2
f 55/30/2 52/81/2 8/16/2
f 2/4/3 1/123/3 3/31/3
f 23/33/5 21/124/5 17/34/5
f 51/36/4 55/30/4 11/7/4
f 3/37/8 13/125/8 14/38/8
f 20/40/2 18/126/2 22/41/2
f 71/43/2 48/5/2 4/32/2
f 10/21/2 25/50/2 26/45/2
f 26/45/2 29/54/2 28/46/2
f 74/47/2 30/65/2 2/4/2
f 14/38/2 28/58/2 27/48/2
f 10/21/2 31/53/2 32/49/2
f 79/51/1 71/43/1 27/44/1
f 2/27/2 30/60/2 31/53/2
f 29/54/1 37/63/1 36/55/1
f 31/53/4 39/61/4 40/56/4
f 32/49/6 40/56/6 33/57/6
f 28/58/1 36/69/1 35/59/1
f 30/60/4 38/127/4 39/61/4
f 25/50/6 33/57/6 34/62/6
f 26/45/6 34/62/6 37/63/6
f 82/64/4 38/71/4 30/65/4
f 42/66/5 43/70/5 87/67/5
f 36/69/5 41/73/5 42/66/5
f 82/64/5 87/67/5 43/70/5
f 42/66/5 41/73/5 44/72/5
f 33/57/5 44/72/5 41/73/5
f 37/63/5 34/62/5 41/73/5
f 35/59/5 42/66/5 86/68/5
f 43/70/5 44/72/5 39/61/5
f 44/72/5 33/57/5 40/56/5
f 61/75/1 62/128/1 66/76/1
f 49/11/6 56/10/6 55/30/6
f 67/78/4 68/129/4 64/79/4
f 55/30/2 56/10/2 50/29/2
f 47/82/2 57/86/2 53/83/2
f 54/85/3 53/89/3 57/86/3
f 46/88/7 45/130/7 53/89/7
f 60/23/6 59/25/6 52/81/6
f 46/6/6 48/5/6 47/90/6
f 61/92/5 65/131/5 67/93/5
f 58/95/8 57/132/8 47/96/8
f 66/98/2 62/133/2 64/99/2
f 70/101/2 69/105/2 54/85/2
f 72/102/2 73/108/2 70/101/2
f 71/103/2 72/111/2 58/95/2
f 76/104/2 75/106/2 54/85/2
f 75/106/2 74/113/2 46/88/2
f 80/107/1 81/115/1 73/108/1
f 84/109/4 83/112/4 75/106/4
f 77/110/3 84/109/3 76/104/3
f 79/74/1 80/116/1 72/111/1
f 83/112/4 82/134/4 74/113/4
f 78/114/3 77/110/3 69/105/3
f 81/115/3 78/114/3 70/101/3
f 80/116/5 79/74/5 86/68/5
f 88/118/5 85/117/5 86/68/5
f 85/117/5 88/118/5 77/110/5
f 81/115/5 80/116/5 85/117/5
f 83/112/5 88/118/5 87/67/5
f 84/109/5 77/110/5 88/118/5
f 59/25/4 15/24/4 8/16/4
