# Blender v2.82 (sub 7) OBJ File: 'F-CK.blend'
# www.blender.org
mtllib fighterHitbox00.mtl
o Cube
v 0.258796 -0.064322 -0.571342
v 0.258796 -0.005499 -0.571342
v 0.258796 -0.061819 0.056903
v 0.258796 -0.000494 0.056903
v 0.036098 -0.123145 1.606905
v 0.036098 -0.103448 1.606905
v 0.246826 -0.123145 -1.000000
v 0.246826 0.053324 -1.000000
v 0.182304 -0.036894 0.635096
v 0.182304 0.049357 0.646804
v 0.258796 -0.123145 0.424324
v 0.258796 0.093688 0.424324
v 0.258796 -0.061651 -0.354024
v 0.105813 0.148070 0.892698
v 0.258796 -0.000158 -0.354024
v 0.105813 -0.123145 0.822454
v 0.105813 -0.032740 0.845869
v 0.258796 -0.123145 -0.354024
v 0.105813 0.057665 0.869283
v 0.258796 0.061336 -0.354024
v 0.258796 -0.050867 0.424324
v 0.182304 -0.123145 0.623389
v 0.258796 0.021410 0.424324
v 0.182304 0.135608 0.658511
v 0.036098 -0.116579 1.606905
v 0.258796 0.060832 0.056903
v 0.036098 -0.110013 1.606905
v 0.258796 -0.123145 0.056903
v 0.246826 -0.064322 -1.000000
v 0.258796 -0.123145 -0.571342
v 0.246826 -0.005499 -1.000000
v 0.258796 0.053324 -0.571342
v 0.555799 -0.005499 -0.970676
v 0.563237 -0.005499 -0.870578
v 0.563237 -0.064322 -0.870578
v 0.555799 -0.064322 -0.970676
v 0.862811 -0.061819 -0.217727
v 0.862811 -0.050867 -0.078711
v 0.862811 -0.000158 -0.310518
v 0.862811 -0.000494 -0.217727
v 0.862811 0.021410 -0.078711
v 0.862811 -0.061651 -0.310518
v -0.258796 -0.064322 -0.571342
v -0.258796 -0.005499 -0.571342
v -0.258796 -0.061819 0.056903
v -0.258796 -0.000494 0.056903
v -0.036098 -0.123145 1.606905
v -0.036098 -0.103448 1.606905
v -0.246826 -0.123145 -1.000000
v -0.246826 0.053324 -1.000000
v -0.182304 -0.036894 0.635096
v -0.182304 0.049357 0.646804
v -0.258796 -0.123145 0.424324
v -0.258796 0.093688 0.424324
v -0.258796 -0.061651 -0.354024
v -0.105813 0.148070 0.892698
v -0.258796 -0.000158 -0.354024
v -0.105813 -0.123145 0.822454
v -0.105813 -0.032740 0.845869
v -0.258796 -0.123145 -0.354024
v -0.105813 0.057665 0.869283
v -0.258796 0.061336 -0.354024
v -0.258796 -0.050867 0.424324
v -0.182304 -0.123145 0.623389
v -0.258796 0.021410 0.424324
v -0.182304 0.135608 0.658511
v -0.036098 -0.116579 1.606905
v -0.258796 0.060832 0.056903
v -0.036098 -0.110013 1.606905
v -0.258796 -0.123145 0.056903
v -0.246826 -0.064322 -1.000000
v -0.258796 -0.123145 -0.571342
v -0.246826 -0.005499 -1.000000
v -0.258796 0.053324 -0.571342
v -0.555799 -0.005499 -0.970676
v -0.563237 -0.005499 -0.870578
v -0.563237 -0.064322 -0.870578
v -0.555799 -0.064322 -0.970676
v -0.862811 -0.061819 -0.217727
v -0.862811 -0.050867 -0.078711
v -0.862811 -0.000158 -0.310518
v -0.862811 -0.000494 -0.217727
v -0.862811 0.021410 -0.078711
v -0.862811 -0.061651 -0.310518
v -0.026540 -0.123145 -1.000000
v 0.026540 -0.123145 -1.000000
v -0.026540 0.053324 -1.000000
v 0.026540 0.053324 -1.000000
v 0.011377 -0.123145 1.606905
v -0.015248 -0.123145 1.606905
v 0.011377 -0.103448 1.606905
v -0.015248 -0.103448 1.606905
v 0.026540 0.093688 0.424324
v -0.026540 0.093688 0.424324
v -0.026540 -0.123145 0.424324
v 0.026540 -0.123145 0.424324
v -0.026540 0.148070 0.892698
v 0.026540 0.148070 0.892698
v 0.026540 -0.123145 0.822454
v -0.026540 -0.123145 0.822454
v -0.026540 -0.123145 -0.314980
v 0.026540 -0.123145 -0.314980
v 0.026540 0.061336 -0.252575
v -0.026540 0.061336 -0.252575
v 0.026540 -0.123145 0.623389
v -0.026540 -0.123145 0.623389
v -0.026540 0.135608 0.658511
v 0.026540 0.135608 0.658511
v 0.026540 -0.123145 0.056903
v -0.026540 -0.123145 0.056903
v -0.026540 0.060832 0.056903
v 0.026540 0.060832 0.056903
v -0.026540 0.053324 -0.817382
v 0.026540 0.053324 -0.817382
v 0.026540 -0.123145 -0.571342
v -0.026540 -0.123145 -0.571342
v 0.011377 -0.110013 1.606905
v -0.015248 -0.110013 1.606905
v -0.015248 -0.116579 1.606905
v 0.011377 -0.116579 1.606905
v -0.026540 -0.005499 -1.000000
v 0.026540 -0.005499 -1.000000
v 0.026540 -0.064322 -1.000000
v -0.026540 -0.064322 -1.000000
v -0.026540 0.466332 -1.003786
v 0.026540 0.466332 -1.003786
v 0.026540 0.519662 -0.857785
v -0.026540 0.519662 -0.857785
vt 0.458333 0.500000
vt 0.541667 0.388441
vt 0.458333 0.388441
vt 0.541667 0.500000
vt 0.625000 0.388441
vt 0.541667 0.674772
vt 0.625000 0.750000
vt 0.541667 0.750000
vt 0.541667 0.500000
vt 0.541667 0.541108
vt 0.541667 0.500000
vt 0.375000 0.802647
vt 0.458333 0.750000
vt 0.375000 0.750000
vt 0.458333 0.541108
vt 0.541667 0.541108
vt 0.458333 0.566121
vt 0.262819 0.636591
vt 0.375000 0.601356
vt 0.262819 0.601356
vt 0.625000 0.601356
vt 0.541667 0.636591
vt 0.541667 0.601356
vt 0.541667 0.655682
vt 0.458333 0.674772
vt 0.458333 0.655682
vt 0.458333 0.500000
vt 0.458333 0.541108
vt 0.458333 0.636591
vt 0.375000 0.655682
vt 0.375000 0.636591
vt 0.268198 0.655682
vt 0.375000 0.674772
vt 0.375000 0.655682
vt 0.625000 0.655682
vt 0.625000 0.541108
vt 0.541667 0.566121
vt 0.262819 0.541108
vt 0.375000 0.566121
vt 0.375000 0.541108
vt 0.375000 0.541108
vt 0.375000 0.500000
vt 0.375000 0.566121
vt 0.458333 0.601356
vt 0.375000 0.601356
vt 0.625000 0.636591
vt 0.375000 0.636591
vt 0.375000 0.674772
vt 0.541667 0.636591
vt 0.541667 0.601356
vt 0.262819 0.566121
vt 0.458333 0.566121
vt 0.458333 0.750000
vt 0.375000 0.500000
vt 0.263441 0.500000
vt 0.625000 0.500000
vt 0.458333 0.500000
vt 0.375000 0.388441
vt 0.625000 0.500000
vt 0.736662 0.506783
vt 0.736559 0.500000
vt 0.625000 0.541108
vt 0.737181 0.566121
vt 0.281353 0.674772
vt 0.375000 0.750000
vt 0.341904 0.750000
vt 0.625000 0.636591
vt 0.737181 0.601356
vt 0.625000 0.601356
vt 0.737181 0.566121
vt 0.625000 0.566121
vt 0.541667 0.388441
vt 0.458333 0.388441
vt 0.625000 0.674772
vt 0.731802 0.655682
vt 0.625000 0.655682
vt 0.737181 0.636591
vt 0.737181 0.601356
vt 0.625000 0.750000
vt 0.718647 0.674772
vt 0.458333 0.636591
vt 0.458333 0.601356
vt 0.541667 0.566121
vt 0.375000 0.812897
vt 0.541667 0.674772
vt 0.541667 0.541108
vt 0.541667 0.541108
vt 0.541667 0.812897
vt 0.458333 0.541108
vt 0.458333 0.566121
vt 0.731802 0.655682
vt 0.625000 0.674772
vt 0.541667 0.636591
vt 0.541667 0.601356
vt 0.458333 0.674772
vt 0.541667 0.655682
vt 0.458333 0.655682
vt 0.458333 0.541108
vt 0.458333 0.636591
vt 0.262819 0.566121
vt 0.262819 0.601356
vt 0.541667 0.566121
vt 0.458333 0.601356
vt 0.262819 0.636591
vt 0.541667 0.636591
vt 0.625000 0.566121
vt 0.262819 0.541108
vt 0.458333 0.566121
vt 0.541667 0.750000
vt 0.736662 0.506783
vt 0.458333 0.500000
vt 0.263441 0.500000
vt 0.625000 0.388441
vt 0.458333 0.802647
vt 0.281353 0.674772
vt 0.268198 0.655682
vt 0.458333 0.812897
vt 0.737181 0.636591
vt 0.541667 0.802647
vt 0.718647 0.674772
vt 0.541667 0.500000
vt 0.458333 0.636591
vt 0.541667 0.601356
vt 0.458333 0.601356
vt 0.541667 0.566121
vt 0.625000 0.812897
vt 0.625000 0.802647
vt 0.736559 0.500000
vt 0.737181 0.566121
vt 0.658097 0.750000
vt 0.375000 0.388441
vt 0.737181 0.566121
vt 0.736662 0.506783
vt 0.736662 0.506783
vt 0.658097 0.750000
vt 0.341904 0.750000
vn 0.0000 0.0000 -1.0000
vn 0.9956 0.0000 0.0941
vn 0.0000 1.0000 -0.0000
vn 0.0000 0.0000 1.0000
vn 0.7010 0.0000 0.7132
vn 1.0000 0.0000 0.0000
vn 0.0000 -1.0000 0.0000
vn 0.9387 -0.0464 0.3416
vn 0.9335 0.0000 0.3587
vn 0.9442 -0.0443 0.3263
vn 0.9996 0.0000 -0.0279
vn 0.9457 0.0000 0.3251
vn 0.9324 -0.0486 0.3583
vn 0.9400 0.0000 0.3411
vn -0.0706 0.9853 -0.1553
vn 0.0718 0.0000 -0.9974
vn 0.9958 0.0000 0.0912
vn 0.0945 0.0000 -0.9955
vn -0.0150 0.9998 -0.0142
vn 0.0000 0.9960 -0.0891
vn 0.0005 1.0000 0.0012
vn 0.0000 0.9986 -0.0531
vn 0.9958 -0.0229 0.0885
vn 0.0000 0.9844 -0.1762
vn 0.0000 0.9432 0.3322
vn 0.9973 0.0000 -0.0741
vn -0.0002 -1.0000 -0.0004
vn 0.0248 -0.9992 0.0298
vn -0.0003 1.0000 0.0036
vn 0.6400 0.0000 0.7684
vn -0.9958 -0.0231 0.0891
vn -0.7010 0.0000 0.7132
vn -1.0000 0.0000 0.0000
vn -0.9387 -0.0464 0.3416
vn -0.9335 0.0000 0.3587
vn -0.9442 -0.0443 0.3263
vn -0.0161 0.9992 -0.0368
vn -0.9996 0.0000 -0.0279
vn -0.9457 0.0000 0.3251
vn -0.9324 -0.0486 0.3583
vn -0.9400 0.0000 0.3411
vn 0.0495 0.9970 -0.0594
vn -0.0718 0.0000 -0.9974
vn -0.9958 -0.0230 0.0889
vn -0.0945 0.0000 -0.9955
vn -0.0005 1.0000 0.0012
vn -0.9958 -0.0229 0.0885
vn -0.9973 0.0000 -0.0741
vn 0.0002 -1.0000 -0.0004
vn -0.0248 -0.9992 0.0298
vn -0.0004 1.0000 0.0008
vn -0.6400 0.0000 0.7684
vn 0.0000 1.0000 0.0016
vn 0.0000 0.9393 -0.3431
vn 0.0000 0.7972 0.6037
vn 0.0000 -0.4114 -0.9115
vn 0.9958 -0.0231 0.0891
vn 0.9413 -0.0846 0.3268
vn 0.9380 -0.0466 0.3435
vn 0.9462 -0.0812 0.3134
vn 0.9474 -0.0430 0.3171
vn 0.9358 -0.0884 0.3413
vn 0.9430 -0.0448 0.3298
vn -0.0495 0.9970 -0.0594
vn 0.9958 -0.0230 0.0889
vn 0.0161 0.9992 -0.0368
vn 0.0001 -1.0000 -0.0018
vn 0.0357 -0.9963 0.0785
vn 0.0004 1.0000 0.0008
vn -0.9956 0.0000 0.0941
vn -0.9413 -0.0846 0.3268
vn -0.9380 -0.0466 0.3435
vn -0.9462 -0.0812 0.3134
vn 0.0150 0.9998 -0.0142
vn -0.9474 -0.0430 0.3171
vn -0.9358 -0.0884 0.3413
vn -0.9430 -0.0448 0.3298
vn 0.0706 0.9853 -0.1553
vn -0.9958 0.0000 0.0912
vn -0.0001 -1.0000 -0.0018
vn -0.0357 -0.9963 0.0785
vn 0.0003 1.0000 0.0036
usemtl None
s off
f 71/1/1 121/2/1 124/3/1
f 73/4/1 87/5/1 121/2/1
f 19/6/2 6/7/2 27/8/2
f 31/9/3 34/10/3 33/11/3
f 90/12/4 67/13/4 47/14/4
f 1/15/5 34/10/5 2/16/5
f 2/16/6 13/17/6 1/15/6
f 95/18/7 70/19/7 110/20/7
f 26/21/6 23/22/6 4/23/6
f 10/24/8 17/25/8 9/26/8
f 29/27/7 35/28/7 1/15/7
f 21/29/9 22/30/9 11/31/9
f 106/32/7 58/33/7 64/34/7
f 24/35/10 19/6/10 10/24/10
f 32/36/6 15/37/6 2/16/6
f 116/38/7 60/39/7 72/40/7
f 29/27/11 30/41/11 7/42/11
f 18/43/6 3/44/6 28/45/6
f 12/46/12 10/24/12 23/22/12
f 95/18/7 64/34/7 53/47/7
f 9/26/13 16/48/13 22/30/13
f 23/22/14 9/26/14 21/29/14
f 4/23/15 41/49/15 40/50/15
f 15/37/6 26/21/6 4/23/6
f 101/51/7 70/19/7 60/39/7
f 15/37/16 42/52/16 13/17/16
f 17/25/17 27/8/17 25/53/17
f 116/38/7 49/54/7 85/55/7
f 8/56/11 2/16/11 31/9/11
f 31/9/18 36/57/18 29/27/18
f 49/54/1 124/3/1 85/58/1
f 50/59/3 113/60/3 87/61/3
f 74/62/19 104/63/19 113/60/19
f 99/64/7 5/65/7 89/66/7
f 54/67/20 111/68/20 68/69/20
f 3/44/6 11/31/6 28/45/6
f 103/70/21 26/21/21 20/71/21
f 122/72/1 29/27/1 123/73/1
f 1/15/6 18/43/6 30/41/6
f 56/74/22 107/75/22 66/76/22
f 17/25/23 5/65/23 16/48/23
f 93/77/24 24/35/24 12/46/24
f 112/78/20 12/46/20 26/21/20
f 48/79/25 97/80/25 56/74/25
f 33/11/26 35/28/26 36/57/26
f 40/50/6 38/81/6 37/82/6
f 42/52/6 40/50/6 37/82/6
f 13/17/27 37/82/27 3/44/27
f 3/44/28 38/81/28 21/29/28
f 15/37/29 40/50/29 39/83/29
f 21/29/30 41/49/30 23/22/30
f 25/53/4 89/84/4 5/65/4
f 61/85/31 48/79/31 56/74/31
f 73/4/3 76/86/3 44/87/3
f 6/7/4 117/88/4 27/8/4
f 76/86/32 43/89/32 44/87/32
f 55/90/33 44/87/33 43/89/33
f 108/91/22 14/92/22 24/35/22
f 65/93/33 68/69/33 46/94/33
f 59/95/34 52/96/34 51/97/34
f 77/98/7 71/1/7 43/89/7
f 64/34/35 63/99/35 53/47/35
f 102/100/7 28/45/7 109/101/7
f 61/85/36 66/76/36 52/96/36
f 57/102/33 74/62/33 44/87/33
f 32/36/37 103/70/37 20/71/37
f 72/40/38 71/1/38 49/54/38
f 60/39/33 45/103/33 55/90/33
f 52/96/39 54/67/39 65/93/39
f 28/45/7 96/104/7 109/101/7
f 58/33/40 51/97/40 64/34/40
f 51/97/41 65/93/41 63/99/41
f 46/94/42 83/105/42 65/93/42
f 57/102/33 68/69/33 62/106/33
f 115/107/7 18/43/7 102/100/7
f 84/108/43 57/102/43 55/90/43
f 59/95/44 69/109/44 61/85/44
f 8/56/3 114/110/3 32/36/3
f 44/87/38 50/59/38 73/4/38
f 78/111/45 73/4/45 71/1/45
f 7/42/7 115/107/7 86/112/7
f 88/113/1 31/9/1 122/72/1
f 119/114/4 69/109/4 67/13/4
f 100/115/7 47/14/7 58/33/7
f 96/104/7 22/30/7 105/116/7
f 53/47/33 45/103/33 70/19/33
f 68/69/46 104/63/46 62/106/46
f 27/8/4 120/117/4 25/53/4
f 60/39/33 43/89/33 72/40/33
f 105/116/7 16/48/7 99/64/7
f 47/14/47 59/95/47 58/33/47
f 66/76/24 94/118/24 54/67/24
f 118/119/4 48/79/4 69/109/4
f 98/120/25 6/7/25 14/92/25
f 77/98/48 75/121/48 78/111/48
f 80/122/33 82/123/33 79/124/33
f 84/108/33 82/123/33 81/125/33
f 79/124/49 55/90/49 45/103/49
f 80/122/50 45/103/50 63/99/50
f 57/102/51 82/123/51 46/94/51
f 83/105/52 63/99/52 65/93/52
f 123/73/1 121/2/1 122/72/1
f 122/72/1 87/5/1 88/113/1
f 119/114/4 117/88/4 118/119/4
f 118/119/4 91/126/4 92/127/4
f 115/107/7 85/55/7 86/112/7
f 113/60/3 88/128/3 87/61/3
f 111/68/53 103/70/53 104/63/53
f 109/101/7 101/51/7 102/100/7
f 107/75/24 93/77/24 94/118/24
f 105/116/7 95/18/7 96/104/7
f 114/110/6 127/129/6 103/70/6
f 102/100/7 116/38/7 115/107/7
f 99/64/7 106/32/7 105/116/7
f 97/80/22 108/91/22 107/75/22
f 96/104/7 110/20/7 109/101/7
f 94/118/20 112/78/20 111/68/20
f 97/80/25 91/130/25 98/120/25
f 89/66/7 100/115/7 99/64/7
f 90/12/4 120/117/4 119/114/4
f 86/131/1 124/3/1 123/73/1
f 123/73/1 7/42/1 86/131/1
f 128/132/54 126/133/54 125/134/54
f 103/70/55 128/132/55 104/63/55
f 113/60/56 126/133/56 114/110/56
f 113/60/33 128/132/33 125/134/33
f 71/1/1 73/4/1 121/2/1
f 73/4/1 50/59/1 87/5/1
f 19/6/57 14/92/57 6/7/57
f 31/9/3 2/16/3 34/10/3
f 90/12/4 119/114/4 67/13/4
f 1/15/5 35/28/5 34/10/5
f 2/16/6 15/37/6 13/17/6
f 95/18/7 53/47/7 70/19/7
f 26/21/6 12/46/6 23/22/6
f 10/24/58 19/6/58 17/25/58
f 29/27/7 36/57/7 35/28/7
f 21/29/59 9/26/59 22/30/59
f 106/32/7 100/115/7 58/33/7
f 24/35/60 14/92/60 19/6/60
f 32/36/6 20/71/6 15/37/6
f 116/38/7 101/51/7 60/39/7
f 29/27/11 1/15/11 30/41/11
f 18/43/6 13/17/6 3/44/6
f 12/46/61 24/35/61 10/24/61
f 95/18/7 106/32/7 64/34/7
f 9/26/62 17/25/62 16/48/62
f 23/22/63 10/24/63 9/26/63
f 4/23/64 23/22/64 41/49/64
f 15/37/6 20/71/6 26/21/6
f 101/51/7 110/20/7 70/19/7
f 15/37/16 39/83/16 42/52/16
f 17/25/65 19/6/65 27/8/65
f 116/38/7 72/40/7 49/54/7
f 8/56/11 32/36/11 2/16/11
f 31/9/18 33/11/18 36/57/18
f 49/54/1 71/1/1 124/3/1
f 50/59/3 74/62/3 113/60/3
f 74/62/66 62/106/66 104/63/66
f 99/64/7 16/48/7 5/65/7
f 54/67/20 94/118/20 111/68/20
f 3/44/6 21/29/6 11/31/6
f 103/70/53 112/78/53 26/21/53
f 122/72/1 31/9/1 29/27/1
f 1/15/6 13/17/6 18/43/6
f 56/74/22 97/80/22 107/75/22
f 17/25/17 25/53/17 5/65/17
f 93/77/24 108/91/24 24/35/24
f 112/78/20 93/77/20 12/46/20
f 48/79/25 92/135/25 97/80/25
f 33/11/26 34/10/26 35/28/26
f 40/50/6 41/49/6 38/81/6
f 42/52/6 39/83/6 40/50/6
f 13/17/67 42/52/67 37/82/67
f 3/44/68 37/82/68 38/81/68
f 15/37/69 4/23/69 40/50/69
f 21/29/30 38/81/30 41/49/30
f 25/53/4 120/117/4 89/84/4
f 61/85/70 69/109/70 48/79/70
f 73/4/3 75/121/3 76/86/3
f 6/7/4 91/126/4 117/88/4
f 76/86/32 77/98/32 43/89/32
f 55/90/33 57/102/33 44/87/33
f 108/91/22 98/120/22 14/92/22
f 65/93/33 54/67/33 68/69/33
f 59/95/71 61/85/71 52/96/71
f 77/98/7 78/111/7 71/1/7
f 64/34/72 51/97/72 63/99/72
f 102/100/7 18/43/7 28/45/7
f 61/85/73 56/74/73 66/76/73
f 57/102/33 62/106/33 74/62/33
f 32/36/74 114/110/74 103/70/74
f 72/40/38 43/89/38 71/1/38
f 60/39/33 70/19/33 45/103/33
f 52/96/75 66/76/75 54/67/75
f 28/45/7 11/31/7 96/104/7
f 58/33/76 59/95/76 51/97/76
f 51/97/77 52/96/77 65/93/77
f 46/94/78 82/123/78 83/105/78
f 57/102/33 46/94/33 68/69/33
f 115/107/7 30/41/7 18/43/7
f 84/108/43 81/125/43 57/102/43
f 59/95/79 67/13/79 69/109/79
f 8/56/3 88/128/3 114/110/3
f 44/87/38 74/62/38 50/59/38
f 78/111/45 75/121/45 73/4/45
f 7/42/7 30/41/7 115/107/7
f 88/113/1 8/56/1 31/9/1
f 119/114/4 118/119/4 69/109/4
f 100/115/7 90/136/7 47/14/7
f 96/104/7 11/31/7 22/30/7
f 53/47/33 63/99/33 45/103/33
f 68/69/53 111/68/53 104/63/53
f 27/8/4 117/88/4 120/117/4
f 60/39/33 55/90/33 43/89/33
f 105/116/7 22/30/7 16/48/7
f 47/14/79 67/13/79 59/95/79
f 66/76/24 107/75/24 94/118/24
f 118/119/4 92/127/4 48/79/4
f 98/120/25 91/130/25 6/7/25
f 77/98/48 76/86/48 75/121/48
f 80/122/33 83/105/33 82/123/33
f 84/108/33 79/124/33 82/123/33
f 79/124/80 84/108/80 55/90/80
f 80/122/81 79/124/81 45/103/81
f 57/102/82 81/125/82 82/123/82
f 83/105/52 80/122/52 63/99/52
f 123/73/1 124/3/1 121/2/1
f 122/72/1 121/2/1 87/5/1
f 119/114/4 120/117/4 117/88/4
f 118/119/4 117/88/4 91/126/4
f 115/107/7 116/38/7 85/55/7
f 113/60/3 114/110/3 88/128/3
f 111/68/53 112/78/53 103/70/53
f 109/101/7 110/20/7 101/51/7
f 107/75/24 108/91/24 93/77/24
f 105/116/7 106/32/7 95/18/7
f 114/110/6 126/133/6 127/129/6
f 102/100/7 101/51/7 116/38/7
f 99/64/7 100/115/7 106/32/7
f 97/80/22 98/120/22 108/91/22
f 96/104/7 95/18/7 110/20/7
f 94/118/20 93/77/20 112/78/20
f 97/80/25 92/135/25 91/130/25
f 89/66/7 90/136/7 100/115/7
f 90/12/4 89/84/4 120/117/4
f 86/131/1 85/58/1 124/3/1
f 123/73/1 29/27/1 7/42/1
f 128/132/54 127/129/54 126/133/54
f 103/70/55 127/129/55 128/132/55
f 113/60/56 125/134/56 126/133/56
f 113/60/33 104/63/33 128/132/33
