<?xml version="1.0" encoding="UTF-8" standalone="no"?>
<!-- Created with Inkscape (http://www.inkscape.org/) -->

<svg
   xmlns:dc="http://purl.org/dc/elements/1.1/"
   xmlns:cc="http://creativecommons.org/ns#"
   xmlns:rdf="http://www.w3.org/1999/02/22-rdf-syntax-ns#"
   xmlns:svg="http://www.w3.org/2000/svg"
   xmlns="http://www.w3.org/2000/svg"
   xmlns:sodipodi="http://sodipodi.sourceforge.net/DTD/sodipodi-0.dtd"
   xmlns:inkscape="http://www.inkscape.org/namespaces/inkscape"
   width="210mm"
   height="297mm"
   viewBox="0 0 210 297"
   version="1.1"
   id="svg842"
   inkscape:version="0.92.4 5da689c313, 2019-01-14"
   sodipodi:docname="fuel.svg"
   inkscape:export-filename="/home/dominykas/c++/FSim/Assets/Icons/HUD/fuel.png"
   inkscape:export-xdpi="96"
   inkscape:export-ydpi="96">
  <defs
     id="defs836" />
  <sodipodi:namedview
     id="base"
     pagecolor="#ffffff"
     bordercolor="#666666"
     borderopacity="1.0"
     inkscape:pageopacity="0.0"
     inkscape:pageshadow="2"
     inkscape:zoom="4.5383483"
     inkscape:cx="265.34816"
     inkscape:cy="609.67177"
     inkscape:document-units="mm"
     inkscape:current-layer="layer1"
     showgrid="false"
     inkscape:window-width="1920"
     inkscape:window-height="1080"
     inkscape:window-x="0"
     inkscape:window-y="0"
     inkscape:window-maximized="0" />
  <metadata
     id="metadata839">
    <rdf:RDF>
      <cc:Work
         rdf:about="">
        <dc:format>image/svg+xml</dc:format>
        <dc:type
           rdf:resource="http://purl.org/dc/dcmitype/StillImage" />
        <dc:title></dc:title>
      </cc:Work>
    </rdf:RDF>
  </metadata>
  <g
     inkscape:label="Layer 1"
     inkscape:groupmode="layer"
     id="layer1">
    <path
       style="opacity:1;fill:#000000;fill-opacity:1;fill-rule:nonzero;stroke:none;stroke-width:0.75590552;stroke-linecap:square;stroke-linejoin:round;stroke-miterlimit:4;stroke-dasharray:none;stroke-dashoffset:0;stroke-opacity:1;paint-order:stroke fill markers"
       d="M 291.53906 457.25586 L 281.27344 467.94922 L 275.4668 480.51953 L 268.50391 480.51953 L 252.38672 497.22461 L 252.38672 595.95117 L 258.35156 601.41797 L 333.65039 601.41797 L 339.36328 595.95117 L 339.39062 485.20508 L 335.44531 480.51953 L 334.5957 480.51953 L 328.43945 467.57031 L 318.32227 457.25586 L 291.53906 457.25586 z M 293.3457 460.42969 L 316.86133 460.42969 L 325.74609 469.60352 L 331.16992 480.66797 L 279.39258 480.66797 L 284.44336 469.93555 L 293.3457 460.42969 z M 263.30078 475.3457 L 246.91016 491.73828 L 251.08789 495.91602 L 267.48047 479.52344 L 263.30078 475.3457 z M 270.98828 507.23633 L 291.84375 530.70117 L 299.27734 530.77734 L 322.60547 507.38672 L 325.67969 510.05078 L 301.95312 533.77539 L 301.95312 540.15625 L 325.56641 564.35352 L 322.99805 566.70117 L 299.27734 543.07422 L 291.84375 543.07422 L 270.02148 566.66211 L 267.94336 564.76758 L 289.79883 539.81641 L 289.79883 533.77539 L 268.31445 509.20703 L 270.98828 507.23633 z M 292.5332 533.77148 L 292.5332 539.83594 L 298.59766 539.83594 L 298.59766 533.77148 L 292.5332 533.77148 z "
       transform="scale(0.26458333)"
       id="rect1387" />
    <g
       aria-label="X"
       style="font-style:normal;font-variant:normal;font-weight:500;font-stretch:normal;font-size:25.15024757px;line-height:1.25;font-family:Akaash;-inkscape-font-specification:'Akaash, Medium';font-variant-ligatures:normal;font-variant-caps:normal;font-variant-numeric:normal;font-feature-settings:normal;text-align:start;letter-spacing:0px;word-spacing:0px;writing-mode:lr-tb;text-anchor:start;fill:none;fill-opacity:1;stroke:#000000;stroke-width:0.2;stroke-miterlimit:4;stroke-dasharray:none;stroke-opacity:1"
       id="text1439" />
  </g>
</svg>
