<?xml version="1.0" encoding="UTF-8" standalone="no"?>
<!-- Created with Inkscape (http://www.inkscape.org/) -->

<svg
   xmlns:dc="http://purl.org/dc/elements/1.1/"
   xmlns:cc="http://creativecommons.org/ns#"
   xmlns:rdf="http://www.w3.org/1999/02/22-rdf-syntax-ns#"
   xmlns:svg="http://www.w3.org/2000/svg"
   xmlns="http://www.w3.org/2000/svg"
   xmlns:sodipodi="http://sodipodi.sourceforge.net/DTD/sodipodi-0.dtd"
   xmlns:inkscape="http://www.inkscape.org/namespaces/inkscape"
   width="210mm"
   height="297mm"
   viewBox="0 0 210 297"
   version="1.1"
   id="svg6494"
   inkscape:version="0.92.4 5da689c313, 2019-01-14"
   sodipodi:docname="hp.svg"
   inkscape:export-filename="/home/dominykas/c++/FSim/Assets/Icons/HUD/hp.png"
   inkscape:export-xdpi="96"
   inkscape:export-ydpi="96">
  <defs
     id="defs6488" />
  <sodipodi:namedview
     id="base"
     pagecolor="#ffffff"
     bordercolor="#666666"
     borderopacity="1.0"
     inkscape:pageopacity="0.0"
     inkscape:pageshadow="2"
     inkscape:zoom="0.50994353"
     inkscape:cx="394.18513"
     inkscape:cy="618.0816"
     inkscape:document-units="mm"
     inkscape:current-layer="layer1"
     showgrid="false"
     inkscape:window-width="316"
     inkscape:window-height="1041"
     inkscape:window-x="0"
     inkscape:window-y="18"
     inkscape:window-maximized="0" />
  <metadata
     id="metadata6491">
    <rdf:RDF>
      <cc:Work
         rdf:about="">
        <dc:format>image/svg+xml</dc:format>
        <dc:type
           rdf:resource="http://purl.org/dc/dcmitype/StillImage" />
        <dc:title></dc:title>
      </cc:Work>
    </rdf:RDF>
  </metadata>
  <g
     inkscape:label="Layer 1"
     inkscape:groupmode="layer"
     id="layer1">
    <path
       style="opacity:1;fill:#000000;fill-opacity:1;fill-rule:nonzero;stroke:none;stroke-width:0.4;stroke-linecap:square;stroke-linejoin:round;stroke-miterlimit:3.33333325;stroke-dasharray:none;stroke-dashoffset:0;stroke-opacity:1;paint-order:stroke fill markers"
       d="m 114.56355,110.40337 c -3.82544,-3.75857 -10.6854,-2.39254 -10.6854,-2.39254 l 5.68901,5.68088 -5.51657,5.50869 -5.689028,-5.68088 c 0,0 -0.599334,6.82644 2.798918,10.26776 4.56942,4.6275 10.76649,2.65486 10.76649,2.65486 l 27.21437,27.17546 c 0,0 -0.45669,3.56258 0.16418,5.40187 0.54086,1.60223 2.29799,3.43694 3.52031,4.16307 2.03356,1.20807 4.12933,1.30946 6.68602,0.6382 2.36767,-0.94172 3.92168,-2.42582 4.60316,-4.52941 0.71632,-2.52285 0.72648,-4.37578 -0.18624,-6.50507 -0.56575,-1.31985 -2.42705,-3.22742 -3.96055,-3.95488 -1.7607,-0.83526 -5.61972,-0.41359 -5.61972,-0.41359 l -27.21437,-27.17546 c 0,0 1.59227,-6.74887 -2.57061,-10.839 z m 36.19373,41.77518 c 2.32851,2.32092 2.3908,6.02974 0.1383,8.28579 l -0.006,0.006 c -2.25582,2.2527 -5.97022,2.19637 -8.29745,-0.12585 -2.32746,-2.32242 -2.38675,-6.03188 -0.13225,-8.28624 2.25373,-2.25476 5.9686,-2.20044 8.29736,0.12026 z"
       id="rect7039"
       inkscape:connector-curvature="0"
       sodipodi:nodetypes="cccccccccsccsccccccccccc" />
  </g>
</svg>
