<?xml version="1.0" encoding="UTF-8" standalone="no"?>
<!-- Created with Inkscape (http://www.inkscape.org/) -->

<svg
   xmlns:dc="http://purl.org/dc/elements/1.1/"
   xmlns:cc="http://creativecommons.org/ns#"
   xmlns:rdf="http://www.w3.org/1999/02/22-rdf-syntax-ns#"
   xmlns:svg="http://www.w3.org/2000/svg"
   xmlns="http://www.w3.org/2000/svg"
   xmlns:sodipodi="http://sodipodi.sourceforge.net/DTD/sodipodi-0.dtd"
   xmlns:inkscape="http://www.inkscape.org/namespaces/inkscape"
   width="210mm"
   height="297mm"
   viewBox="0 0 210 297"
   version="1.1"
   id="svg8"
   inkscape:version="0.92.4 5da689c313, 2019-01-14"
   sodipodi:docname="samSite.svg">
  <defs
     id="defs2" />
  <sodipodi:namedview
     id="base"
     pagecolor="#ffffff"
     bordercolor="#666666"
     borderopacity="1.0"
     inkscape:pageopacity="0.0"
     inkscape:pageshadow="2"
     inkscape:zoom="4"
     inkscape:cx="236.73521"
     inkscape:cy="714.30922"
     inkscape:document-units="mm"
     inkscape:current-layer="layer1"
     showgrid="false"
     inkscape:window-width="1916"
     inkscape:window-height="1041"
     inkscape:window-x="0"
     inkscape:window-y="18"
     inkscape:window-maximized="0" />
  <metadata
     id="metadata5">
    <rdf:RDF>
      <cc:Work
         rdf:about="">
        <dc:format>image/svg+xml</dc:format>
        <dc:type
           rdf:resource="http://purl.org/dc/dcmitype/StillImage" />
        <dc:title />
      </cc:Work>
    </rdf:RDF>
  </metadata>
  <g
     inkscape:label="Layer 1"
     inkscape:groupmode="layer"
     id="layer1">
    <path
       style="fill:none;fill-opacity:1;stroke:#000000;stroke-width:0.5;stroke-linecap:square;stroke-linejoin:miter;stroke-miterlimit:4;stroke-dasharray:none;stroke-dashoffset:0;stroke-opacity:1;paint-order:normal"
       d="m 64.066963,89.141584 h 23.906992 v 26.713326 h -3.2821 l 0.01018,1.50372 h -3.790393 l -0.01874,-1.50363 h -3.216212 l 0.0125,1.50363 H 73.78109 l -0.0049,-1.50363 h -3.411933 l -0.0038,1.50363 h -3.828023 l 0.0054,-1.50363 -2.470862,3e-5 z"
       id="rect1378"
       inkscape:connector-curvature="0"
       sodipodi:nodetypes="ccccccccccccccccc"
       inkscape:export-xdpi="96"
       inkscape:export-ydpi="96" />
    <g
       id="g1493"
       transform="translate(-18.535144,-12.836658)"
       style="stroke:#000000;stroke-opacity:1;stroke-width:0.5;stroke-miterlimit:4;stroke-dasharray:none;fill:none;fill-opacity:1"
       inkscape:export-xdpi="96"
       inkscape:export-ydpi="96">
      <g
         style="display:inline;fill:none;fill-opacity:1;stroke:#000000;stroke-opacity:1;stroke-width:0.42713906;stroke-miterlimit:4;stroke-dasharray:none"
         id="layer1-0-4"
         inkscape:label="Layer 1"
         transform="matrix(1.510938,0,0,0.90689036,-37.345772,13.791894)">
        <path
           sodipodi:nodetypes="ccsccccccccc"
           inkscape:connector-curvature="0"
           id="path4518-7"
           d="m 87.768428,110.91287 v 11.82022 c 0,0 -0.21813,3.23012 -0.74505,3.28546 -0.47457,0.0498 -0.755,-3.20216 -0.755,-3.20216 V 110.8229 l -0.91897,-4.42391 1.12449,2e-5 0.031,-2.35746 1.1258,-0.029 -0.0135,2.38659 h 1.17312 z"
           style="fill:none;fill-opacity:1;stroke:#000000;stroke-width:0.42713906;stroke-linecap:butt;stroke-linejoin:miter;stroke-opacity:1;stroke-miterlimit:4;stroke-dasharray:none" />
      </g>
      <g
         style="display:inline;fill:none;fill-opacity:1;stroke:#000000;stroke-opacity:1;stroke-width:0.42713906;stroke-miterlimit:4;stroke-dasharray:none"
         id="layer1-0-4-6"
         inkscape:label="Layer 1"
         transform="matrix(1.510938,0,0,0.90689036,-44.876095,13.838666)"
         inkscape:export-xdpi="96"
         inkscape:export-ydpi="96">
        <path
           sodipodi:nodetypes="ccsccccccccc"
           inkscape:connector-curvature="0"
           id="path4518-7-3"
           d="m 87.768428,110.91287 v 11.82022 c 0,0 -0.21813,3.23012 -0.74505,3.28546 -0.47457,0.0498 -0.755,-3.20216 -0.755,-3.20216 V 110.8229 l -0.91897,-4.42391 1.12449,2e-5 0.031,-2.35746 1.1258,-0.029 -0.0135,2.38659 h 1.17312 z"
           style="fill:none;fill-opacity:1;stroke:#000000;stroke-width:0.42713906;stroke-linecap:butt;stroke-linejoin:miter;stroke-opacity:1;stroke-miterlimit:4;stroke-dasharray:none" />
      </g>
      <g
         style="display:inline;fill:none;fill-opacity:1;stroke:#000000;stroke-opacity:1;stroke-width:0.42713906;stroke-miterlimit:4;stroke-dasharray:none"
         id="layer1-0-4-6-1"
         inkscape:label="Layer 1"
         transform="matrix(1.510938,0,0,0.90689036,-30.329951,13.838666)">
        <path
           sodipodi:nodetypes="ccsccccccccc"
           inkscape:connector-curvature="0"
           id="path4518-7-3-7"
           d="m 87.892251,110.91287 v 11.82022 c 0,0 -0.21813,3.23012 -0.74505,3.28546 -0.47457,0.0498 -0.755,-3.20216 -0.755,-3.20216 V 110.8229 l -0.91897,-4.42391 1.12449,2e-5 0.031,-2.35746 1.1258,-0.029 -0.0135,2.38659 h 1.17312 z"
           style="fill:none;fill-opacity:1;stroke:#000000;stroke-width:0.42713906;stroke-linecap:butt;stroke-linejoin:miter;stroke-opacity:1;stroke-miterlimit:4;stroke-dasharray:none" />
      </g>
    </g>
  </g>
</svg>
